<?xml version="1.0" encoding="UTF-8" standalone="no"?>
<svg
   xmlns:dc="http://purl.org/dc/elements/1.1/"
   xmlns:cc="http://creativecommons.org/ns#"
   xmlns:rdf="http://www.w3.org/1999/02/22-rdf-syntax-ns#"
   xmlns:svg="http://www.w3.org/2000/svg"
   xmlns="http://www.w3.org/2000/svg"
   xmlns:sodipodi="http://sodipodi.sourceforge.net/DTD/sodipodi-0.dtd"
   xmlns:inkscape="http://www.inkscape.org/namespaces/inkscape"
   version="1.1"
   id="svg2"
   viewBox="0 0 319.52 231.78714"
   height="65.415482mm"
   width="90.175644mm"
   inkscape:version="0.91 r13725"
   sodipodi:docname="ic_d_col.svg">
  <sodipodi:namedview
     pagecolor="#ffffff"
     bordercolor="#666666"
     borderopacity="1"
     objecttolerance="10"
     gridtolerance="10"
     guidetolerance="10"
     inkscape:pageopacity="0"
     inkscape:pageshadow="2"
     inkscape:window-width="1366"
     inkscape:window-height="716"
     id="namedview7"
     showgrid="false"
     fit-margin-top="0"
     fit-margin-left="0"
     fit-margin-right="0"
     fit-margin-bottom="0"
     inkscape:zoom="0.22425739"
     inkscape:cx="170.12941"
     inkscape:cy="69.206958"
     inkscape:window-x="-8"
     inkscape:window-y="-8"
     inkscape:window-maximized="1"
     inkscape:current-layer="svg2" />
  <defs
     id="defs4" />
  <metadata
     id="metadata7">
    <rdf:RDF>
      <cc:Work
         rdf:about="">
        <dc:format>image/svg+xml</dc:format>
        <dc:type
           rdf:resource="http://purl.org/dc/dcmitype/StillImage" />
        <dc:title></dc:title>
      </cc:Work>
    </rdf:RDF>
  </metadata>
  <g
     id="layer1"
     transform="translate(-201.91783,-363.60091)">
    <path
       id="path3358"
       d="m 389.80431,591.02943 c 0.49373,-3.0425 0.11325,-5.07056 -1.2312,-6.5625 -1.07017,-1.18757 -2.33314,-3.71141 -2.80662,-5.60853 -0.47347,-1.89713 -1.36105,-3.75844 -1.97239,-4.13628 -0.61133,-0.37782 -1.11152,-1.53769 -1.11152,-2.57747 0,-1.03978 -0.84375,-2.73427 -1.875,-3.76552 -1.03125,-1.03125 -1.875,-3.01247 -1.875,-4.40273 0,-1.49352 -1.04397,-2.80074 -2.55159,-3.19499 -1.40561,-0.36758 -2.4445,-1.57818 -2.31314,-2.69548 0.13114,-1.11552 -0.74635,-4.27822 -1.94998,-7.02822 -1.20364,-2.75 -4.71525,-10.82479 -7.80359,-17.94398 l -5.61516,-12.94397 1.50613,-7.98224 1.50614,-7.98222 -3.8894,-4.42979 c -2.13917,-2.43639 -3.88941,-5.72271 -3.88941,-7.30296 0,-1.58024 -0.33909,-3.21227 -0.75353,-3.6267 -1.07541,-1.07542 -6.9258,1.33956 -9.87147,4.07482 -1.375,1.27679 -7.28125,3.54133 -13.125,5.03231 -8.96766,2.28802 -11.5999,2.50321 -16.875,1.37954 -3.4375,-0.73223 -8.21875,-1.62592 -10.625,-1.98599 -2.40625,-0.36005 -6.4725,-1.01042 -9.03612,-1.44527 -3.25447,-0.55204 -5.57724,-0.19039 -7.6968,1.19841 -2.72448,1.78515 -3.11161,1.79118 -3.77638,0.0588 -1.67684,-4.36979 -0.87664,-5.70427 2.92038,-4.8703 2.0136,0.44225 6.83632,0.21713 10.71717,-0.50028 4.89872,-0.90558 9.92159,-0.90584 16.42822,-8.6e-4 7.03669,0.97873 9.81711,0.93426 11.15783,-0.17845 2.33703,-1.9395 2.27522,-3.67582 -0.13085,-3.67582 -3.59736,0 -13.93919,-6.08736 -16.32638,-9.60996 -1.31014,-1.93327 -2.90753,-5.17646 -3.00707,-7.26504 -0.2065,-4.33256 0.3024,-4.79902 -6.1598,-4.48857 -4.44392,0.21349 -6.34267,-1.70084 -9.50999,-5.47348 l -3.9752,-4.73492 -7.99001,2.55071 c -13.46193,4.29755 -25.13127,7.48683 -32.99,9.0163 -15.39874,2.99692 -26.96328,7.27125 -33.95487,12.54995 -3.77377,2.84922 -7.09317,4.94864 -7.37645,4.66536 -0.81432,-0.81432 7.09311,-8.46688 10.64885,-10.30563 4.4635,-2.30817 29.85869,-9.90383 41.93247,-12.54193 10.18848,-2.22617 25.625,-8.5418 25.625,-10.48411 0,-1.83583 -2.93954,-3.51935 -7.61259,-4.35983 -2.46817,-0.44392 -5.8006,-2.20476 -7.40539,-3.91299 -3.18414,-3.38936 -2.04486,-4.03094 1.96657,-1.27061 3.70057,2.54642 7.42952,2.39125 6.82055,-0.89775 -0.5399,-2.91597 2.42676,-7.85347 2.46172,-5 1.37671,1.2736 2.71082,-2.2042 2.71082,-2.2042 0,0 0.3248,-2.19846 -0.75202,-1.89373 -1.43499,0.4061 -1.62067,-1.36186 0.0832,-2.64956 5.7381,-4.33648 2.58001,-5.16085 -3.57981,-5.68756 -2.69855,-0.23075 -4.8196,-0.69159 -2.93784,-1.56415 1.49087,-0.6913 4.5268,-0.50178 8.125,0.50721 7.93007,2.2237 14.95226,3.55531 15.55743,2.95014 2.07263,-2.07263 -8.6068,-24.12002 -14.774,-30.50051 -1.05253,-1.08892 -1.91368,-2.42799 -1.91368,-2.97571 0,-1.46658 -8.22992,-12.75452 -15.22637,-20.8841 -3.35582,-3.89932 -5.5667,-7.42019 -4.91307,-7.82415 0.65363,-0.40396 3.34302,2.08246 5.97643,5.52539 2.6334,3.44293 7.35251,9.53914 10.48691,13.54714 9.23214,11.80527 17.21623,24.40998 21.94568,34.64624 4.70693,10.18753 4.36483,9.98503 12.55235,7.4304 2.75252,-0.85883 5.67942,1.27667 8.73659,6.37434 1.21694,2.02918 1.7835,2.14954 3.75,0.79668 1.27406,-0.87649 4.63689,-2.69988 7.47294,-4.05197 4.59205,-2.18926 5.96025,-2.30129 12.5,-1.02354 4.03895,0.78914 8.88658,2.50748 10.77251,3.81852 4.36332,3.03324 5.44123,2.29849 6.31769,-4.30641 0.54988,-4.14378 1.63773,-6.04435 4.84685,-8.46797 2.27581,-1.71875 6.69816,-5.48432 9.82743,-8.36794 5.38875,-4.96571 5.76927,-5.11532 7.19682,-2.82946 2.1131,3.38363 1.95075,3.69572 -1.93026,3.71041 -2.96725,0.0113 -3.90405,1.01589 -6.8479,7.34396 -3.13591,6.74088 -3.347,8.15323 -2.6226,17.54708 0.5493,7.12317 1.18445,9.8195 2.0979,8.90604 0.72056,-0.72055 2.28269,-1.31009 3.4714,-1.31009 1.53037,0 2.72125,-1.91572 4.07946,-6.5625 1.87718,-6.42229 4.00088,-8.87911 15.7592,-18.23111 2.92433,-2.32587 3.10089,-3.11225 2.75008,-12.24822 -0.35782,-9.31827 -1.6807,-12.5166 -4.46528,-10.79563 -0.70831,0.43775 -0.86256,-0.15683 -0.37218,-1.43472 0.46058,-1.20026 0.83742,-2.41753 0.83742,-2.70505 0,-0.28753 2.10937,-0.45752 4.6875,-0.37777 2.57812,0.0797 3.66183,0.4102 2.40821,0.73433 -1.55046,0.40089 -2.00923,1.25383 -1.43475,2.6675 1.73273,4.26382 2.12396,17.42729 0.65064,21.8915 -0.90795,2.75114 -3.71029,6.35984 -7.08812,9.12772 -5.52662,4.52865 -5.58253,4.65234 -5.21748,11.5415 l 0.369,6.96378 7.5,2.03824 c 4.125,1.12103 9.08349,2.67998 11.01888,3.46434 1.93537,0.78435 5.32308,1.42609 7.52824,1.42609 3.23494,0 4.43793,-0.78469 6.22808,-4.0625 1.22029,-2.23438 3.87153,-5.89063 5.89164,-8.125 3.3709,-3.72844 4.29296,-4.0625 11.2133,-4.0625 5.78325,0 10.08384,1.04264 18.45512,4.47429 17.70579,7.25814 25.11827,8.4496 29.25833,4.70289 1.48371,-1.34274 2.28141,-1.53513 2.28141,-0.55024 0,1.1165 0.90318,1.04132 3.4375,-0.28614 1.89062,-0.99029 5.57932,-2.85022 8.19711,-4.13317 2.61779,-1.28295 7.5408,-4.89892 10.94004,-8.03549 l 6.18043,-5.70286 2.50011,2.66125 2.50011,2.66124 -6.97509,2.19871 c -5.01147,1.57972 -6.78275,2.69992 -6.29189,3.97911 0.40004,1.04248 -0.0777,1.78041 -1.15254,1.78041 -1.00968,0 -1.83578,0.5625 -1.83578,1.25 0,0.6875 -1.1305,1.25 -2.51224,1.25 -1.38172,0 -3.47549,1.125 -4.6528,2.5 -1.17731,1.375 -3.15821,2.5 -4.402,2.5 -1.24377,0 -2.5852,0.84375 -2.98092,1.875 -0.50044,1.30409 -2.5352,1.875 -6.68272,1.875 -6.74932,0 -9.38987,2.09344 -8.20192,6.50251 0.69761,2.58921 0.59012,2.55171 -1.08988,-0.3803 -2.03883,-3.55826 -14.60403,-10.64987 -27.41125,-15.47049 -9.20646,-3.4653 -8.93336,-3.60525 -13.10262,6.71428 -3.1292,7.74525 -2.55731,9.18217 4.57384,11.49212 5.78715,1.8746 21.15166,10.13379 30.46673,16.37739 8.37843,5.61579 11.92694,9.96338 17.15214,21.01449 3.12908,6.61789 3.84185,9.72066 3.84265,16.7274 9.4e-4,8.20597 -0.19982,8.79179 -4.3564,12.71195 -2.39655,2.26025 -7.47352,5.63412 -11.28215,7.49751 -6.53557,3.19756 -7.64307,3.35014 -19.70512,2.71463 -9.04508,-0.47657 -16.61557,-1.8027 -25.9027,-4.53743 -16.74127,-4.9297 -19.37639,-4.95094 -21.84554,-0.17614 -1.0489,2.02837 -1.9057,4.41899 -1.90398,5.3125 0.006,3.28804 33.55208,15.55617 39.45239,14.42825 1.63286,-0.31215 2.65275,-0.0561 2.26644,0.56897 -1.15975,1.87651 6.74361,8.50236 10.14167,8.50236 1.725,0 3.13638,0.57456 3.13638,1.2768 0,0.70224 1.53916,1.96786 3.42036,2.8125 3.76308,1.68958 3.90435,1.79669 14.79691,11.21854 4.17575,3.61193 8.57348,7.12966 9.77272,7.81716 1.9419,1.11325 1.76086,1.49705 -1.65478,3.50818 -3.4832,2.05089 -3.83521,2.06899 -3.83521,0.19716 0,-3.40748 -4.3929,-8.18744 -6.02474,-6.5556 -1.02441,1.02441 -1.63319,0.7588 -2.29934,-1.00322 -1.31232,-3.47121 -7.69015,-9.56478 -9.09937,-8.69383 -0.66061,0.40828 -1.84,-0.45144 -2.62086,-1.91048 -0.94275,-1.76156 -2.22919,-2.44114 -3.82908,-2.02276 -1.54046,0.40284 -2.86599,-0.22321 -3.67562,-1.73603 -1.19519,-2.23322 -13.00505,-8.65842 -15.91465,-8.65842 -1.50853,0 -16.6674,-5.81574 -29.03634,-11.13986 -4.46875,-1.92355 -9.65564,-3.86688 -11.52642,-4.3185 -4.18657,-1.0107 -5.60217,-3.5425 -7.59569,-13.58498 -1.49008,-7.50632 -1.78725,-7.94755 -7.15378,-10.6213 -6.87661,-3.42614 -11.30572,-3.18946 -13.23787,0.70736 -0.79569,1.60477 -2.07435,3.54539 -2.84146,4.3125 -2.77242,2.77242 -2.40722,3.75204 15.47847,41.51978 2.79579,5.90365 3.72919,8.3419 4.30668,11.25 0.13652,0.6875 1.08627,2.17604 2.11056,3.30786 1.22299,1.35139 1.38874,2.21573 0.48277,2.51771 -0.78547,0.26183 0.53341,3.14367 3.06272,6.69214 3.81596,5.35363 4.13186,6.29345 2.24065,6.66611 -1.2109,0.23862 -2.736,0.94174 -3.38913,1.5625 -2.27459,2.1619 -3.02565,1.09987 -2.31577,-3.2746 z"
       style="fill:#000000"
       inkscape:connector-curvature="0" />
  </g>
</svg>
