<?xml version="1.0" encoding="UTF-8" standalone="no"?>
<!-- Created with Inkscape (http://www.inkscape.org/) -->

<svg
   xmlns:dc="http://purl.org/dc/elements/1.1/"
   xmlns:cc="http://creativecommons.org/ns#"
   xmlns:rdf="http://www.w3.org/1999/02/22-rdf-syntax-ns#"
   xmlns:svg="http://www.w3.org/2000/svg"
   xmlns="http://www.w3.org/2000/svg"
   xmlns:sodipodi="http://sodipodi.sourceforge.net/DTD/sodipodi-0.dtd"
   xmlns:inkscape="http://www.inkscape.org/namespaces/inkscape"
   width="72.217758mm"
   height="39.363953mm"
   viewBox="0 0 255.88969 139.47857"
   id="svg3351"
   version="1.1"
   inkscape:version="0.91 r13725"
   sodipodi:docname="ic_d_hem.svg">
  <defs
     id="defs3353" />
  <sodipodi:namedview
     id="base"
     pagecolor="#ffffff"
     bordercolor="#666666"
     borderopacity="1.0"
     inkscape:pageopacity="0.0"
     inkscape:pageshadow="2"
     inkscape:zoom="0.98994949"
     inkscape:cx="242.84664"
     inkscape:cy="10.193809"
     inkscape:document-units="px"
     inkscape:current-layer="layer1"
     showgrid="false"
     inkscape:window-width="1366"
     inkscape:window-height="716"
     inkscape:window-x="-8"
     inkscape:window-y="-8"
     inkscape:window-maximized="1"
     fit-margin-top="0"
     fit-margin-left="0"
     fit-margin-right="0"
     fit-margin-bottom="0" />
  <metadata
     id="metadata3356">
    <rdf:RDF>
      <cc:Work
         rdf:about="">
        <dc:format>image/svg+xml</dc:format>
        <dc:type
           rdf:resource="http://purl.org/dc/dcmitype/StillImage" />
        <dc:title></dc:title>
      </cc:Work>
    </rdf:RDF>
  </metadata>
  <g
     inkscape:label="Layer 1"
     inkscape:groupmode="layer"
     id="layer1"
     transform="translate(-222.22635,-404.5579)">
    <path
       style="fill:#000000"
       d="m 389.30096,542.52347 c -0.63577,-1.18794 -1.77761,-2.1599 -2.53743,-2.1599 -0.75982,0 -1.53148,-0.35375 -1.71482,-0.78612 -0.18333,-0.43237 -1.78585,-1.8059 -3.56115,-3.0523 -2.77474,-1.94808 -4.73987,-2.31219 -14,-2.59395 -13.64883,-0.4153 -24.06629,-2.11724 -27.27218,-4.45557 -2.78387,-2.03051 -3.70648,-5.08759 -3.88169,-12.86206 -0.0651,-2.8875 -0.57644,-5.25 -1.13638,-5.25 -0.55994,0 -3.8279,-1.6875 -7.26213,-3.75 -12.18628,-7.31873 -10.7333,-7.20719 -18.04932,-1.38565 -3.54974,2.82461 -7.03626,5.13565 -7.74782,5.13565 -0.71157,0 -2.3316,0.975 -3.60007,2.16667 -3.92659,3.68884 -10.8309,2.6854 -27.32259,-3.97093 -1.375,-0.55497 -4.84656,-1.9567 -7.71457,-3.11495 l -5.21457,-2.1059 -4.89603,3.01255 c -5.25698,3.23465 -14.17483,4.33943 -14.17483,1.75604 0,-1.13609 6.33079,-3.74348 9.08923,-3.74348 0.6164,0 3.12104,-1.35 5.56588,-3 2.44483,-1.65 5.29599,-3 6.33589,-3 1.03991,0 5.62985,1.75952 10.19987,3.91004 9.29669,4.37476 18.70298,8.08869 20.48817,8.08946 1.48305,6.3e-4 4.82089,-10.58822 4.47135,-14.18472 -0.18078,-1.85999 0.37067,-3.02327 1.79432,-3.78519 1.94871,-1.04292 2.75759,-3.99396 1.45247,-5.29908 -0.97578,-0.97578 -5.6595,1.19899 -7.14267,3.31652 -2.60558,3.71997 -14.25451,1.52701 -14.25451,-2.68348 0,-0.77353 -1.08559,-1.90106 -2.41243,-2.5056 -2.71135,-1.23538 -12.02935,1.1026 -16.58757,4.16198 -1.375,0.92287 -5.75286,3.3716 -9.72859,5.44162 -4.34855,2.26414 -9.43188,6.02561 -12.75863,9.44089 -8.28697,8.50749 -8.44004,8.81942 -7.67765,15.64506 1.21865,10.91043 -0.44767,15.6788 -4.34786,12.44193 -1.85534,-1.53979 -1.98408,-10.29398 -0.2604,-17.70791 1.07115,-4.60729 2.24515,-6.28735 9.25,-13.23725 6.9582,-6.90363 9.79306,-8.86173 21.35763,-14.75224 7.33398,-3.73562 13.33243,-7.22812 13.32988,-7.76112 -0.002,-0.533 -1.95306,-1.658 -4.3345,-2.5 -2.38143,-0.842 -5.11147,-2.43091 -6.06674,-3.53091 -1.67397,-1.92757 -1.61063,-2.11245 1.74889,-5.10502 1.91717,-1.70777 4.94876,-3.52945 6.73687,-4.0482 l 3.2511,-0.94316 -7,-3.82411 c -15.19287,-8.29987 -22.55357,-14.04823 -28.86922,-22.54551 -7.66814,-10.31696 -8.88035,-13.42074 -8.46373,-21.6709 0.29522,-5.84635 0.80568,-7.78027 2.50107,-9.47567 3.52916,-3.52916 4.66283,-1.62357 3.86306,6.49347 -0.38579,3.91551 -1.1419,7.64987 -1.68023,8.29859 -0.68001,0.81943 0.86512,4.03264 5.06169,10.52613 5.61601,8.68983 6.79758,9.87181 16.81393,16.81965 5.92538,4.11014 12.6638,8.04304 14.97425,8.73978 2.31045,0.69674 4.4579,1.68275 4.77211,2.19115 0.87583,1.41713 6.52707,-0.9099 6.52707,-2.68768 0,-2.34527 5.15918,-6.26593 8.24712,-6.2673 1.75342,-7.8e-4 4.19632,1.30805 6.75351,3.61831 4.431,4.00315 5.72864,3.73848 8.56531,-1.74704 1.85619,-3.58948 1.83879,-3.67591 -0.81594,-4.05294 -1.99374,-0.28315 -2.22399,-0.83207 -2.02166,-4.81955 0.32921,-6.48791 -1.91588,-14.41244 -4.20825,-14.8539 -1.66967,-0.32155 -6.29037,1.45976 -18.02009,6.94685 -5.80331,2.71476 -11.56917,4.90705 -12.90585,4.90705 -0.63888,0 -3.4588,-1.48 -6.26649,-3.2889 -2.80769,-1.80889 -7.40501,-3.91524 -10.21627,-4.68077 -4.18021,-1.1383 -5.11139,-1.79315 -5.11139,-3.59452 0,-2.77746 4.51045,-3.89211 7.44164,-1.83903 1.10185,0.77177 2.80324,1.40322 3.78087,1.40322 0.97762,0 1.78056,0.3375 1.78432,0.75 0.004,0.4125 1.57925,1.82084 3.5011,3.12965 3.25486,2.21662 3.81962,2.2956 8.24317,1.15275 2.61189,-0.67481 6.7739,-2.04602 9.2489,-3.04714 11.61063,-4.69642 17.16871,-6.17619 20.70571,-5.51265 5.18782,0.97324 13.49203,5.95926 18.45597,11.08134 2.36983,2.44533 4.81041,4.44605 5.42351,4.44605 0.6131,0 2.86975,-1.2401 5.01477,-2.75578 4.81502,-3.4023 8.70892,-5.43253 9.95548,-5.19065 2.5416,0.49315 3.21983,-0.56274 4.40873,-6.8637 1.41034,-7.47449 2.22212,-8.98523 6.22945,-11.59307 2.33612,-1.52029 4.8826,-1.7194 19.18717,-1.50028 11.20064,0.17157 16.93333,-0.11232 17.86395,-0.88467 2.86055,-2.37405 10.40235,-5.16879 14.00526,-5.18989 5.74573,-0.0337 4.72116,2.88596 -1.75,4.9868 -3.45286,1.12097 -7.57013,2.92253 -13.5,5.9071 -0.825,0.41523 -8.17172,0.34402 -16.32605,-0.15825 -8.15433,-0.50227 -15.52498,-0.64502 -16.37923,-0.31721 -1.59389,0.61163 -1.55661,1.58133 0.46354,12.0596 l 0.77118,4 9.12271,0.28604 9.12271,0.28603 2.96788,-3.78603 c 1.63233,-2.08232 3.44633,-4.70047 4.03111,-5.81811 0.58479,-1.11763 3.0212,-3.00991 5.41425,-4.20506 l 4.351,-2.17299 20.43859,3.45506 c 19.57574,3.3092 32.47756,4.34672 33.18898,2.66894 0.18333,-0.43237 1.79583,-1.81301 3.58333,-3.0681 1.7875,-1.25508 3.25,-2.92633 3.25,-3.71387 0,-0.78755 0.75207,-1.43191 1.67126,-1.43191 0.91919,0 2.38169,-0.64127 3.25,-1.42504 2.0013,-1.80647 7.24055,-2.43945 7.76929,-0.93865 0.43271,1.22823 -0.99235,2.46645 -13.19055,11.46111 -4.4,3.24445 -8.9,5.89174 -10,5.88286 -2.81594,-0.0227 -17.69835,-2.46485 -33,-5.4151 -17.11071,-3.29904 -18.30115,-3.28751 -19.07389,0.18482 -0.56844,2.55428 -1.01545,4.35297 -1.66415,6.69628 -0.15751,0.56896 7.31415,0.97931 18.73804,1.02913 16.72191,0.0729 19.9592,0.35986 27,2.39325 4.4,1.27072 9.35,2.65735 11,3.08139 12.40899,3.18905 33.40643,19.06573 38.55054,29.14901 3.86678,7.57952 1.68275,15.62248 -6.64948,24.48751 -4.38781,4.66837 -15.16807,11.69961 -21.90106,14.28457 -3.3,1.26695 -7.8,3.1001 -10,4.07368 -11.77596,5.21125 -26.38172,6.88383 -44.90482,5.14227 -7.07962,-0.66563 -13.23115,-0.84503 -13.67008,-0.39866 -0.43892,0.44636 -0.26652,2.49907 0.38312,4.56157 1.17804,3.74008 1.19573,3.74995 6.68647,3.72989 3.02792,-0.0111 8.43031,-0.47412 12.00531,-1.02904 3.575,-0.55491 8.975,-1.2458 12,-1.53531 3.025,-0.28951 9.18419,-1.20641 13.68709,-2.03755 l 8.18709,-1.51117 7.90898,5.54198 c 4.34994,3.04808 9.65961,6.11554 11.79925,6.81658 2.13965,0.70104 4.02646,1.98189 4.19292,2.84634 0.35772,1.85771 -5.0025,4.74678 -5.5819,3.00856 -0.19806,-0.59416 -1.14155,-1.08028 -2.09665,-1.08028 -0.95511,0 -3.22347,-1.32751 -5.0408,-2.95002 -1.81732,-1.62251 -4.93587,-4.06698 -6.9301,-5.43215 -4.0627,-2.78117 0.37774,-2.89713 -37.28704,0.97368 -16.6071,1.70671 -16.67564,1.70546 -21.1257,-0.38632 -2.81629,-1.32381 -5.78478,-3.8971 -8.0406,-6.97015 -3.35247,-4.56697 -3.97706,-4.94545 -9.9896,-6.0533 -10.38377,-1.91329 -12.55037,-1.65574 -13.19292,1.56826 -0.30144,1.5125 -1.18714,4.65891 -1.96821,6.99202 -1.28873,3.8495 -1.26291,4.3251 0.27903,5.13981 0.93454,0.49378 8.39335,1.1473 16.57515,1.45226 13.07616,0.4874 15.49593,0.85228 20,3.01579 2.8182,1.35371 7.26151,3.41503 9.87401,4.5807 3.47719,1.55149 4.75,2.67988 4.75,4.21104 0,1.60013 -0.47053,1.9686 -2.00236,1.56801 -1.21396,-0.31745 -2.34761,0.0933 -2.87924,1.04328 -0.75488,1.34891 -1.03769,1.26641 -2.03282,-0.59301 z m 20.04198,-28.84713 c 1.20814,-1.48525 1.15316,-1.60496 -0.45935,-1 -1.00748,0.37798 -2.49654,0.68723 -3.30901,0.68723 -0.81248,0 -1.19912,0.45 -0.8592,1 0.93831,1.51822 3.09398,1.19809 4.62756,-0.68723 z m -13.87756,-0.97505 c -0.6875,-0.27741 -1.8125,-0.27741 -2.5,0 -0.6875,0.27741 -0.125,0.50439 1.25,0.50439 1.375,0 1.9375,-0.22698 1.25,-0.50439 z m 22.75,-0.33772 c 0,-0.55 -0.64844,-1 -1.44098,-1 -0.79254,0 -1.7191,0.45 -2.05902,1 -0.33992,0.55 0.30852,1 1.44098,1 1.13246,0 2.05902,-0.45 2.05902,-1 z m -34.5,-1 c -4.51131,-1.14793 -8.70946,-1.14793 -8,0 0.33992,0.55 2.95398,0.94676 5.80902,0.88169 4.45849,-0.10162 4.76765,-0.22604 2.19098,-0.88169 z m 39.5,0.55902 c 0,-0.24254 -0.45,-0.7191 -1,-1.05902 -0.55,-0.33992 -1,-0.14148 -1,0.44098 0,0.58246 0.45,1.05902 1,1.05902 0.55,0 1,-0.19844 1,-0.44098 z m -60.3375,-1.75047 c -2.0136,-0.73345 -3.16053,-0.71052 -3.95,0.079 -0.81667,0.81667 -0.0621,1.09151 2.8375,1.03355 3.90614,-0.0781 3.91849,-0.0904 1.1125,-1.1125 z m 7.8375,0.19145 c -0.33992,-0.55 -1.23992,-1 -2,-1 -0.76008,0 -1.66008,0.45 -2,1 -0.35191,0.5694 0.50929,1 2,1 1.49071,0 2.35191,-0.4306 2,-1 z m 59.91821,0.39301 c 2.72867,-1.04709 1.72386,-2.38026 -1.59137,-2.11141 -1.74523,0.14154 -3.35773,0.81107 -3.58333,1.48787 -0.43504,1.30511 2.48244,1.65666 5.1747,0.62354 z m -49.41821,-3.39301 c 0,-0.55 -0.47656,-1 -1.05902,-1 -0.58246,0 -0.7809,0.45 -0.44098,1 0.33992,0.55 0.81648,1 1.05902,1 0.24254,0 0.44098,-0.45 0.44098,-1 z m 32.48226,-4.83179 c -0.26524,-0.73248 -0.48226,-2.19498 -0.48226,-3.25 0,-1.05501 -0.39681,-1.91821 -0.8818,-1.91821 -0.48499,0 -0.86029,1.6875 -0.83401,3.75 0.0263,2.0625 -0.29379,4.65 -0.71129,5.75 -0.60414,1.59179 -0.33549,1.48974 1.31627,-0.5 1.14144,-1.375 1.85833,-3.0993 1.59309,-3.83179 z m -38.48226,2.15033 c 0,-1.27119 -0.27832,-1.33244 -1.48899,-0.32768 -0.81894,0.67967 -1.23785,1.64211 -0.9309,2.13876 0.7889,1.27647 2.41989,0.0558 2.41989,-1.81108 z m 23,1.68146 c 0,-0.55 -0.45,-1 -1,-1 -0.55,0 -1,0.45 -1,1 0,0.55 0.45,1 1,1 0.55,0 1,-0.45 1,-1 z m 8,-0.94239 c 0,-0.45339 -0.9,-1.0597 -2,-1.34736 -2.23435,-0.5843 -2.59468,0.29507 -0.83992,2.04983 1.18651,1.18651 2.83992,0.77753 2.83992,-0.70247 z m 11.5907,-0.80025 c -0.6935,-0.69349 -2.5907,0.71555 -2.5907,1.9241 0,0.6631 0.57378,0.58723 1.52417,-0.20152 0.83829,-0.69572 1.31823,-1.47088 1.06653,-1.72258 z m 6.4093,-0.99791 c 0,-0.6927 -0.675,-1.25945 -1.5,-1.25945 -0.825,0 -1.5,-0.45 -1.5,-1 0,-0.55 -0.7875,-0.98569 -1.75,-0.9682 -1.64211,0.0298 -1.64506,0.11155 -0.0479,1.32521 1.12548,0.85525 1.50082,2.06308 1.10795,3.56538 -0.55072,2.10599 -0.43764,2.17425 1.54791,0.93425 1.17812,-0.73576 2.14204,-1.90449 2.14204,-2.59719 z m 16,2.74055 c 0,-0.55 -0.43588,-1 -0.96862,-1 -0.53273,0 -0.68183,-0.74733 -0.33132,-1.66074 0.51315,-1.33726 0.18938,-1.54361 -1.66222,-1.0594 -1.38611,0.36247 -2.87173,0.0291 -3.7401,-0.83927 -1.51701,-1.51701 -4.30784,-1.96697 -4.28335,-0.69059 0.0144,0.75022 8.82044,6.07522 10.23561,6.18946 0.4125,0.0333 0.75,-0.38946 0.75,-0.93946 z m 4.5,-1 c 0.33992,-0.55 -0.11008,-1 -1,-1 -0.88992,0 -1.33992,0.45 -1,1 0.33992,0.55 0.78992,1 1,1 0.21008,0 0.66008,-0.45 1,-1 z m -79.21025,-2 c -0.28766,-1.1 -0.92053,-2 -1.40638,-2 -1.0332,0 -1.18684,2.3632 -0.2167,3.33333 1.311,1.31101 2.13712,0.63237 1.62308,-1.33333 z m 26.71025,1.08333 c 0,-0.50416 -0.5625,-1.12677 -1.25,-1.38357 -0.79441,-0.29673 -0.52105,-0.74994 0.75,-1.24344 1.1,-0.42709 2.79072,-1.58912 3.75716,-2.58229 1.03607,-1.06474 2.43709,-1.54485 3.41404,-1.16996 1.11967,0.42965 1.42027,0.25294 0.92711,-0.54501 -0.80744,-1.30646 -6.59831,-1.22234 -6.59831,0.0958 0,2.03412 -2.54738,3.24574 -6.10974,2.90601 -3.99198,-0.38069 -8.06566,1.99461 -5.8108,3.38819 0.60214,0.37214 1.5956,0.17584 2.20767,-0.43624 1.58891,-1.58891 4.39847,-1.37457 5.0745,0.38713 0.61969,1.6149 3.63837,2.09888 3.63837,0.58333 z m 5.5,-1.08333 c 0.33992,-0.55 -0.11008,-1 -1,-1 -0.88992,0 -1.33992,0.45 -1,1 0.33992,0.55 0.78992,1 1,1 0.21008,0 0.66008,-0.45 1,-1 z m 12.5,0.55902 c 0,-0.24254 -0.45,-0.7191 -1,-1.05902 -0.55,-0.33992 -1,-0.14148 -1,0.44098 0,0.58246 0.45,1.05902 1,1.05902 0.55,0 1,-0.19844 1,-0.44098 z m -51,-1.55902 c 0,-0.55 -0.47656,-1 -1.05902,-1 -0.58246,0 -0.7809,0.45 -0.44098,1 0.33992,0.55 0.81648,1 1.05902,1 0.24254,0 0.44098,-0.45 0.44098,-1 z m 14.75,-0.39075 c 3.11396,-1.02972 2.89139,-2.98705 -0.25,-2.19861 -2.00093,0.50221 -2.5,0.25313 -2.5,-1.2477 0,-1.71564 0.42586,-1.79096 5.00577,-0.8854 4.00515,0.79192 5.86087,0.6632 9.28344,-0.64389 2.35271,-0.89851 5.05011,-1.63365 5.99422,-1.63365 0.94411,0 1.71657,-0.45 1.71657,-1 0,-0.55 -0.7875,-1.00689 -1.75,-1.01531 -1.46777,-0.0128 -1.51276,-0.16535 -0.27896,-0.94563 1.60117,-1.01261 1.50551,-1.19866 -1.47104,-2.86117 -1.84293,-1.02935 -1.77442,-1.11946 0.87244,-1.14748 2.42845,-0.0257 2.68154,-0.26044 1.63738,-1.51858 -1.00022,-1.2052 -0.92843,-1.60583 0.37756,-2.10699 1.61376,-0.61925 2.19336,-3.49076 0.95463,-4.7295 -1.13807,-1.13807 -3.34201,1.46491 -3.34201,3.94711 0,2.63828 -2.4414,3.27561 -3.36163,0.87755 -0.877,-2.28543 -2.63641,-1.78818 -2.65368,0.75 -0.008,1.2375 -0.43095,2.90711 -0.93895,3.71024 -0.7968,1.2597 -1.18316,1.22537 -2.81343,-0.25 -2.21583,-2.0053 -5.40085,-2.47878 -3.43231,-0.51024 0.66,0.66 1.2,1.97786 1.2,2.92857 0,0.95072 0.65337,2.38195 1.45194,3.18052 1.26926,1.26925 0.48288,1.41411 -6.25,1.15128 -6.45668,-0.25204 -7.419,-0.0936 -5.95194,0.97973 1.91085,1.39807 2.38997,4.5599 0.69098,4.5599 -0.58246,0 -0.82651,0.3762 -0.54234,0.836 0.58777,0.95102 3.05618,0.8629 6.35136,-0.22675 z m 6.91667,-8.27592 c -1.14116,-1.14115 -0.73336,-2.33333 0.79815,-2.33333 0.80565,0 1.97233,-0.94831 2.59264,-2.10736 0.83631,-1.56267 1.41899,-1.81619 2.25432,-0.98086 0.83533,0.83533 0.43496,1.76773 -1.549,3.60736 -2.9221,2.70953 -3.11524,2.79507 -4.09611,1.81419 z m 35.33333,7.66667 c 0,-0.55 -0.19844,-1 -0.44098,-1 -0.24254,0 -0.7191,0.45 -1.05902,1 -0.33992,0.55 -0.14148,1 0.44098,1 0.58246,0 1.05902,-0.45 1.05902,-1 z m -62.5,-1 c 0.33992,-0.55 -0.0835,-1 -0.94098,-1 -0.85746,0 -1.55902,0.45 -1.55902,1 0,0.55 0.42344,1 0.94098,1 0.51754,0 1.2191,-0.45 1.55902,-1 z m 52.26793,-2 c 0.69188,-1.10788 0.81487,-2 0.27573,-2 -0.53531,0 -1.45496,0.9 -2.04366,2 -0.5887,1.1 -0.71278,2 -0.27573,2 0.43705,0 1.3567,-0.9 2.04366,-2 z m 38.23207,0.5 c 0,-0.825 -0.43588,-1.5 -0.96862,-1.5 -0.53273,0 -0.70959,0.675 -0.39301,1.5 0.31659,0.825 0.75246,1.5 0.96862,1.5 0.21615,0 0.39301,-0.675 0.39301,-1.5 z m -78.5,-0.5 c -0.33992,-0.55 -1.04148,-1 -1.55902,-1 -0.51754,0 -0.94098,0.45 -0.94098,1 0,0.55 0.70156,1 1.55902,1 0.85746,0 1.2809,-0.45 0.94098,-1 z m 87,0 c 0.33992,-0.55 0.16803,-1 -0.38197,-1 -0.55,0 -1.27811,0.45 -1.61803,1 -0.33992,0.55 -0.16803,1 0.38197,1 0.55,0 1.27811,-0.45 1.61803,-1 z m -20.49318,-2.51793 c 0.76453,-2.01089 0.55818,-2.91707 -1.02475,-4.5 -1.84123,-1.84123 -1.98207,-1.85416 -1.98207,-0.18207 0,0.99 -0.5625,2.37029 -1.25,3.06732 -1.00188,1.01576 -0.86469,1.5517 0.69113,2.7 2.50324,1.84756 2.44375,1.86566 3.56569,-1.08525 z m 29.49318,-0.92082 c 0.55,-0.68023 1.5625,-1.0473 2.25,-0.81569 1.78459,0.6012 1.54471,-1.76242 -0.39656,-3.90751 -1.56086,-1.72473 -1.71536,-1.72882 -2.9682,-0.0787 -0.7269,0.95738 -1.33594,2.48606 -1.35344,3.39707 -0.0222,1.15872 -0.6327,1.49924 -2.0318,1.13337 -1.93876,-0.507 -2.70045,0.67647 -1.32233,2.05458 0.89747,0.89748 4.56251,-0.22493 5.82233,-1.78307 z m -84.5,-0.56125 c 0,-0.55 -0.70156,-1 -1.55902,-1 -0.85746,0 -1.2809,0.45 -0.94098,1 0.33992,0.55 1.04148,1 1.55902,1 0.51754,0 0.94098,-0.45 0.94098,-1 z m 43,-0.5 c -1.37552,-1.6574 -4,-2.03109 -4,-0.56955 0,0.51175 1.0125,1.12546 2.25,1.36382 1.2375,0.23835 2.4176,0.49465 2.62244,0.56955 0.20485,0.0749 -0.18775,-0.53882 -0.87244,-1.36382 z m 26,0.5 c 0,-0.55 -0.45,-1 -1,-1 -0.55,0 -1,0.45 -1,1 0,0.55 0.45,1 1,1 0.55,0 1,-0.45 1,-1 z m -88,-1 c 0,-0.55 -0.19844,-1 -0.44098,-1 -0.24254,0 -0.7191,0.45 -1.05902,1 -0.33992,0.55 -0.14148,1 0.44098,1 0.58246,0 1.05902,-0.45 1.05902,-1 z m 80.53817,-3 c 0.7878,0 1.16454,0.61116 0.86227,1.39885 -0.70874,1.84694 1.5951,3.22639 2.61969,1.56857 1.40839,-2.27881 -2.47142,-8.96742 -5.20166,-8.96742 -2.59413,0 -3.30001,2.06131 -0.91909,2.68394 2.6597,0.69553 2.71447,2.34278 0.10062,3.02631 -2.3139,0.6051 -2.49949,1.38519 -0.75,3.15244 1.00445,1.01465 1.31277,0.8575 1.56955,-0.8 0.17575,-1.13448 0.94913,-2.06269 1.71862,-2.06269 z m 15.01568,0.0871 c -0.36954,-0.59792 -1.32414,-1.08713 -2.12134,-1.08713 -1.19303,0 -1.23124,0.34942 -0.21602,1.97504 0.71848,1.15047 1.60413,1.60434 2.12134,1.08713 0.48835,-0.48835 0.58556,-1.37712 0.21602,-1.97504 z m 2.94615,1.91287 c 0.33992,-0.55 0.14148,-1 -0.44098,-1 -0.58246,0 -1.05902,0.45 -1.05902,1 0,0.55 0.19844,1 0.44098,1 0.24254,0 0.7191,-0.45 1.05902,-1 z m -59.67668,-2.33287 c 0.19138,-0.98676 -0.31876,-1.66713 -1.25,-1.66713 -0.92763,0 -1.57332,0.855 -1.57332,2.08333 0,2.43705 2.33677,2.09257 2.82332,-0.4162 z m -34.82332,-0.10811 c 0,-1.59263 -1.81436,-3.078 -2.69007,-2.20228 -0.82264,0.82264 0.46152,3.64326 1.65869,3.64326 0.56726,0 1.03138,-0.64844 1.03138,-1.44098 z m 43.82332,-0.89189 c 0.19138,-0.98676 -0.31876,-1.66713 -1.25,-1.66713 -0.92763,0 -1.57332,0.855 -1.57332,2.08333 0,2.43705 2.33677,2.09257 2.82332,-0.4162 z m 59.53114,-1.1987 c -3.06534,-2.32211 -3.86998,-1.64608 -1.2986,1.09103 1.35865,1.44621 2.56729,2.07108 2.77878,1.43663 0.20585,-0.61756 -0.46023,-1.75501 -1.48018,-2.52766 z m -42.62529,1.9274 c -0.3323,-0.33229 -1.1948,-0.36781 -1.91667,-0.0789 -0.79773,0.31923 -0.56078,0.55619 0.60417,0.60417 1.05416,0.0434 1.64479,-0.19293 1.3125,-0.52522 z m -4.31262,-2.03896 c 0.34679,-0.90372 0.39493,-1.87872 0.10699,-2.16667 -0.28795,-0.28794 -0.52354,-0.0127 -0.52354,0.61175 0,0.6244 -0.675,0.87626 -1.5,0.55968 -1.51244,-0.58038 -2.06887,0.73617 -0.83333,1.9717 1.10585,1.10586 2.08412,0.75848 2.74988,-0.97646 z m -17.41655,-0.29785 c 0,-1.17986 -1.95035,-2.442 -2.66667,-1.72569 -0.71631,0.71632 0.54583,2.66667 1.72569,2.66667 0.51754,0 0.94098,-0.42344 0.94098,-0.94098 z m -32.89707,-3.85804 c -0.6436,-0.21454 -1.84092,0.16661 -2.66072,0.84698 -2.25995,1.87559 -3.01699,0.24465 -0.94776,-2.04183 1.06411,-1.17582 1.32862,-2.00613 0.6391,-2.00613 -0.64704,0 -1.7037,1.15723 -2.34813,2.57161 -1.5907,3.49121 0.56093,4.90278 4.01923,2.63682 1.38615,-0.90824 1.95539,-1.78842 1.29828,-2.00745 z m 61.64693,1.21555 c -0.95295,-0.95296 -2.86349,0.5906 -2.1533,1.7397 0.42212,0.683 0.98146,0.66575 1.69964,-0.0524 0.58876,-0.58876 0.79291,-1.34803 0.45366,-1.68727 z m -56.3201,-0.0941 c 0.87336,-2.27594 -1.77839,-4.7885 -4.10222,-3.88689 -1.71361,0.66486 -1.69642,0.78248 0.27581,1.88675 1.15684,0.64772 1.90684,1.74018 1.66667,2.42768 -0.66543,1.90478 1.42342,1.49127 2.15974,-0.42754 z m 74.57024,0.67754 c 0,-0.55 -0.45,-1 -1,-1 -0.55,0 -1,0.45 -1,1 0,0.55 0.45,1 1,1 0.55,0 1,-0.45 1,-1 z m 4.61346,-1.83283 c 0.13201,-2.52127 -1.12309,-2.88744 -2.00647,-0.58538 -0.95049,2.47694 -0.71816,3.62189 0.64301,3.16872 0.6875,-0.22889 1.30106,-1.39139 1.36346,-2.58334 z m 20.15737,1.02033 c 0.21982,-0.65946 -0.5166,-1.1875 -1.65611,-1.1875 -1.43811,0 -1.87491,0.46137 -1.46013,1.54226 0.65496,1.70678 2.49904,1.49685 3.11624,-0.35476 z m -49.77083,-1.30995 c 0,-1.76625 -0.24988,-1.91506 -1.48899,-0.88669 -1.50499,1.24904 -1.18445,3.00914 0.54801,3.00914 0.51754,0 0.94098,-0.9551 0.94098,-2.12245 z m 41,-0.99413 c 0,-1.03588 -0.45,-1.88342 -1,-1.88342 -0.55,0 -1,0.45 -1,1 0,0.55 -0.9,1 -2,1 -1.90016,0 -2.6115,1.05517 -1.4765,2.19017 1.2601,1.2601 5.4765,-0.51588 5.4765,-2.30675 z m -62,1.6756 c 0,-0.24254 -0.45,-0.7191 -1,-1.05902 -0.55,-0.33992 -1,-0.14148 -1,0.44098 0,0.58246 0.45,1.05902 1,1.05902 0.55,0 1,-0.19844 1,-0.44098 z m 25,-0.55902 c 0,-0.55 -0.45,-1 -1,-1 -0.55,0 -1,0.45 -1,1 0,0.55 0.45,1 1,1 0.55,0 1,-0.45 1,-1 z m -28,-0.94098 c 0,-0.51754 -0.45,-1.2191 -1,-1.55902 -0.55,-0.33992 -1,0.0835 -1,0.94098 0,0.85746 0.45,1.55902 1,1.55902 0.55,0 1,-0.42344 1,-0.94098 z m 11.22222,-3.28124 c -1.19166,-1.19167 -2.50994,-1.82339 -2.9295,-1.40383 -0.41956,0.41956 0.34871,1.60128 1.70728,2.62605 1.35857,1.02477 2.67684,1.65649 2.9295,1.40383 0.25267,-0.25266 -0.51561,-1.43439 -1.70728,-2.62605 z m 31.85652,0.20691 c 1.36675,-0.009 1.94206,-0.33529 1.32096,-0.75 -0.60516,-0.40408 -1.65935,-1.7955 -2.34264,-3.09205 -0.97107,-1.84263 -1.49505,-2.08827 -2.3997,-1.125 -0.87872,0.93566 -0.85641,1.34271 0.0926,1.69069 1.87788,0.68856 1.50515,2.07591 -0.75,2.79167 -1.1,0.34913 -2,1.34919 -2,2.22238 0,1.42556 0.18664,1.41868 1.82874,-0.0674 1.00581,-0.91024 2.91831,-1.66187 4.25,-1.6703 z m -61.07874,1.01531 c 0,-0.55 -0.45,-1 -1,-1 -0.55,0 -1,0.45 -1,1 0,0.55 0.45,1 1,1 0.55,0 1,-0.45 1,-1 z m 50.44367,-0.67453 c 2.732,-1.3028 3.26733,-1.96877 2.41148,-3 -1.4936,-1.79968 -3.9359,-1.69947 -3.23284,0.13266 0.3732,0.97254 -0.30329,1.67468 -2.03139,2.10841 -1.42501,0.35765 -2.59092,1.05149 -2.59092,1.54187 0,1.31228 1.50338,1.09605 5.44367,-0.78294 z m 16.55633,0.0675 c 0,-0.21616 -0.675,-0.39301 -1.5,-0.39301 -0.825,0 -1.5,0.43588 -1.5,0.96862 0,0.53273 0.675,0.70959 1.5,0.39301 0.825,-0.31659 1.5,-0.75246 1.5,-0.96862 z m 25.63943,0.40004 c 1.1848,1.55933 1.29971,1.51237 1.32877,-0.54305 0.0238,-1.6805 -0.5377,-2.24612 -2.2182,-2.23469 -3.05352,0.0208 -5.17011,1.49593 -4.25979,2.96885 0.56161,0.90871 1.13096,0.82324 2.29935,-0.34515 1.40388,-1.40388 1.67738,-1.3891 2.84987,0.15404 z m -98.13943,-0.79305 c -0.33992,-0.55 -1.04148,-1 -1.55902,-1 -0.51754,0 -0.94098,0.45 -0.94098,1 0,0.55 0.70156,1 1.55902,1 0.85746,0 1.2809,-0.45 0.94098,-1 z m 38.18311,-1.1875 c -0.31922,-0.79773 -0.55618,-0.56078 -0.60416,0.60417 -0.0434,1.05416 0.19292,1.64479 0.52522,1.3125 0.33229,-0.3323 0.36781,-1.19479 0.0789,-1.91667 z m -17.18311,0.1875 c 0.33992,-0.55 0.14148,-1 -0.44098,-1 -0.58246,0 -1.05902,0.45 -1.05902,1 0,0.55 0.19844,1 0.44098,1 0.24254,0 0.7191,-0.45 1.05902,-1 z m 62,0 c 0.33992,-0.55 -0.11008,-1 -1,-1 -0.88992,0 -1.33992,0.45 -1,1 0.33992,0.55 0.78992,1 1,1 0.21008,0 0.66008,-0.45 1,-1 z m -87,-1 c 0.33992,-0.55 0.14148,-1 -0.44098,-1 -0.58246,0 -1.05902,0.45 -1.05902,1 0,0.55 0.19844,1 0.44098,1 0.24254,0 0.7191,-0.45 1.05902,-1 z m 9.5,-1 c 0,-1.11111 -0.66667,-2 -1.5,-2 -1.80819,0 -1.93321,1.16679 -0.3,2.8 1.61379,1.61379 1.8,1.53102 1.8,-0.8 z m -5,0 c 0,-0.55 -0.47656,-1 -1.05902,-1 -0.58246,0 -0.7809,0.45 -0.44098,1 0.33992,0.55 0.81648,1 1.05902,1 0.24254,0 0.44098,-0.45 0.44098,-1 z m 42.98469,-2.28518 c 0.008,-0.43185 -0.85511,-0.31935 -1.91895,0.25 -3.34609,1.79077 -4.27784,1.27735 -3.56574,-1.96482 0.80259,-3.65418 -0.37706,-3.82421 -3.4963,-0.50394 -2.80817,2.98916 -2.29894,3.68653 3.26487,4.47111 3.91917,0.55267 5.67491,-0.13916 5.71612,-2.25235 z m 44.51531,0.28518 c 0.33992,-0.55 0.14148,-1 -0.44098,-1 -0.58246,0 -1.05902,0.45 -1.05902,1 0,0.55 0.19844,1 0.44098,1 0.24254,0 0.7191,-0.45 1.05902,-1 z m -33.52046,-2 c 1.48561,-1.41616 1.61314,-7.06353 0.15696,-6.95067 -0.35007,0.0271 -1.60086,1.99411 -2.77952,4.37106 -1.83555,3.70166 -1.91403,4.30436 -0.54701,4.20067 0.87781,-0.0666 2.30412,-0.79606 3.16957,-1.62106 z m 6.52046,1 c 0.33992,-0.55 0.16803,-1 -0.38197,-1 -0.55,0 -1.27811,0.45 -1.61803,1 -0.33992,0.55 -0.16803,1 0.38197,1 0.55,0 1.27811,-0.45 1.61803,-1 z m 38.19512,-4.21195 c -1.56221,-3.82856 -4.34217,-5.31322 -3.10148,-1.65636 0.44194,1.30257 0.76239,3.37083 0.71211,4.59614 -0.0772,1.8804 0.2023,2.07064 1.79199,1.21986 1.68532,-0.90195 1.74814,-1.33944 0.59738,-4.15964 z m -18.34793,2.3808 c 0.91145,-1.00713 1.36707,-2.12126 1.01249,-2.47584 -0.35457,-0.35457 -0.1563,-1.23315 0.44062,-1.95238 1.55003,-1.86768 0.10937,-3.6087 -3.60001,-4.35057 -2.35279,-0.47056 -3.20834,-0.27593 -3.2307,0.73494 -0.0206,0.93174 -0.36043,0.80829 -1.05412,-0.38292 -0.56304,-0.96686 -0.7478,-2.20436 -0.41058,-2.75 0.33723,-0.54564 0.15242,-0.99208 -0.41069,-0.99208 -1.35621,0 -2.94203,3.17067 -2.37574,4.75 0.25109,0.70026 -0.33608,1.25 -1.33513,1.25 -2.44965,0 -0.5854,1.68517 2.7845,2.51702 2.08636,0.51502 2.91138,0.2035 3.78519,-1.42923 0.61454,-1.14829 1.55151,-2.08779 2.08216,-2.08779 1.45016,0 1.1601,3.27618 -0.49987,5.64613 -2.35827,3.3669 -0.009,4.63931 2.81188,1.52272 z m -48.34719,0.4536 c 0,-0.20766 -0.675,-0.93776 -1.5,-1.62245 -1.22851,-1.01957 -1.5,-0.95123 -1.5,0.37755 0,0.89235 0.675,1.62245 1.5,1.62245 0.825,0 1.5,-0.1699 1.5,-0.37755 z m 26.5,-0.62245 c 0.33992,-0.55 0.14148,-1 -0.44098,-1 -0.58246,0 -1.05902,0.45 -1.05902,1 0,0.55 0.19844,1 0.44098,1 0.24254,0 0.7191,-0.45 1.05902,-1 z m 9.80575,-1.06117 c 0.52917,-2.02357 -1.67847,-3.89945 -3.01554,-2.56237 -0.34295,0.34295 -0.14067,0.62354 0.4495,0.62354 0.59018,0 0.8377,0.9 0.55004,2 -0.28766,1.1 -0.073,2 0.47699,2 0.55,0 1.24255,-0.92753 1.53901,-2.06117 z m 17.69425,0.0612 c 0,-0.55 0.675,-1 1.5,-1 0.84106,0 1.5,-0.89238 1.5,-2.03138 0,-1.11727 -0.675,-2.29041 -1.5,-2.60699 -1.82379,-0.69986 -1.95522,-3.4791 -0.25,-5.28663 1,-1.06 1,-1.41667 0,-1.78333 -0.6875,-0.25209 -1.25,-1.32084 -1.25,-2.375 0,-1.05417 -0.675,-1.91667 -1.5,-1.91667 -1.98199,0 -1.9459,3.89166 0.0432,4.65494 1.35367,0.51945 1.32412,0.83422 -0.24063,2.56325 -1.72412,1.90513 -1.69235,2.04976 0.94935,4.32205 2.4469,2.10474 2.24292,4.50163 -0.25189,2.95976 -1.74886,-1.08086 -3.22667,0.52195 -1.92611,2.08903 1.35944,1.63807 2.92608,1.8581 2.92608,0.41097 z m -64.5,-1 c 1.03413,-1.67326 -0.49117,-3.25222 -1.96228,-2.03131 -0.70632,0.5862 -2.01626,0.78491 -2.91097,0.44157 -0.89471,-0.34333 -1.62675,-0.15739 -1.62675,0.4132 0,0.57059 1.0125,1.23245 2.25,1.47081 1.2375,0.23835 2.56094,0.49465 2.94098,0.56955 0.38004,0.0749 0.9691,-0.31382 1.30902,-0.86382 z m 27.5,0.16667 c 0,-1.30208 -1.18877,-2.16804 -2.15579,-1.57038 -1.03422,0.63918 -0.14245,2.40371 1.21481,2.40371 0.51754,0 0.94098,-0.375 0.94098,-0.83333 z m 44.45729,-0.0976 c 0.31644,-0.512 0.11799,-1.21356 -0.44098,-1.55902 -0.55897,-0.34546 -1.01631,0.0734 -1.01631,0.9309 0,1.75653 0.60006,2.01516 1.45729,0.62812 z M 375.7565,467.43 c -0.36254,-0.58659 -1.1377,-1.06653 -1.72258,-1.06653 -0.6631,0 -0.58723,0.57378 0.20152,1.52417 1.37154,1.6526 2.59733,1.2838 1.52106,-0.45764 z m 35.45888,0.93347 c 0,-0.55 -0.45,-1 -1,-1 -0.55,0 -1,0.45 -1,1 0,0.55 0.45,1 1,1 0.55,0 1,-0.45 1,-1 z m 27,0.55902 c 0,-1.05548 -1.91911,-1.49891 -2.48992,-0.57533 -0.34546,0.55897 0.0734,1.01631 0.9309,1.01631 0.85746,0 1.55902,-0.19844 1.55902,-0.44098 z m -56,-1.35902 c 0,-1.03903 -2.1667,-3.2 -3.20847,-3.2 -0.44466,0 -0.24642,0.9 0.44054,2 1.26178,2.02042 2.76793,2.6734 2.76793,1.2 z m -11,-1.7 c 0,-0.825 -0.45,-1.5 -1,-1.5 -0.55,0 -1,0.675 -1,1.5 0,0.825 0.45,1.5 1,1.5 0.55,0 1,-0.675 1,-1.5 z m 17.36383,0.006 c -0.31537,-0.8218 -0.98359,-1.2407 -1.48493,-0.93086 -1.04858,0.64806 -0.20682,2.42516 1.14873,2.42516 0.50028,0 0.65157,-0.67241 0.3362,-1.49426 z m 12.63617,1.05332 c 0,-0.24254 -0.45,-0.7191 -1,-1.05902 -0.55,-0.33992 -1,-0.14148 -1,0.44098 0,0.58246 0.45,1.05902 1,1.05902 0.55,0 1,-0.19844 1,-0.44098 z m 17,-0.55902 c 0,-0.55 -0.45,-1 -1,-1 -0.55,0 -1,0.45 -1,1 0,0.55 0.45,1 1,1 0.55,0 1,-0.45 1,-1 z m 17.81642,-2.32712 c 0.17403,-1.47008 -0.16347,-2.67288 -0.75,-2.67288 -0.58653,0 -1.06642,0.6382 -1.06642,1.41821 0,0.78002 -0.29671,2.19142 -0.65935,3.13645 -0.46268,1.20573 -0.23898,1.57997 0.75,1.25467 0.77514,-0.25496 1.55174,-1.66636 1.72577,-3.13645 z m -26.81642,1.32712 c 0,-0.55 -0.45,-1 -1,-1 -0.55,0 -1,0.45 -1,1 0,0.55 0.45,1 1,1 0.55,0 1,-0.45 1,-1 z m -16.36163,-1.5 c -0.31658,-0.825 -0.14487,-1.5 0.38158,-1.5 1.2163,0 4.98005,-3.19103 4.98005,-4.22224 0,-1.63025 -4.04007,-0.68646 -5.23207,1.22224 -1.53973,2.4655 -3.35102,2.56275 -4.65596,0.25 -0.72521,-1.2853 -1.28552,-1.45516 -2.11003,-0.63966 -0.82759,0.81854 -0.2982,1.80403 2.01445,3.75 3.48567,2.933 5.50082,3.42988 4.62198,1.13966 z m 21.36163,0.60699 c 0,-1.22681 -2.81728,-2.21165 -3.44079,-1.2028 -0.27766,0.44927 -0.21707,1.10462 0.13464,1.45633 0.95302,0.95302 3.30615,0.77257 3.30615,-0.25353 z m 56,-1.10699 c 0,-0.55 -0.19844,-1 -0.44098,-1 -0.24254,0 -0.7191,0.45 -1.05902,1 -0.33992,0.55 -0.14148,1 0.44098,1 0.58246,0 1.05902,-0.45 1.05902,-1 z m -47.442,-2.70945 c -0.3069,-0.79977 -0.558,-2.79388 -0.558,-4.43135 0,-1.73018 -0.41886,-2.71836 -1,-2.3592 -0.55,0.33992 -1,1.46912 -1,2.50933 0,1.04021 -0.69326,2.27926 -1.54058,2.75344 -2.43971,1.36533 -0.78987,4.02306 2.14868,3.46132 1.68512,-0.32213 2.32483,-0.95648 1.9499,-1.93354 z m 19.442,1.15043 c 0,-0.85746 -0.45,-1.2809 -1,-0.94098 -0.55,0.33992 -1,1.04148 -1,1.55902 0,0.51754 0.45,0.94098 1,0.94098 0.55,0 1,-0.70156 1,-1.55902 z m -70.08333,-1.0578 c 0.22916,-0.21075 0.16265,-0.6372 -0.14782,-0.94766 -0.94278,-0.94278 -7.79439,0.71414 -7.1649,1.73268 0.51694,0.83642 6.21469,0.22478 7.31272,-0.78502 z m 11.32687,-0.87683 c 0.26218,-1.37151 -0.0914,-2.96508 -0.78562,-3.54127 -0.97831,-0.81193 -1.23972,-0.2509 -1.16192,2.49365 0.11591,4.08925 1.24952,4.69905 1.94754,1.04762 z m 20.68755,0.99365 c -0.0721,-0.55 -0.53609,-0.8875 -1.03109,-0.75 -0.495,0.1375 -0.9,-0.2551 -0.9,-0.87245 0,-0.7755 -0.46364,-0.73765 -1.5,0.12245 -2.27105,1.8848 -1.80039,3.1704 1.03109,2.81642 1.3921,-0.17403 2.4721,-0.76642 2.4,-1.31642 z m 62.70501,-2.19723 c -0.40966,-0.40967 -1.16349,-0.0829 -1.67516,0.72619 -1.53967,2.43457 -1.07785,3.51652 0.72954,1.70913 0.92976,-0.92976 1.35529,-2.02565 0.94562,-2.43532 z m -13.6361,0.69723 c 0,-0.55 -0.19844,-1 -0.44098,-1 -0.24254,0 -0.7191,0.45 -1.05902,1 -0.33992,0.55 -0.14148,1 0.44098,1 0.58246,0 1.05902,-0.45 1.05902,-1 z m -90.5,-1 c 0.33992,-0.55 0.14148,-1 -0.44098,-1 -0.58246,0 -1.05902,0.45 -1.05902,1 0,0.55 0.19844,1 0.44098,1 0.24254,0 0.7191,-0.45 1.05902,-1 z m 45.28776,-2.13671 c -0.24965,-0.74895 -0.70294,-0.29565 -1.05655,1.05655 -0.43497,1.66335 -0.30483,2.05378 0.43724,1.31171 0.5811,-0.5811 0.85979,-1.64682 0.61931,-2.36826 z m 19.21224,1.63671 c 0,-0.825 -0.675,-1.5 -1.5,-1.5 -1.56157,0 -1.98397,1.1827 -0.83333,2.33333 1.15063,1.15064 2.33333,0.72824 2.33333,-0.83333 z m 9.5,0.5 c 0.33992,-0.55 0.14148,-1 -0.44098,-1 -0.58246,0 -1.05902,0.45 -1.05902,1 0,0.55 0.19844,1 0.44098,1 0.24254,0 0.7191,-0.45 1.05902,-1 z m 21.3075,-3.25 c -0.31945,-4.41516 -1.393,-5.20552 -2.37705,-1.75 -0.93083,3.26865 -2.17362,2.27398 -1.87418,-1.5 0.15274,-1.925 -0.13493,-3.5 -0.63928,-3.5 -0.50434,0 -0.82139,0.3375 -0.70454,0.75 0.11685,0.4125 -0.33154,1.7299 -0.99641,2.92756 -1.40452,2.52999 -0.55381,5.66603 1.33989,4.93935 0.71381,-0.27391 1.83584,0.15022 2.4934,0.94253 2.1069,2.53866 3.07385,1.55373 2.75817,-2.80944 z m -88.8075,0.59819 c 0,-1.10868 -0.43689,-1.18474 -2,-0.34819 -1.1,0.5887 -2,1.46241 -2,1.94156 0,0.47916 0.9,0.63585 2,0.34819 1.1,-0.28766 2,-1.16136 2,-1.94156 z m 64.44721,-0.4336 c -0.32197,-0.52097 -1.01165,-0.68378 -1.53262,-0.3618 -0.52097,0.32197 -0.68378,1.01165 -0.3618,1.53262 0.32197,0.52097 1.01165,0.68378 1.53262,0.3618 0.52097,-0.32197 0.68378,-1.01165 0.3618,-1.53262 z m -54.44721,0.16874 c 0,-0.50416 -0.5625,-1.14364 -1.25,-1.42105 -0.74674,-0.30132 -0.54544,-0.53617 0.5,-0.58333 0.9625,-0.0434 1.75,-0.55927 1.75,-1.14634 0,-0.64517 -0.89,-0.79381 -2.25,-0.37577 -2.9187,0.89716 -2.90403,0.8782 -2.16655,2.80003 0.66116,1.72296 3.41655,2.30884 3.41655,0.72646 z m 14,-0.0833 c 0,-0.55 -0.45,-1 -1,-1 -0.55,0 -1,0.45 -1,1 0,0.55 0.45,1 1,1 0.55,0 1,-0.45 1,-1 z m 47,-1.10699 c 0,-1.535 -0.44162,-1.93752 -1.62675,-1.48275 -0.89471,0.34334 -2.24471,0.11138 -3,-0.51545 -1.70791,-1.41744 -1.76562,-0.49596 -0.1327,2.11876 1.67493,2.68199 4.75945,2.60386 4.75945,-0.12056 z m -40,0.66601 c 0,-0.24254 -0.45,-0.7191 -1,-1.05902 -0.55,-0.33992 -1,-0.14148 -1,0.44098 0,0.58246 0.45,1.05902 1,1.05902 0.55,0 1,-0.19844 1,-0.44098 z m -38,-1.5 c 0,-0.51754 -0.45,-1.2191 -1,-1.55902 -0.55,-0.33992 -1,0.0835 -1,0.94098 0,0.85746 0.45,1.55902 1,1.55902 0.55,0 1,-0.42344 1,-0.94098 z m 34.85417,-1.48084 c -0.1948,-0.16326 -1.59167,-0.5937 -3.10417,-0.95656 -2.11695,-0.50785 -2.75,-0.29645 -2.75,0.91835 0,0.86793 0.44644,1.30215 0.99208,0.96492 0.54564,-0.33722 1.78314,-0.16676 2.75,0.37881 1.16603,0.65796 1.87717,0.65514 2.11209,-0.008 0.19479,-0.55018 0.19479,-1.13389 0,-1.29715 z m 52.80031,-1.57818 1.06766,-4 -3.01606,0 c -2.9002,0 -2.94998,0.073 -1.29592,1.90072 1.06977,1.18209 1.33392,2.13941 0.69866,2.53203 -1.06063,0.6555 -0.41451,3.56725 0.79158,3.56725 0.37753,0 1.16686,-1.8 1.75408,-4 z m -5.07948,-0.75834 c -1.01571,-1.01571 -2.85483,1.49655 -2.04949,2.79962 0.55137,0.89214 1.00489,0.76233 1.70454,-0.48787 0.5243,-0.93688 0.67953,-1.97716 0.34495,-2.31175 z m -57.71824,1.35522 c 1.14235,-0.71305 1.14235,-0.98274 0,-1.70657 -2.25197,-1.42692 -3.85676,-1.002 -3.85676,1.02121 0,1.94944 1.42572,2.20279 3.85676,0.68536 z m 16.14324,-0.59688 c 0,-0.55 -0.47656,-1 -1.05902,-1 -0.58246,0 -0.7809,0.45 -0.44098,1 0.33992,0.55 0.81648,1 1.05902,1 0.24254,0 0.44098,-0.45 0.44098,-1 z m 7,0.10699 c 0,-1.12404 -2.60112,-2.17254 -3.40223,-1.37142 -1.20377,1.20376 -0.54696,2.26443 1.40223,2.26443 1.1,0 2,-0.40186 2,-0.89301 z m 30.86534,-1.65802 c 0.31608,-1.6311 0.14754,-1.70455 -1.25,-0.54469 -1.91126,1.5862 -2.14923,3.44015 -0.36534,2.84619 0.6875,-0.22891 1.4144,-1.26459 1.61534,-2.3015 z m -88.32422,-0.38244 c -0.36254,-0.58659 -1.1377,-1.06653 -1.72258,-1.06653 -0.6631,0 -0.58723,0.57378 0.20152,1.52417 1.37154,1.6526 2.59733,1.2838 1.52106,-0.45764 z m 8.45888,0.93347 c 0,-0.55 -0.45,-1 -1,-1 -0.55,0 -1,0.45 -1,1 0,0.55 0.45,1 1,1 0.55,0 1,-0.45 1,-1 z m 11.6408,0 c 0.81248,0 1.19912,-0.45 0.8592,-1 -0.97218,-1.57302 -4.22156,-1.16798 -4.90435,0.61134 -0.45257,1.17937 -0.19124,1.44745 0.9748,1 0.87622,-0.33624 2.25788,-0.61134 3.07035,-0.61134 z m -4.87015,-2.75092 c 0.79402,-1.70927 0.89717,-2.85981 0.275,-3.0672 -1.70574,-0.56858 -2.37269,0.21942 -2.59678,3.06812 -0.27559,3.50329 0.69413,3.50291 2.32178,-9.2e-4 z m 27.94904,-0.18074 c -0.9737,-2.57963 -1.35352,-2.79502 -3.16313,-1.79374 -1.83768,1.0168 -1.87031,1.17698 -0.30656,1.50498 0.9625,0.20189 1.75,1.00907 1.75,1.79374 0,0.78468 0.63591,1.42668 1.41314,1.42668 1.1478,0 1.20536,-0.55045 0.30655,-2.93166 z m -15.61589,-0.36454 c -1.28349,-1.28349 -2.58505,-0.2915 -1.63484,1.24598 0.36808,0.59556 1.12735,0.79971 1.68727,0.45366 0.683,-0.42212 0.66575,-0.98146 -0.0524,-1.69964 z m 8.8962,0.85522 c 0,-0.24254 -0.45,-0.7191 -1,-1.05902 -0.55,-0.33992 -1,-0.14148 -1,0.44098 0,0.58246 0.45,1.05902 1,1.05902 0.55,0 1,-0.19844 1,-0.44098 z m 34,-1.55902 c 0,-0.55 -0.45,-1 -1,-1 -0.55,0 -1,0.45 -1,1 0,0.55 0.45,1 1,1 0.55,0 1,-0.45 1,-1 z m -9.65083,-1.83333 c 1.57388,-1.73913 1.50477,-1.83334 -1.34501,-1.83334 -1.65229,0 -3.00416,0.169 -3.00416,0.37554 0,0.30236 2.24066,3.11123 2.59501,3.25309 0.0523,0.0209 0.84163,-0.78696 1.75416,-1.79529 z m 32.65083,0.94032 c 0,-0.99719 -2.41332,-2.10699 -4.58179,-2.10699 -0.78001,0 -1.41821,0.4187 -1.41821,0.93045 0,0.8002 0.9636,1.15506 5.25,1.93337 0.4125,0.0749 0.75,-0.26568 0.75,-0.75683 z m -53.4093,-2.84963 c -0.6935,-0.69349 -2.5907,0.71555 -2.5907,1.9241 0,0.6631 0.57378,0.58723 1.52417,-0.20152 0.83829,-0.69572 1.31823,-1.47088 1.06653,-1.72258 z m 12.4093,1.64264 c 0,-0.495 -0.3375,-0.90614 -0.75,-0.91366 -0.4125,-0.007 -1.70044,-0.26876 -2.86209,-0.58056 -1.34899,-0.36209 -2.31737,-0.032 -2.68025,0.91365 -0.43365,1.1301 0.24385,1.48057 2.8621,1.48057 1.88663,0 3.43024,-0.405 3.43024,-0.9 z m 21.25,-1.70939 c -0.1375,-0.65484 0.2551,-1.19061 0.87244,-1.19061 0.77551,0 0.73766,-0.46364 -0.12244,-1.5 -1.65944,-1.9995 -3.37346,-1.91561 -2.58974,0.12675 0.34334,0.89471 0.0683,2.29661 -0.61117,3.11534 -1.03199,1.24346 -0.91133,1.41865 0.73274,1.06386 1.08249,-0.2336 1.85567,-0.96051 1.71817,-1.61534 z m -63.25,0.36841 c 0,-0.24254 -0.45,-0.7191 -1,-1.05902 -0.55,-0.33992 -1,-0.14148 -1,0.44098 0,0.58246 0.45,1.05902 1,1.05902 0.55,0 1,-0.19844 1,-0.44098 z m 59.30843,-5.4995 c -0.78111,-0.96633 -3.49553,2.82873 -2.81307,3.93298 0.49581,0.80223 1.12521,0.42985 1.95057,-1.15404 0.6702,-1.28615 1.05833,-2.53667 0.8625,-2.77894 z m 10.19157,2.94048 c -0.33992,-0.55 -1.29303,-1 -2.11803,-1 -0.825,0 -1.22189,0.45 -0.88197,1 0.33992,0.55 1.29303,1 2.11803,1 0.825,0 1.22189,-0.45 0.88197,-1 z m -59,-3 c 0.38272,-0.61926 -1.21295,-0.95495 -4.19098,-0.88168 -4.26935,0.10503 -4.47236,0.20398 -1.80902,0.88168 4.37568,1.11342 5.31187,1.11342 6,0 z m 44.5,0 c 0,-0.55 -1.0125,-0.96837 -2.25,-0.92971 -2.1469,0.0671 -2.15836,0.10966 -0.25,0.92971 1.1,0.47269 2.1125,0.89106 2.25,0.92971 0.1375,0.0387 0.25,-0.37971 0.25,-0.92971 z m -28.73625,-0.70393 c -1.22994,-0.23736 -3.47994,-0.24351 -5,-0.0136 -1.52006,0.22985 -0.51375,0.42406 2.23625,0.43157 2.75,0.007 3.99369,-0.18056 2.76375,-0.41792 z m 9.23625,-1.29607 c -0.33992,-0.55 -1.68992,-1 -3,-1 -1.31008,0 -2.66008,0.45 -3,1 -0.36852,0.59629 0.84262,1 3,1 2.15738,0 3.36852,-0.40371 3,-1 z m 11,0 c -0.33992,-0.55 -1.23992,-1 -2,-1 -0.76008,0 -1.66008,0.45 -2,1 -0.35191,0.5694 0.50929,1 2,1 1.49071,0 2.35191,-0.4306 2,-1 z"
       id="path3370"
       inkscape:connector-curvature="0" />
  </g>
</svg>
