<?xml version="1.0" encoding="UTF-8" standalone="no"?>
<!-- Created with Inkscape (http://www.inkscape.org/) -->

<svg
   xmlns:dc="http://purl.org/dc/elements/1.1/"
   xmlns:cc="http://creativecommons.org/ns#"
   xmlns:rdf="http://www.w3.org/1999/02/22-rdf-syntax-ns#"
   xmlns:svg="http://www.w3.org/2000/svg"
   xmlns="http://www.w3.org/2000/svg"
   xmlns:sodipodi="http://sodipodi.sourceforge.net/DTD/sodipodi-0.dtd"
   xmlns:inkscape="http://www.inkscape.org/namespaces/inkscape"
   width="80.180046mm"
   height="90.322418mm"
   viewBox="0 0 284.10253 320.04006"
   id="svg2"
   version="1.1"
   inkscape:version="0.91 r13725"
   sodipodi:docname="ic_d_dip.svg">
  <defs
     id="defs4" />
  <sodipodi:namedview
     id="base"
     pagecolor="#ffffff"
     bordercolor="#666666"
     borderopacity="1.0"
     inkscape:pageopacity="0.0"
     inkscape:pageshadow="2"
     inkscape:zoom="0.70710678"
     inkscape:cx="136.67779"
     inkscape:cy="240.89832"
     inkscape:document-units="px"
     inkscape:current-layer="layer1"
     showgrid="false"
     inkscape:window-width="1366"
     inkscape:window-height="716"
     inkscape:window-x="-8"
     inkscape:window-y="-8"
     inkscape:window-maximized="1"
     fit-margin-top="0"
     fit-margin-left="0"
     fit-margin-right="0"
     fit-margin-bottom="0" />
  <metadata
     id="metadata7">
    <rdf:RDF>
      <cc:Work
         rdf:about="">
        <dc:format>image/svg+xml</dc:format>
        <dc:type
           rdf:resource="http://purl.org/dc/dcmitype/StillImage" />
        <dc:title></dc:title>
      </cc:Work>
    </rdf:RDF>
  </metadata>
  <g
     inkscape:label="Layer 1"
     inkscape:groupmode="layer"
     id="layer1"
     transform="translate(-424.0613,-343.57749)">
    <path
       style="fill:#000000"
       d="m 577.20461,374.43525 c 0.54232,0.33516 0.49434,-1.50833 -0.16992,-3.91409 -0.66425,-2.40575 -1.39195,-8.31394 -1.61709,-13.12932 -0.22515,-4.81538 -1.11316,-9.60327 -1.97339,-10.63977 -1.32396,-1.59528 -1.07657,-1.88454 1.6118,-1.88454 1.7467,0 4.2062,-0.38657 5.46555,-0.85904 2.0349,-0.76343 2.09414,-0.61869 0.53228,1.30049 -4.2633,5.23866 -1.90832,25.03374 3.76819,31.67394 3.59092,4.20055 11.35467,17.49804 13.43315,23.00787 0.8596,2.27871 1.59814,4.8468 -0.30322,6.25 -2.46331,1.81792 -3.40623,0.30928 0.72323,6.75174 3.7507,5.85155 2.98473,13.21399 -1.42613,17.43987 -3.15835,3.02589 -4.36601,3.42246 -8.41937,2.76468 l -4.73214,-0.76792 3.73125,2.9752 c 2.0522,1.63637 4.24033,2.66059 4.86251,2.27605 0.62524,-0.38641 0.69367,0.009 0.15298,0.88374 -0.56989,0.92209 -0.25914,2.03838 0.74436,2.67399 1.2006,0.76045 1.25851,1.09691 0.19109,1.11025 -1.0988,0.0137 -1.20965,0.86582 -0.3923,3.01561 0.62659,1.64806 0.77044,3.36529 0.31966,3.81607 -0.45077,0.45077 0.28826,0.41899 1.6423,-0.0706 1.35405,-0.48963 2.05981,-0.4454 1.56838,0.0983 -0.49144,0.54368 -0.33102,2.03955 0.35648,3.32416 0.7826,1.46231 0.80043,2.33565 0.0476,2.33565 -0.66128,0 -1.45958,-0.98438 -1.77398,-2.1875 -0.53575,-2.05012 -0.58076,-2.04765 -0.71666,0.0392 -0.0797,1.2247 0.66324,2.53688 1.65108,2.91595 0.98783,0.37907 1.48741,1.49358 1.11014,2.47669 -0.37724,0.98311 -0.0336,2.57338 0.76353,3.53393 1.14309,1.37735 0.84967,2.16655 -1.38829,3.73408 -2.80235,1.96287 -2.80475,1.98762 -0.19328,1.98762 1.45442,0 2.97317,0.85677 3.37501,1.90392 0.60268,1.57058 0.28227,1.66399 -1.83003,0.53352 -2.48759,-1.33131 -2.50166,-1.2804 -0.49321,1.78487 1.14025,1.74025 1.72898,4.22163 1.31275,5.53305 -0.62244,1.96111 0.40776,2.82261 5.87905,4.91635 l 6.63374,2.53859 14.32977,-2.49256 c 12.75958,-2.21944 15.55858,-2.32495 25.54365,-0.96285 6.16764,0.84133 15.34942,2.87968 20.40397,4.52966 5.05455,1.64997 7.07917,4.91175 10.34863,2.28392 1.84518,-1.48307 2.28568,1.68179 -0.59893,5.08556 0,0 0.0808,4.20763 -1.37867,5.34978 -0.97815,0.76547 -1.87304,-3.22121 -1.87304,-3.22121 -1.6862,-2.89988 -15.20015,-9.31315 -17.19864,-8.7696 -0.50445,0.13721 -3.04209,-0.47709 -5.6392,-1.3651 -5.4363,-1.8588 -14.65638,-1.36454 -34.11579,1.82881 -10.02703,1.64548 -14.17455,1.84368 -17.46274,0.8345 -4.82256,-1.48009 -4.62056,-2.5528 -1.82445,9.68879 0.54961,2.40625 1.34605,5.91539 1.76985,7.7981 0.58662,2.60601 3.86076,5.4964 13.71685,12.10911 16.35089,10.97025 28.5626,24.09595 33.8883,36.4247 3.56104,8.24365 4.25389,9.00525 13.75,15.1145 5.5,3.53839 13.18446,8.02635 17.07659,9.97326 3.89211,1.94692 7.26711,3.97082 7.5,4.49758 1.01667,2.29967 11.86166,6.36574 15.42341,5.78264 3.40209,-0.55695 3.54705,-0.44855 1.5625,1.1684 -1.20313,0.98027 -2.1875,2.98593 -2.1875,4.45701 0,3.46743 -3.2486,3.47709 -4.15464,0.0125 -0.46506,-1.7784 -1.34351,-2.41396 -2.64578,-1.91424 -1.07228,0.41133 -1.94958,0.20313 -1.94958,-0.46279 0,-0.66592 -0.48864,-1.21077 -1.08585,-1.21077 -0.59721,0 -8.36035,-4.35937 -17.25141,-9.6875 -8.89107,-5.32812 -19.04865,-11.09375 -22.5724,-12.8125 -5.918,-2.88656 -6.52422,-3.60188 -7.94523,-9.375 -0.8461,-3.4375 -3.1166,-8.21875 -5.04554,-10.625 -14.38907,-17.9496 -16.33202,-20.00062 -18.95765,-20.01221 -1.52181,-0.006 -5.72004,-1.38709 -9.32942,-3.06749 -4.02967,-1.87609 -6.5625,-2.49829 -6.5625,-1.61213 0,0.79374 1.37375,11.03348 3.05279,22.75499 6.24307,43.58364 6.96404,50.41313 6.93426,65.68684 -0.0334,17.10684 -2.06345,29.27425 -6.28681,37.67998 -3.97453,7.91047 -8.5226,13.57002 -10.90503,13.57002 -1.14265,0 -4.9109,-3.01761 -8.37387,-6.70581 l 3e-5,-6e-5 c -3.6757,-3.91475 -9.11005,-12.109 -13.05656,-19.6875 -3.71814,-7.13993 -6.91557,-13.17912 -7.10542,-13.42043 -0.18983,-0.2413 -2.30742,1.05796 -4.70575,2.88725 -6.04824,4.61321 -11.77745,3.51419 -17.48222,-3.35361 l -4.15045,-4.9966 -8.00182,15.45085 c -7.72456,14.91549 -18.35473,28.57585 -22.23705,28.57585 -2.40843,0 -7.35329,-5.95383 -10.80596,-13.01081 -6.88596,-14.0744 -8.73019,-38.74128 -4.94476,-66.13683 1.06224,-7.68755 3.05312,-22.13361 4.42417,-32.10236 1.37105,-9.96875 2.73429,-18.82812 3.02942,-19.6875 0.8064,-2.34813 -1.21052,-1.87958 -3.68656,0.85641 -1.204,1.3304 -4.58409,3.5447 -7.51131,4.92065 -4.87094,2.28961 -5.71997,3.4359 -10.01303,13.51859 -2.57994,6.05928 -5.19328,11.55122 -5.80742,12.20435 -0.61414,0.65312 -1.11662,3.25469 -1.11662,5.78125 0,6.55657 -1.34651,12.40625 -2.85573,12.40625 -1.24974,0 -5.20831,3.53871 -26.49439,23.68432 -5.48632,5.19238 -10.4082,9.30006 -10.9375,9.12818 -0.52931,-0.17187 -0.96238,0.53125 -0.96238,1.5625 0,1.03125 -0.68977,1.73438 -1.53282,1.5625 -0.84306,-0.17187 -1.72593,0.95313 -1.96194,2.5 -0.51365,3.36651 -4.00524,3.80546 -4.00524,0.50351 0,-1.26994 -1.26563,-2.91936 -2.8125,-3.6654 l -2.8125,-1.35641 2.89468,-0.0846 c 3.45881,-0.10112 7.04645,-1.90072 10.32494,-5.17921 1.32296,-1.32294 2.96788,-2.40536 3.65538,-2.40536 0.6875,0 1.25,-0.51993 1.25,-1.1554 0,-0.63546 6.42626,-7.43487 14.28058,-15.10979 l 14.28058,-13.9544 1.47481,-8.9527 c 2.10744,-12.79297 11.02185,-28.03606 25.48267,-43.5738 11.08638,-11.912 11.31813,-12.28935 13.43452,-21.875 3.06781,-13.8948 3.21268,-13.34425 -3.27743,-12.45468 -4.52323,0.61998 -8.47105,-0.20654 -20.9375,-4.38351 -13.71264,-4.5945 -16.63906,-5.14691 -27.23823,-5.14161 -16.52254,0.009 -27.03426,3.85871 -27.32349,5.11777 -0.75947,3.30612 -3.79677,1.89592 -3.46064,-3.42982 -1.61021,-2.13852 -0.083,-6.18385 1.70568,-3.28455 1.54449,1.32827 7.39095,-0.79759 12.20345,-1.58015 16.62901,-2.70405 24.85053,-1.98732 41.30855,3.60115 15.52622,5.27208 17.17957,5.36828 30.12739,1.75303 0.78976,-0.22053 1.67437,-3.11233 1.96578,-6.42624 0.29142,-3.31391 0.99616,-7.07511 1.5661,-8.35822 0.94571,-2.12908 0.77395,-2.19311 -1.96578,-0.73285 -2.63443,1.40413 -2.81204,1.36959 -1.45038,-0.28209 0.85341,-1.03519 1.21964,-2.21417 0.81385,-2.61996 -0.40578,-0.40579 0.58347,-0.4305 2.19835,-0.0549 l 2.93614,0.68288 -2.88502,-2.13925 c -2.6487,-1.96402 -2.71253,-2.26537 -0.77923,-3.67903 1.67276,-1.22315 1.82524,-2.06398 0.74149,-4.08897 -1.49267,-2.78908 -0.8098,-4.28258 1.54497,-3.37897 0.91548,0.3513 1.50279,-0.60656 1.50279,-2.45096 0,-2.12862 -0.57532,-2.87071 -1.9375,-2.49914 -1.06563,0.29067 -0.67612,-0.13547 0.86557,-0.94698 2.0069,-1.05639 2.65174,-2.31002 2.27028,-4.41366 -0.29304,-1.61601 0.0613,-2.93819 0.78748,-2.93819 0.77086,0 0.60637,-0.87766 -0.39527,-2.10904 -1.50606,-1.85148 -1.44264,-2.00671 0.51926,-1.27107 1.42279,0.53349 2.49331,0.16433 2.94623,-1.01596 0.39128,-1.01966 1.63562,-1.892 2.76519,-1.93853 1.49325,-0.0615 1.28617,-0.45479 -0.75874,-1.44102 -1.54687,-0.74603 -2.8125,-2.05403 -2.8125,-2.90666 0,-0.85264 -0.84375,-1.87403 -1.875,-2.26975 -1.03125,-0.39573 -2.16879,-2.26741 -1.875,-4.10749 1.37002,-8.5809 0.37839,-5.18637 -1.51615,-7.58082 -2.30049,-2.90751 -1.13363,-5.71231 0.75477,-13.21375 1.24901,-4.9615 3.67867,-12.21757 5.39924,-16.12459 2.56701,-5.82909 3.01117,-8.40835 2.4754,-14.375 -0.91306,-10.1684 -2.1314,-15.10526 -4.1389,-16.77134 -2.68038,-2.22452 -2.07972,-2.97429 2.65315,-3.31173 4.03289,-0.28754 5.81109,1.1501 3.32387,2.68729 -0.57673,0.35644 -0.30721,4.18651 0.59895,8.51127 2.79363,13.33289 2.24872,20.34923 -2.18178,28.09294 -4.1502,7.2538 -6.81599,20.53409 -5.33305,21.83022 2.92539,2.55686 8.20324,-7.86547 9.55533,-8.74646 0.93964,-0.61225 3.49794,-2.77002 8.72167,-4.28428 2.11854,-0.61413 2.70485,-1.23702 2.22448,-4.58701 -0.1958,-1.36545 0.15028,-1.47258 1.4144,-0.43786 1.23627,1.01194 2.0948,0.91271 3.2854,-0.37972 0.88648,-0.9623 1.16773,-1.76674 0.625,-1.78765 -1.3137,-0.0506 3.68916,-3.01248 5.15906,-3.05435 2.87356,-0.0818 1.47835,-3.23907 -4.99878,-11.31169 -4.629,-5.76927 -5.25932,-6.85995 -1.86231,-3.22248 2.82424,3.02415 5.50115,5.1323 5.94867,4.68477 1.02318,-1.02317 5.39158,2.83392 5.39158,4.76049 0,0.7872 0.62425,2.05552 1.38721,2.81848 1.01629,1.01629 2.38787,0.24754 5.12949,-2.875 2.05826,-2.34421 4.44058,-4.26221 5.29405,-4.26221 0.85349,0 2.55789,-1.11174 3.78758,-2.47052 1.22968,-1.35879 2.56631,-2.08598 3.1086,-1.75082 -0.008,0.0281 -0.0754,0.0881 0.0614,0.0391 z m 20.63976,88.17365 c -0.38486,-0.38486 -1.39348,-7.9e-4 -2.24141,0.85348 -1.22532,1.23452 -1.08175,1.3781 0.69975,0.69974 1.23278,-0.46941 1.92653,-1.16836 1.54166,-1.55322 z m -77.53307,-1.49141 c -0.4249,-0.6875 -1.33504,-1.25 -2.02254,-1.25 -0.6875,0 -0.90236,0.5625 -0.47746,1.25 0.4249,0.6875 1.33504,1.25 2.02254,1.25 0.6875,0 0.90236,-0.5625 0.47746,-1.25 z m 56.79056,-86.65332 -4.41952,4.42882 c -4.69814,4.70804 -6.6251,9.7245 -3.8878,9.7245 0.97719,0 3.30397,1.41542 5.17062,3.14538 1.86665,1.72996 3.95517,2.79851 4.64113,2.37456 0.69538,-0.42977 1.07196,0.23043 0.85111,1.49213 -0.26501,1.51402 0.84499,2.81811 3.3539,3.9404 2.0625,0.9226 4.59375,2.17764 5.625,2.78898 2.60767,1.54587 4.26113,1.49743 5.93236,-0.17382 2.07137,-2.07136 -2.66117,-9.51694 -10.73248,-19.51396 l -6.51256,-8.06637"
       id="path3347"
       inkscape:connector-curvature="0"
       sodipodi:nodetypes="ssssssssssssscsccscssccssscsccsscsssscssssssscssssssssscsssscsssssscssssssccscsscssssssssssssscscssscssssscssssscsccsscsssssscssssssssssssssssssssssssssssssssccsscsssssccssssscssscssssssssscc" />
  </g>
</svg>
