<?xml version="1.0" encoding="UTF-8" standalone="no"?>
<!-- Created with Inkscape (http://www.inkscape.org/) -->

<svg
   xmlns:dc="http://purl.org/dc/elements/1.1/"
   xmlns:cc="http://creativecommons.org/ns#"
   xmlns:rdf="http://www.w3.org/1999/02/22-rdf-syntax-ns#"
   xmlns:svg="http://www.w3.org/2000/svg"
   xmlns="http://www.w3.org/2000/svg"
   xmlns:sodipodi="http://sodipodi.sourceforge.net/DTD/sodipodi-0.dtd"
   xmlns:inkscape="http://www.inkscape.org/namespaces/inkscape"
   width="89.830154mm"
   height="57.055054mm"
   viewBox="0 0 318.29582 202.16358"
   id="svg3393"
   version="1.1"
   inkscape:version="0.91 r13725"
   sodipodi:docname="ic_d_lep.svg">
  <defs
     id="defs3395" />
  <sodipodi:namedview
     id="base"
     pagecolor="#ffffff"
     bordercolor="#666666"
     borderopacity="1.0"
     inkscape:pageopacity="0.0"
     inkscape:pageshadow="2"
     inkscape:zoom="0.7"
     inkscape:cx="-13.36051"
     inkscape:cy="211.73006"
     inkscape:document-units="px"
     inkscape:current-layer="layer1"
     showgrid="false"
     inkscape:window-width="1366"
     inkscape:window-height="716"
     inkscape:window-x="-8"
     inkscape:window-y="-8"
     inkscape:window-maximized="1"
     fit-margin-top="0"
     fit-margin-left="0"
     fit-margin-right="0"
     fit-margin-bottom="0" />
  <metadata
     id="metadata3398">
    <rdf:RDF>
      <cc:Work
         rdf:about="">
        <dc:format>image/svg+xml</dc:format>
        <dc:type
           rdf:resource="http://purl.org/dc/dcmitype/StillImage" />
        <dc:title></dc:title>
      </cc:Work>
    </rdf:RDF>
  </metadata>
  <g
     inkscape:label="Layer 1"
     inkscape:groupmode="layer"
     id="layer1"
     transform="translate(-229.66055,-661.01144)">
    <path
       style="fill:#000000"
       d="m 336.83789,661.01562 c -1.86486,0.12297 0.80135,2.9317 6.6582,6.20704 10.55747,5.90408 26.14405,18.6016 35.28125,28.74023 3.6751,4.07787 7.52608,8.30391 8.40235,9.09375 -0.63592,1.84187 -1.62787,2.96089 -3.00977,3.32227 -1.76821,0.46239 -2.38476,1.74527 -2.38476,4.96289 0,7.71556 -2.05667,7.83031 -15.75782,0.88086 -16.32866,-8.28216 -23.21045,-9.89162 -49.24218,-11.51758 -20.41331,-1.27503 -22.94608,-1.18251 -37.91993,1.37304 -19.36327,3.30467 -38.15047,9.11957 -43.20312,13.3711 -7.71627,6.49281 -7.97174,15.72807 -0.88281,32.02734 5.69026,13.08339 14.1402,24.52938 23.53711,31.88477 15.51148,12.14155 24.76883,16.60284 34.49023,16.61914 3.62119,0.006 4.04411,0.33399 3.32813,2.58984 -0.45093,1.42077 -0.85971,6.90515 -0.90821,12.1875 -0.0729,7.93854 1.01783,10.41962 3.09961,15.85742 5.04038,13.16593 16.9106,23.92161 27.95117,28.48633 16.2386,6.71384 20.31519,4.97137 30.21875,2.73438 13.71001,-3.09676 17.88443,-6.13427 23.29883,-16.95703 2.47005,-4.93733 4.49024,-10.02791 4.49024,-11.31055 0,-1.28263 0.5625,-2.33203 1.25,-2.33203 0.6875,0 1.25,1.70762 1.25,3.79297 0,5.20279 5.26799,15.15421 10.25195,19.36914 5.7593,4.87064 16.33663,9.49343 23.94531,10.46484 11.39313,1.45459 26.5819,-2.29038 36.32422,-8.95703 16.36579,-11.19909 22.45278,-20.95226 22.17578,-35.52539 l -0.17187,-9.03516 4.58984,-0.86132 c 26.75176,-5.01867 62.13393,-37.61889 63.89649,-58.87305 0.29686,-3.5799 0.16694,-7.98973 -0.28711,-9.79883 -1.78474,-7.11095 -11.30358,-12.80817 -33.24805,-19.90234 -23.74346,-7.67575 -29.35301,-8.53438 -56.22656,-8.60938 -21.93796,-0.0612 -25.37129,0.22068 -34.34375,2.83594 -5.48305,1.59819 -12.34156,4.05852 -15.24024,5.4668 -4.44397,2.15905 -5.58404,2.30051 -7.27344,0.89843 -1.3605,-1.12907 -1.76431,-2.75253 -1.25781,-5.05859 0.73744,-3.35753 -1.19169,-6.60101 -4.60351,-7.73828 -2.9463,-0.9821 5.80271,-10.16671 18.34375,-19.25781 6.875,-4.98375 14.02012,-10.23932 15.87695,-11.67969 1.85683,-1.44037 7.36176,-4.37797 12.23242,-6.5293 5.73102,-2.53133 8.42656,-4.34101 7.64063,-5.12695 -0.78593,-0.78593 -2.94976,-0.3561 -6.13282,1.21875 -7.85325,3.88549 -33.75789,22.88443 -41.70898,30.58984 l -7.2832,7.05664 0,-4.24414 c 0,-2.3347 -0.5625,-4.24609 -1.25,-4.24609 -0.6875,0 -1.25,0.6326 -1.25,1.40429 -0.49107,1.14796 -0.98134,1.72441 -1.875,-0.15429 -1.27672,-1.62838 -1.87613,-1.01399 -1.89063,2.03515 -0.011,2.31373 -0.23066,4.18891 -0.64258,5.67188 -1.56919,-2.93093 -11.80045,-13.78931 -20.71679,-21.64844 -7.14975,-6.302 -13.28125,-11.8198 -13.625,-12.26172 -1.51447,-1.94697 -9.6862,-7.48834 -12.77344,-8.66211 -1.6782,-0.63804 -2.80221,-0.89645 -3.42383,-0.85547 z"
       id="path3412"
       inkscape:connector-curvature="0"
       sodipodi:nodetypes="csscssssssssssssssssssssscccsssssscsssssssccssccscsssc" />
  </g>
</svg>
