<?xml version="1.0" encoding="UTF-8" standalone="no"?>
<!-- Created with Inkscape (http://www.inkscape.org/) -->

<svg
   xmlns:dc="http://purl.org/dc/elements/1.1/"
   xmlns:cc="http://creativecommons.org/ns#"
   xmlns:rdf="http://www.w3.org/1999/02/22-rdf-syntax-ns#"
   xmlns:svg="http://www.w3.org/2000/svg"
   xmlns="http://www.w3.org/2000/svg"
   xmlns:sodipodi="http://sodipodi.sourceforge.net/DTD/sodipodi-0.dtd"
   xmlns:inkscape="http://www.inkscape.org/namespaces/inkscape"
   width="72.152496mm"
   height="47.26918mm"
   viewBox="0 0 255.65845 167.48922"
   id="svg3372"
   version="1.1"
   inkscape:version="0.91 r13725"
   sodipodi:docname="ic_d_hym.svg">
  <defs
     id="defs3374" />
  <sodipodi:namedview
     id="base"
     pagecolor="#ffffff"
     bordercolor="#666666"
     borderopacity="1.0"
     inkscape:pageopacity="0.0"
     inkscape:pageshadow="2"
     inkscape:zoom="1.4"
     inkscape:cx="168.62339"
     inkscape:cy="154.18124"
     inkscape:document-units="px"
     inkscape:current-layer="layer1"
     showgrid="false"
     inkscape:window-width="1366"
     inkscape:window-height="716"
     inkscape:window-x="-8"
     inkscape:window-y="-8"
     inkscape:window-maximized="1"
     fit-margin-top="0"
     fit-margin-left="0"
     fit-margin-right="0"
     fit-margin-bottom="0" />
  <metadata
     id="metadata3377">
    <rdf:RDF>
      <cc:Work
         rdf:about="">
        <dc:format>image/svg+xml</dc:format>
        <dc:type
           rdf:resource="http://purl.org/dc/dcmitype/StillImage" />
        <dc:title></dc:title>
      </cc:Work>
    </rdf:RDF>
  </metadata>
  <g
     inkscape:label="Layer 1"
     inkscape:groupmode="layer"
     id="layer1"
     transform="translate(-252.11541,-632.36449)">
    <path
       style="fill:#000000"
       d="m 361.7356,799.29532 c -0.32877,-0.32877 -0.32565,-1.30689 0.007,-2.1736 0.4654,-1.21281 -0.0324,-1.78437 -1.26283,-0.8592 -1.44039,1.083 -1.92785,0.51016 0.0731,-1.42776 1.83704,-1.77918 1.94581,-3.72428 1.98523,-15.79303 0.0362,-11.09075 0.39929,-14.48049 1.93734,-18.08729 1.35868,-3.18617 1.55866,-4.55001 0.70871,-4.83333 -0.65129,-0.21708 -1.18412,-2.07551 -1.18412,-4.12985 0,-3.79972 2.55638,-13.77976 3.99546,-15.59817 0.43526,-0.55 2.15722,-3.53825 3.82656,-6.64056 2.78619,-5.17786 2.9643,-6.0802 2.17121,-11 -1.7523,-10.87018 -2.38192,-12.38137 -5.0515,-12.12436 -1.34295,0.12929 -6.49173,0.25184 -11.44173,0.27233 l -9,0.0373 -5.3107,4.96141 c -5.28264,4.93518 -5.3434,4.96016 -11.5,4.72766 -5.6976,-0.21517 -6.16225,-0.0748 -5.84886,1.76626 1.21618,7.14481 1.18492,9.50354 -0.1689,12.7437 -0.82747,1.9804 -2.77958,4.41637 -4.33801,5.41326 -1.55844,0.99689 -4.16406,3.11531 -5.79026,4.70759 -1.67409,1.63917 -3.1201,2.40495 -3.33333,1.76526 -0.49972,-1.49914 -6.93379,-1.45826 -7.43562,0.0472 -0.49551,1.48655 -2.77432,0.15635 -2.77432,-1.6194 0,-1.78488 3.67798,-2.63265 8.25,-1.9016 3.23101,0.51662 3.75,0.33592 3.75,-1.3057 0,-1.04791 0.76658,-2.99975 1.70351,-4.3374 0.97385,-1.39037 1.829,-4.80522 1.99647,-7.97251 0.65619,-12.40961 3.77738,-17.03539 11.50036,-17.04414 4.74532,-0.005 9.79966,-3.34835 9.79966,-6.48156 0,-1.68315 -0.55264,-2.5147 -1.67126,-2.5147 -0.91919,0 -2.55994,-0.7875 -3.6461,-1.75 -1.38725,-1.22931 -2.10018,-1.39234 -2.39609,-0.54794 -1.21488,3.46669 -5.30123,8.02845 -8.77684,9.79794 -4.84825,2.46833 -7.34558,5.15561 -8.15085,8.77081 -0.8336,3.74241 -1.67678,4.05356 -4.64905,1.71556 -1.3889,-1.0925 -2.90429,-1.98638 -3.36754,-1.9864 -1.29434,-4e-5 -6.4533,-6.63066 -10.34227,-13.29252 -3.2078,-5.49502 -3.90818,-6.09881 -8.38925,-7.23228 l -4.88925,-1.23671 -4.75034,5.13077 c -5.7481,6.20843 -15.85354,18.30411 -18.11185,21.67893 -1.94262,2.90306 -3.35885,2.0783 -2.47541,-1.4416 0.67493,-2.68915 16.80595,-21.53687 21.89669,-25.58442 2.17034,-1.72559 4.27061,-2.4476 6.91795,-2.37819 3.24902,0.0852 3.7964,-0.20867 3.76663,-2.02213 -0.0195,-1.18691 -2.61163,-4.83256 -5.88297,-8.27392 l -5.84814,-6.15211 -9.86703,0.90599 c -5.42687,0.49829 -11.38686,1.18873 -13.24443,1.5343 -2.60589,0.48479 -3.27288,0.31477 -2.91986,-0.74429 0.56566,-1.697 11.80656,-3.74609 21.01246,-3.83034 6.12892,-0.0561 7.02406,0.20972 10.2527,3.04451 4.85939,4.2666 6.20297,3.4038 6.69341,-4.29829 0.60901,-9.56429 3.19977,-13.78124 10.19312,-16.59115 7.61902,-3.06131 12.21589,-1.97531 16.0291,3.78684 1.45466,2.19815 2.97596,3.98896 3.38066,3.97957 0.4047,-0.009 1.81678,-2.51354 3.13797,-5.56478 3.29957,-7.62026 9.38331,-13.61564 16.67949,-16.43724 5.60206,-2.16644 7.12078,-2.27875 28.41835,-2.10145 19.05464,0.15862 25.56254,-0.20578 42.5,-2.37977 41.11167,-5.27683 72.48723,-5.37416 85.18508,-0.26426 7.56473,3.04421 8.76417,5.12396 4.81492,8.34875 -3.58491,2.9273 -13.58815,6.20574 -21.37438,7.00521 -3.09409,0.31769 -6.28367,0.78759 -7.08796,1.04421 -0.80428,0.25663 3.07354,2.64007 8.6174,5.29654 12.34795,5.91682 25.06424,14.35968 26.55461,17.63069 0.91146,2.00044 0.76958,2.80516 -0.80101,4.54319 -2.47776,2.74192 -9.89758,6.43948 -14.65866,7.30494 -2.0625,0.37492 -3.75,0.9163 -3.75,1.20307 0,0.28678 1.07137,1.95389 2.38082,3.70469 1.30945,1.7508 3.55945,5.4297 5,8.17532 2.38805,4.55153 2.61918,6.01546 2.61918,16.58949 0,11.45731 -0.0308,11.61146 -2.54705,12.75796 -2.91535,1.32832 -17.60602,1.46115 -28.01258,0.25329 -8.43299,-0.97879 -24.20298,-7.00827 -36.80127,-14.07054 -12.78219,-7.16536 -13.80915,-7.28311 -8.54534,-0.97981 2.42343,2.90201 7.11257,8.24215 10.42031,11.86698 3.30773,3.62482 7.56528,9.06559 9.46121,12.09059 1.89593,3.025 5.75301,8.08232 8.5713,11.23849 6.32845,7.08717 12.08868,18.29114 10.43089,20.28866 -0.87386,1.05293 -0.4028,1.74851 1.59928,3.66485 5.65986,5.41746 14.2298,12.04529 12.39646,12.09034 -3.35348,-1.87079 -1.97321,0.28032 -1.97321,1.24904 0,0.80774 -0.675,1.46862 -1.5,1.46862 -0.825,0 -1.5,-0.54 -1.5,-1.2 0,-0.93333 -0.26667,-0.93333 -1.2,0 -1.89369,1.89369 -2.94101,1.39866 -1.59633,-0.75452 0.67134,-1.07499 1.01265,-2.13683 0.75848,-2.35966 -2.70418,-2.37059 -11.2645,-7.68582 -12.37823,-7.68582 -2.01739,0 -15.32731,-13.92974 -19.86199,-20.78693 -2.07794,-3.14219 -5.01249,-7.06307 -6.52122,-8.71307 -1.50873,-1.65 -6.45956,-10.29427 -11.00186,-19.20948 -4.54229,-8.91522 -8.69959,-16.48196 -9.23844,-16.81499 -0.53885,-0.33302 -2.16106,0.32374 -3.60492,1.45948 -3.57606,2.81293 -6.26879,2.59742 -11.45501,-0.91681 -2.42026,-1.63999 -5.02094,-2.98999 -5.77928,-3 -0.75834,-0.01 -3.13906,-1.60849 -5.2905,-3.55219 -3.64384,-3.29199 -5.8307,-3.77955 -5.8307,-1.29996 0,0.57641 1.41526,4.01343 3.14502,7.63782 1.72977,3.62439 3.35407,8.44447 3.60958,10.71128 0.39594,3.51281 0.0311,4.59608 -2.47072,7.33518 -2.34369,2.56601 -3.17649,4.76535 -4.13219,10.9127 -0.65832,4.23445 -2.11536,9.59619 -3.23786,11.91498 -1.57717,3.25799 -1.79926,4.66755 -0.97738,6.20325 2.69978,5.04458 -0.11824,19.43445 -4.2625,21.76593 -1.63387,0.91918 -2.63479,11.98913 -1.28194,14.17808 0.43207,0.6991 1.09622,2.79531 -0.76561,1.17473 -2.73717,-2.3825 -2.2237,0.40893 -2.48354,1.86607 -0.36943,2.07163 -1.29081,2.65265 -2.40729,1.53616 z"
       id="path3391"
       inkscape:connector-curvature="0"
       sodipodi:nodetypes="ccsssscsssssscssssssssssssscssssssscsscssssscscsssssssscssssssscssssssssssssssssscssssscsssscsscsssssssssssscc" />
  </g>
</svg>
