<?xml version="1.0" encoding="UTF-8" standalone="no"?>
<svg
   xmlns:dc="http://purl.org/dc/elements/1.1/"
   xmlns:cc="http://creativecommons.org/ns#"
   xmlns:rdf="http://www.w3.org/1999/02/22-rdf-syntax-ns#"
   xmlns:svg="http://www.w3.org/2000/svg"
   xmlns="http://www.w3.org/2000/svg"
   xmlns:sodipodi="http://sodipodi.sourceforge.net/DTD/sodipodi-0.dtd"
   xmlns:inkscape="http://www.inkscape.org/namespaces/inkscape"
   version="1.1"
   id="svg2"
   viewBox="0 0 622.17701 333.87897"
   height="94.228065mm"
   width="175.59218mm"
   inkscape:version="0.91 r13725"
   sodipodi:docname="ic_d_bla.svg">
  <sodipodi:namedview
     pagecolor="#ffffff"
     bordercolor="#666666"
     borderopacity="1"
     objecttolerance="10"
     gridtolerance="10"
     guidetolerance="10"
     inkscape:pageopacity="0"
     inkscape:pageshadow="2"
     inkscape:window-width="1366"
     inkscape:window-height="716"
     id="namedview7"
     showgrid="false"
     fit-margin-top="0"
     fit-margin-left="0"
     fit-margin-right="0"
     fit-margin-bottom="0"
     inkscape:zoom="0.22425739"
     inkscape:cx="308.84351"
     inkscape:cy="79.823755"
     inkscape:window-x="-8"
     inkscape:window-y="-8"
     inkscape:window-maximized="1"
     inkscape:current-layer="svg2" />
  <defs
     id="defs4" />
  <metadata
     id="metadata7">
    <rdf:RDF>
      <cc:Work
         rdf:about="">
        <dc:format>image/svg+xml</dc:format>
        <dc:type
           rdf:resource="http://purl.org/dc/dcmitype/StillImage" />
        <dc:title></dc:title>
      </cc:Work>
    </rdf:RDF>
  </metadata>
  <g
     id="layer1"
     transform="translate(-63.20373,-272.12589)">
    <path
       id="path3347"
       d="m 104.28382,603.92043 c -1.34374,-1.6566 -1.35715,-1.8993 -0.0619,-1.1199 1.15404,0.6944 9.65671,-7.1624 28.14197,-26.00442 14.56856,-14.8497 25.91816,-27.19043 25.22133,-27.42383 -0.69683,-0.2334 1.82678,-1.43679 5.60803,-2.67419 8.00643,-2.62006 8.56568,-2.9816 6.54454,-4.23072 -0.85319,-0.5273 0.25962,-0.93204 2.56262,-0.93204 2.23887,0 6.59004,-1.1948 9.66926,-2.65511 3.07922,-1.4603 7.74845,-3.52977 10.37605,-4.5988 2.82422,-1.14903 4.43386,-2.49964 3.93706,-3.3035 -0.46741,-0.75628 -0.0913,-1.2227 0.84754,-1.0509 2.42578,0.44392 12.31293,-2.83994 12.31293,-4.08955 0,-0.57868 0.87093,-1.05214 1.93539,-1.05214 1.06445,0 4.11811,-1.05459 6.7859,-2.34351 2.66779,-1.28894 8.96874,-3.33487 14.00211,-4.5465 11.99488,-2.8874 13.92777,-3.94094 13.09224,-7.136 -0.46065,-1.76153 0.50176,-3.7337 3.0804,-6.31234 3.89851,-3.8985 9.42963,-14.25265 8.24598,-15.43631 -1.14519,-1.14519 -15.00685,-0.62355 -19.63377,0.73886 -2.40171,0.70719 -8.98468,1.2858 -14.62885,1.2858 l -10.26211,0 -2.24614,4.6875 -2.24615,4.6875 -0.3917,-4.0625 c -0.36766,-3.81321 -0.68745,-4.0625 -5.21153,-4.0625 -5.03533,0 -15.82912,-2.32599 -27.52177,-5.93074 -9.43119,-2.90757 -19.76832,-9.55848 -21.39008,-13.7624 -1.96796,-5.10135 0.96682,-16.23976 5.48095,-20.80192 l 3.58195,-3.62006 -5.58802,-5.13035 c -4.5577,-4.18444 -5.74876,-6.20228 -6.45982,-10.94399 -1.19081,-7.9409 -0.36897,-9.68605 7.19713,-15.28279 6.66569,-4.93069 25.14636,-14.52775 27.9755,-14.52775 2.77662,0 2.95582,-2.11354 0.42645,-5.02991 -4.11653,-4.7464 -2.7721,-5.74938 1.78547,-1.33202 l 4.25952,4.1285 7.92798,-1.96549 c 4.36039,-1.08103 10.45922,-2.29494 13.55297,-2.69758 13.32894,-1.73473 21.17704,-3.46028 20.52635,-4.51311 -0.3845,-0.62214 -1.22272,-0.80755 -1.86272,-0.412 -0.63999,0.39553 -1.16363,-0.15779 -1.16363,-1.22962 0,-1.07182 -0.84375,-1.94877 -1.875,-1.94877 -1.03125,0 -1.93988,-0.70313 -2.01918,-1.5625 -0.0792,-0.85938 -0.21993,-2.40625 -0.3125,-3.4375 -0.13507,-1.50453 -2.39115,-1.90098 -11.41832,-2.00646 -6.1875,-0.0724 -16.03125,-0.60178 -21.875,-1.17658 -5.84375,-0.5748 -12.40547,-1.07813 -14.58161,-1.11852 -2.17614,-0.0404 -4.37926,-0.49532 -4.89583,-1.01094 -1.35666,-1.35418 -8.54681,-1.15155 -12.50228,0.35231 -2.9793,1.13274 -3.19893,1.05661 -1.80332,-0.625 1.38286,-1.66624 0.93078,-1.91481 -3.48253,-1.91481 -2.78942,0 -6.59829,0.58041 -8.46415,1.28981 -3.10514,1.18058 -3.24437,1.11055 -1.64388,-0.8268 1.62721,-1.96967 1.011,-2.06109 -8.8764,-1.31671 -9.20466,0.69297 -10.13979,0.58884 -6.99533,-0.779 l 3.62967,-1.57891 -8.00467,-3.39779 c -4.40257,-1.86878 -8.60252,-3.39616 -9.33322,-3.39419 -0.73071,0.002 -4.24358,-1.40266 -7.80638,-3.12141 -3.56279,-1.71875 -7.28414,-3.125 -8.26965,-3.125 -0.98552,0 -2.55069,-0.75885 -3.47817,-1.68632 -0.927479,-0.92748 -3.780158,-2.37736 -6.339287,-3.22194 -2.559128,-0.84459 -4.652961,-2.25868 -4.652961,-3.14242 0,-2.39628 -18.082192,-11.22022 -20.849427,-10.17431 -2.171975,0.82093 -2.17549,0.75896 -0.07722,-1.36117 2.104177,-2.1261 3.068084,-1.78625 22.500001,7.93289 20.634904,10.32082 44.244604,20.00198 45.563344,18.68325 0.39945,-0.39945 -0.33978,-1.16023 -1.64272,-1.69063 -1.30293,-0.53039 -2.51763,-1.69156 -2.69932,-2.58037 -0.2505,-1.22547 0.25784,-1.30125 2.10336,-0.31357 1.33853,0.71637 3.94202,1.87594 5.78552,2.57684 2.92097,1.11056 3.24623,0.99919 2.53035,-0.86636 -0.77056,-2.00804 -0.67748,-2.0104 1.50184,-0.0381 1.27783,1.15641 4.25516,2.45897 6.6163,2.89454 4.09222,0.75494 4.17607,0.69904 1.79297,-1.1954 -3.4809,-2.76714 -0.87199,-2.55407 4.59325,0.37511 5.5918,2.99703 18.15536,4.98282 16.70795,2.64085 -0.61292,-0.99173 0.40952,-0.83559 2.87415,0.43892 5.09227,2.63332 7.28238,2.61278 5.07447,-0.0476 -1.18404,-1.42669 -0.39751,-1.24322 2.65945,0.62034 4.44638,2.71056 10.73182,3.65634 9.34073,1.4055 -1.22215,-1.97748 1.40045,-1.45295 3.125,0.625 1.54562,1.86235 6.25,2.64209 6.25,1.03592 0,-0.46148 -0.97558,-2.00836 -2.16796,-3.4375 -1.32775,-1.59138 -0.7222,-1.32861 1.5625,0.67807 4.5632,4.00787 11.3235,6.02267 10.1762,3.03285 -0.6588,-1.71682 -0.38656,-1.70749 2.3419,0.0803 1.69805,1.1126 3.08736,1.47326 3.08736,0.80147 0,-1.43114 8.10619,-0.7486 11.27953,0.94971 1.2012,0.64287 4.14899,1.09498 6.55065,1.00469 3.12584,-0.1175 7.27111,1.51113 14.58809,5.73156 9.1233,5.26232 10.6504,5.76728 14.21408,4.70017 24.27533,-7.26905 64.93503,-11.93689 97.83128,-11.23129 16.31852,0.35002 19.1194,0.12337 20.9375,-1.69414 3.3287,-3.32765 2.54,-5.18014 -4.45228,-10.45742 -3.60312,-2.7194 -7.87187,-6.49124 -9.48611,-8.38187 -1.61424,-1.89062 -3.66622,-3.4375 -4.55996,-3.4375 -0.89375,0 -1.54688,-0.95147 -1.45139,-2.11438 0.0955,-1.16292 -1.08867,-2.75999 -2.63147,-3.54908 -1.5428,-0.78907 -2.43343,-1.80635 -1.97918,-2.26061 0.45426,-0.45423 0.16968,-0.82589 -0.6324,-0.82589 -0.80209,0 -1.45834,-0.75078 -1.45834,-1.66838 0,-1.90487 -6.79802,-8.33162 -8.81295,-8.33162 -0.73402,0 -0.9497,-0.62276 -0.47928,-1.38391 0.57972,-0.938 -0.10138,-1.12259 -2.11373,-0.57287 l -2.96904,0.81107 2.76084,-1.63098 2.76083,-1.63097 -4.16499,-9.98367 c -5.36054,-12.84943 -8.23168,-22.38303 -8.23168,-27.33323 0,-2.1656 -1.12608,-6.03851 -2.50242,-8.60645 -2.03029,-3.78807 -2.15768,-4.66899 -0.67518,-4.66899 1.10302,0 2.36633,2.1056 3.18737,5.3125 4.4756,17.48134 13.27333,39.72885 16.49906,41.72246 0.93935,0.58056 1.13895,0.1531 0.59291,-1.26983 -0.48891,-1.27409 -0.3214,-1.83491 0.41258,-1.38128 0.67962,0.42003 1.23568,1.46074 1.23568,2.31268 0,2.47487 13.4662,15.98384 14.1781,14.22312 0.34349,-0.84955 0.66894,-0.40419 0.72322,0.98971 0.0542,1.39391 1.01446,3.84183 2.13373,5.43981 1.59452,2.27649 2.26685,2.53964 3.10587,1.21564 0.83116,-1.31164 1.07508,-1.20026 1.08995,0.49769 0.01,1.20312 0.86288,2.1875 1.89413,2.1875 1.03125,0 1.875,0.76161 1.875,1.69247 0,1.85692 5.53195,8.30619 7.12782,8.30977 2.02467,0.005 9.44665,13.75908 9.68573,17.94978 0.0337,0.59237 4.29882,2.29922 9.47783,3.79299 5.179,1.49378 11.53425,4.02488 14.12276,5.62466 4.60254,2.84453 4.76313,2.85738 7.27719,0.58203 1.75091,-1.58465 4.69742,-2.38789 9.23887,-2.51855 8.07969,-0.23245 8.90137,-0.6824 9.94795,-5.44749 0.45127,-2.05461 1.27005,-3.73566 1.81952,-3.73566 0.54947,0 1.69802,-1.6875 2.55233,-3.75 0.85432,-2.0625 1.97585,-3.75 2.49229,-3.75 0.51645,0 1.99509,-2.43971 3.28585,-5.42159 1.29078,-2.98187 2.68673,-5.3725 3.10211,-5.3125 0.41539,0.06 2.38355,-1.85966 4.3737,-4.26591 1.99015,-2.40625 4.66393,-5.5 5.94173,-6.875 4.75467,-5.11635 8.37946,-12.07429 9.12542,-17.51666 0.42279,-3.08459 1.25475,-5.60834 1.8488,-5.60834 3.82953,0 -2.98432,18.69981 -9.66625,26.52789 -3.02701,3.54622 -5.54668,6.76256 -5.59928,7.1474 -0.47359,3.46486 -1.58779,5.83546 -6.26234,13.32397 -2.96145,4.74415 -6.76125,10.47299 -8.44401,12.73074 -2.97469,3.99111 -2.99387,4.15475 -0.6913,5.89775 1.30256,0.98601 2.70267,1.81062 3.11136,1.8325 0.40869,0.0219 2.37744,1.44531 4.375,3.16322 1.99756,1.71792 4.05217,3.12417 4.56582,3.125 0.51364,8.4e-4 3.04489,1.8868 5.625,4.19104 7.52497,6.72036 12.94737,7.42426 25.3161,3.28635 37.26789,-12.46784 70.91015,-28.87695 125.08684,-63.72545 14.32759,-9.21605 23.43413,-14.01144 10.39635,-4.74886 -50.63645,35.97424 -100.02727,60.03245 -135.04461,71.52627 l -10.18644,3.34352 1.90293,3.81449 c 2.89543,5.80404 3.51852,18.28236 1.19103,23.85281 -2.28902,5.4784 -3.61367,4.39403 18.5289,15.16771 20.7693,10.10549 40.75795,22.54395 64.375,40.059 17.30752,12.83574 49.16688,38.32478 49.16688,39.05193 0,0.604 -9.55494,-6.99422 -20.71998,-15.49354 -2.92705,-2.2282 -6.72815,-5.00819 -8.4469,-6.17778 -1.71875,-1.16957 -6.78125,-5.02771 -11.25,-8.57363 -10.47006,-8.30793 -39.53336,-27.83647 -50,-33.59657 -20.40297,-11.22834 -44.30117,-21.97576 -48.8658,-21.97576 -2.70076,0 -5.98085,2.19362 -13.29716,8.89274 -8.82359,8.07923 -17.53548,10.53604 -23.86383,12.49463 -3.32383,1.02871 1.79457,2.72443 7.27679,6.11263 2.75,1.69959 5,3.86564 5,4.81342 0,1.93648 5.44124,12.61206 9.32428,18.29399 3.64766,5.33752 5.67572,9.41345 5.67572,11.40688 0,0.95067 1.90559,3.8395 4.23463,6.41961 2.32905,2.5801 5.51296,7.22235 7.07536,10.3161 1.56241,3.09375 4.07589,7.3125 5.58551,9.375 3.59918,4.91729 5.01633,9.375 2.9804,9.375 -0.84841,0 -1.17826,-0.36431 -0.73298,-0.80957 0.93728,-0.93729 -4.12762,-10.44043 -5.56444,-10.44043 -0.52865,0 -1.8455,-1.82812 -2.92635,-4.0625 -1.08084,-2.23437 -5.30605,-7.6006 -9.38938,-11.92495 -4.08332,-4.32435 -8.14726,-9.15718 -9.03098,-10.7396 -5.24218,-9.38689 -9.73177,-19.00173 -9.73177,-20.84141 0,-3.7728 -0.90915,-4.18179 -20.57878,-9.25757 -10.51632,-2.71374 -15.20055,-2.94624 -13.80309,-0.68511 0.33206,0.5373 -0.51491,1.26945 -1.88219,1.627 -1.38232,0.36149 -2.48594,1.70583 -2.48594,3.0282 0,1.30797 -0.82586,3.47 -1.83525,4.80453 -1.00937,1.33452 -1.85312,3.16971 -1.875,4.0782 -0.0441,1.83467 -3.03921,5.21601 -4.63796,5.23614 -0.56474,0.007 -2.15179,1.4157 -3.52679,3.13021 -1.375,1.71451 -4.82228,5.55031 -7.66063,8.524 -2.83835,2.9737 -5.54814,6.6276 -6.02174,8.11978 -0.4736,1.49219 -1.56914,2.71308 -2.43453,2.71308 -1.95005,0 -8.10723,7.25805 -10.22803,12.05672 -0.86737,1.96255 -1.6227,2.86516 -1.67854,2.00578 -0.22694,-3.4926 -2.30216,-1.15875 -5.00166,5.625 -1.5731,3.95313 -3.5807,8.875 -4.46134,10.9375 -0.88063,2.0625 -1.97956,6.40876 -2.44206,9.65836 -0.4625,3.2496 -1.17864,11.32394 -1.90006,11.7698 -0.80963,0.50037 -1.30818,-5.13726 -0.89527,-6.58412 0.36793,-1.28923 1.0481,-5.87845 1.51149,-10.19828 0.4634,-4.31984 2.71971,-12.37265 5.01405,-17.89515 l 4.17152,-10.04091 -3.9866,0.74137 c -3.69463,0.68707 -3.57465,0.51417 1.6384,-2.36087 3.09375,-1.70622 5.0625,-3.13594 4.375,-3.17714 -0.6875,-0.0412 0.0665,-0.76975 1.67545,-1.61899 1.609,-0.84923 3.859,-3.20642 5,-5.23817 1.141,-2.03175 4.46169,-6.16924 7.3793,-9.1944 2.91763,-3.02516 5.01883,-5.96294 4.66935,-6.5284 -0.34947,-0.56546 0.35714,-1.36868 1.57025,-1.78493 1.21312,-0.41623 5.01815,-3.32078 8.45565,-6.45453 4.68247,-4.2687 5.54418,-5.54148 3.43578,-5.07475 -1.54783,0.34262 -2.499,0.11287 -2.11373,-0.51047 0.95423,-1.54396 -0.44713,-1.43076 -7.65767,0.6186 -3.3904,0.96363 -8.41438,2.17895 -11.16438,2.70074 -2.75,0.52179 -5.84375,1.12461 -6.875,1.33961 -12.82817,2.67452 -43.25941,5.56482 -65.625,6.23294 l -27.5,0.82151 -3.70972,4.51409 c -8.77089,10.67268 -19.73988,21.18606 -21.4282,20.5382 -0.9729,-0.37334 -2.68763,0.0873 -3.81049,1.02354 -3.06462,2.5554 -10.86325,5.95502 -12.02027,5.23994 -0.5587,-0.3453 -1.89168,0.0991 -2.96218,0.98751 -1.07049,0.88842 -2.81766,1.7432 -3.88261,1.89951 -1.06494,0.1563 -2.34635,0.94773 -2.84758,1.75873 -0.69007,1.11656 -1.03671,1.09838 -1.42778,-0.0749 -0.3775,-1.13247 -1.90904,-0.83897 -5.69152,1.0907 -2.84626,1.45205 -5.51246,3.18608 -5.92487,3.85338 -0.41241,0.66728 -1.58839,0.89148 -2.61328,0.4982 -1.15018,-0.44138 -3.6079,1.13448 -6.42101,4.11708 -2.60304,2.75987 -3.91214,3.626 -3.05255,2.01967 2.03781,-3.80815 -0.009,-3.55205 -4.9939,0.625 -2.25651,1.89062 -3.62145,2.59375 -3.03317,1.5625 0.58826,-1.03125 -1.12428,0.0923 -3.80564,2.49653 -2.68138,2.40434 -4.1721,3.55747 -3.31273,2.5625 4.48542,-5.19313 -1.33507,-3.54498 -7.38317,2.09064 -1.82637,1.70181 -3.6545,3.03933 -4.0625,2.97226 -3.86437,-0.63521 -6.13405,0.43039 -8.39319,3.94057 -1.43805,2.23437 -2.29118,3.07812 -1.89586,1.875 0.9691,-2.94939 -0.29506,-2.75242 -4.01127,0.625 -1.70205,1.54687 -2.68948,2.10937 -2.1943,1.25 0.49519,-0.85936 0.27144,-1.56249 -0.49721,-1.56249 -0.76864,0 -0.99667,-0.70312 -0.50672,-1.5625 1.11066,-1.94811 1.15278,-1.98768 -27.61828,25.94389 -13.0625,12.68132 -24.103,23.07082 -24.53444,23.08782 -0.43145,0.017 -1.55645,-0.9209 -2.5,-2.0841 z m 550.07336,-18.19722 c -4.4214,-9.0893 -10.69943,-20.61242 -13.95118,-25.60693 -3.25175,-4.99452 -7.77459,-11.47297 -7.27284,-11.46431 1.91199,0.033 13.08798,17.45624 21.4403,34.74434 4.77923,9.8923 8.49445,18.18112 8.25605,18.41942 -0.23838,0.2384 -4.05095,-7.00322 -8.47233,-16.09252 z m -302.63163,-9.3898 c 0.9115,-0.6533 1.97226,-3.5362 2.35725,-6.4065 0.38499,-2.8703 0.26049,-10.20391 0.64932,-9.81509 1.14506,1.14509 2.06972,15.92349 0.94484,15.92349 -0.56607,0 -2.05961,0.3343 -3.31896,0.7429 -1.67194,0.5425 -1.84257,0.4225 -0.63245,-0.4448 z M 152.95889,548.93144 c 0.90234,-0.36109 1.98047,-0.31669 2.39583,0.0986 0.41537,0.41536 -0.32291,0.7108 -1.64062,0.65652 -1.45618,-0.06 -1.75238,-0.35617 -0.75521,-0.7552 z m 471.48437,-8.52111 c -5.12183,-5.15625 -15.34462,-14.42576 -15.00087,-14.42576 0.34375,0 11.12904,9.26951 16.25087,14.42576 5.12184,5.15625 9.03118,9.375 8.68743,9.375 -0.34375,0 -4.81559,-4.21875 -9.93743,-9.375 z m 11.25,-216.3959 c 8.21446,-7.91356 32.36822,-31.17966 41.13637,-41.1041 l 6.62617,-8.45982 -5.43163,7.87946 c -6.34063,9.19813 -49.64458,50.87769 -47.96592,47.17162 0.83407,-1.84143 1.98,-1.96603 5.63501,-5.48716 z m 49.6875,-51.88854 c -438.06433,250.1101 -219.03216,125.05505 0,0 z"
       style="fill:#ffffff"
       inkscape:connector-curvature="0" />
  </g>
</svg>
