<?xml version="1.0" encoding="UTF-8" standalone="no"?>
<!-- Created with Inkscape (http://www.inkscape.org/) -->

<svg
   xmlns:dc="http://purl.org/dc/elements/1.1/"
   xmlns:cc="http://creativecommons.org/ns#"
   xmlns:rdf="http://www.w3.org/1999/02/22-rdf-syntax-ns#"
   xmlns:svg="http://www.w3.org/2000/svg"
   xmlns="http://www.w3.org/2000/svg"
   xmlns:sodipodi="http://sodipodi.sourceforge.net/DTD/sodipodi-0.dtd"
   xmlns:inkscape="http://www.inkscape.org/namespaces/inkscape"
   width="90.285233mm"
   height="67.715019mm"
   viewBox="0 0 319.9083 239.93511"
   id="svg4404"
   version="1.1"
   inkscape:version="0.91 r13725"
   sodipodi:docname="ic_d_odo.svg">
  <defs
     id="defs4406" />
  <sodipodi:namedview
     id="base"
     pagecolor="#ffffff"
     bordercolor="#666666"
     borderopacity="1.0"
     inkscape:pageopacity="0.0"
     inkscape:pageshadow="2"
     inkscape:zoom="1.4142136"
     inkscape:cx="11.97815"
     inkscape:cy="124.97306"
     inkscape:document-units="px"
     inkscape:current-layer="layer1"
     showgrid="false"
     inkscape:window-width="1366"
     inkscape:window-height="716"
     inkscape:window-x="-8"
     inkscape:window-y="-8"
     inkscape:window-maximized="1"
     fit-margin-top="0"
     fit-margin-left="0"
     fit-margin-right="0"
     fit-margin-bottom="0" />
  <metadata
     id="metadata4409">
    <rdf:RDF>
      <cc:Work
         rdf:about="">
        <dc:format>image/svg+xml</dc:format>
        <dc:type
           rdf:resource="http://purl.org/dc/dcmitype/StillImage" />
        <dc:title></dc:title>
      </cc:Work>
    </rdf:RDF>
  </metadata>
  <g
     inkscape:label="Layer 1"
     inkscape:groupmode="layer"
     id="layer1"
     transform="translate(-385.11719,-408.38717)">
    <path
       style="fill:#000000"
       d="m 548.25781,408.39062 c -0.13623,-0.036 -0.30146,0.2107 -0.59765,0.7129 -0.37274,0.63199 -0.4224,1.37888 -0.11719,1.79882 0.58751,0.80839 1.6723,4.01092 2.27539,6.71875 0.27256,1.2238 1.70811,2.89463 4.54297,5.29493 -0.4568,0.11141 -2.24202,1.40217 -2.44531,1.60546 -0.59961,0.59961 -0.45898,0.42195 -0.59961,0.59961 -0.0736,0.093 -0.10665,0.14933 -0.14063,0.20899 -0.46552,0.18995 -1.56933,0.74405 -1.79492,1.02344 -0.17324,0.2803 -1.15871,1.14139 -1.24024,1.39648 -1.21237,-1.03087 -3.90121,-1.13252 -6.07812,-0.14062 -1.14721,0.52273 -1.71763,0.51692 -2.37109,-0.0254 -0.74425,-0.61767 -2.46738,-0.47109 -3.37891,0.0547 -0.12971,-0.34146 -0.71594,-1.03194 -1.10156,-1.09765 -0.66306,-0.113 -0.80883,-0.53994 -1.14844,-0.75782 -0.3219,-0.20651 -0.73662,-0.39184 -0.96289,-0.3789 0.0651,-0.19683 0.0466,-0.47605 -0.0664,-0.83203 -0.20066,-0.63222 -0.0793,-1.32545 0.26953,-1.54102 0.34881,-0.21558 0.42671,-0.71186 0.17383,-1.10156 -0.25288,-0.3897 -0.59476,-2.73399 -0.75976,-5.20899 -0.41759,-6.26373 -1.49385,-5.1955 -1.53125,1.51953 -0.0284,5.08991 -0.14558,5.58553 -1.94922,8.20704 -1.05591,1.5347 -1.91992,3.33253 -1.91992,3.99609 0,0.66357 -0.26961,1.37417 -0.59961,1.57812 -0.33,0.20395 -0.59961,1.03375 -0.59961,1.84375 0,0.81 -0.27152,2.00855 -0.60157,2.66407 -0.32997,0.65552 -0.88769,1.7576 -1.24023,2.44922 -0.50232,0.98545 -0.41771,1.50502 0.39258,2.40039 0.56869,0.62838 1.35214,1.14257 1.74023,1.14257 0.38809,0 1.05256,0.74288 1.47657,1.6504 1.17748,2.52014 1.36872,2.82896 3.76367,6.07617 l 2.23242,3.02539 -1.93164,0.29883 c -8.92467,1.37928 -13.5179,0.77887 -12.7168,-1.66407 0.23192,-0.70725 0.63444,-2.90672 0.89649,-4.88672 0.46298,-3.49818 1.40833,-9.34217 2.16406,-13.38867 0.26522,-1.42006 -0.015,-2.79502 -0.97852,-4.80078 -0.74247,-1.54568 -1.62364,-3.40224 -1.95703,-4.125 -0.33339,-0.72276 -0.43712,-2.1581 -0.23047,-3.19141 0.31387,-1.56936 0.20377,-1.84582 -0.66797,-1.67968 -2.11951,0.40394 -1.44316,5.19536 1.46094,10.36133 0.78311,1.39308 1.12395,2.63378 0.82422,3 -1.38932,1.69752 -2.95969,9.52659 -3.27539,16.33593 -0.33143,7.14881 -0.309,7.32059 0.98242,7.73047 1.79857,0.57084 9.11239,0.3427 12.36719,-0.38672 1.46172,-0.32755 2.75642,-0.49748 2.87695,-0.37695 0.12053,0.12054 -0.43503,1.81635 -1.23437,3.76953 -0.79934,1.95318 -1.60502,4.03401 -1.78906,4.62305 -0.30931,0.98991 -0.46907,1.00166 -2.11524,0.15039 -0.97954,-0.50654 -2.3177,-0.92188 -2.97461,-0.92188 -0.65691,0 -1.34301,-0.2393 -1.52344,-0.53125 -0.18044,-0.29196 -1.07283,-0.67857 -1.98437,-0.86132 -0.91154,-0.18274 -2.87242,-0.63177 -4.35742,-0.9961 -4.35753,-1.06907 -15.70955,-2.25895 -34.5,-3.61914 -17.7135,-1.28223 -22.92076,-1.76528 -25.20118,-2.33594 -1.31999,-0.33033 -3.6146,-0.89569 -5.0996,-1.25586 -1.485,-0.36017 -3.64383,-0.89848 -4.79883,-1.19726 -1.155,-0.29878 -3.31578,-0.81494 -4.80078,-1.14649 -1.485,-0.33156 -4.32076,-1.0513 -6.30079,-1.59961 -13.87281,-3.84142 -32.78291,-6.08295 -38.17968,-4.52539 -1.27521,0.36804 -3.46664,0.99284 -4.86914,1.38868 -5.75503,1.62433 -8.84961,4.93002 -8.84961,9.45312 0,1.79012 0.50266,2.70694 2.76367,5.0332 2.31957,2.38651 7.11201,5.90356 12.55273,9.21289 0.6506,0.39574 3.74782,1.97279 6.88282,3.50391 3.135,1.53111 6.16916,3.02942 6.74218,3.33008 0.57302,0.30066 1.45309,0.54687 1.95703,0.54687 0.50397,0 1.38597,0.23787 1.95899,0.52735 1.58246,0.79946 5.20384,1.87303 6.31641,1.87305 0.54403,0 1.90556,0.5136 3.02539,1.14257 2.96161,1.66344 4.11913,2.24473 5.80078,2.91211 0.825,0.32741 2.30883,0.93166 3.29883,1.3418 10.38436,4.30204 39.23903,7.14577 55.80078,5.5 3.63,-0.36072 10.11039,-0.94829 14.40039,-1.30664 4.29,-0.35835 9.08097,-0.79766 10.64843,-0.97656 1.86124,-0.21242 2.85157,-0.0985 2.85157,0.33007 0,0.36096 -0.9609,0.65625 -2.13477,0.65625 -1.17387,0 -3.26676,0.24669 -4.65039,0.54688 -1.38363,0.30019 -4.40484,0.84697 -6.71484,1.2168 -5.34222,0.85528 -9.84457,1.70692 -14.40039,2.72461 -3.97283,0.88746 -9.06669,1.89271 -12.30078,2.42578 -1.155,0.19037 -5.88,0.59559 -10.5,0.90234 -48.04859,3.1903 -51.68465,3.58911 -61.19922,6.71289 -5.86028,1.92401 -11.78107,5.05219 -14.55078,7.6875 -1.4025,1.33444 -2.5555,2.61989 -2.5625,2.85547 -0.007,0.23558 -0.54218,1.10273 -1.1875,1.92773 -0.64532,0.825 -1.17855,2.13415 -1.18555,2.90821 -0.0172,1.81242 1.96217,4.58327 4.05078,5.66992 0.89935,0.46791 2.71516,1.41341 4.03516,2.10156 2.83096,1.47588 9.20877,3.71396 12.59961,4.42188 5.84293,1.21984 9.30155,1.82525 13.5,2.36133 10.34366,1.32069 14.39856,1.79389 19.80078,2.31054 6.14055,0.58726 13.01964,1.64482 13.78711,2.11914 0.26093,0.16126 8.81582,0.32353 19.01171,0.36133 20.34029,0.0753 27.41663,-0.56229 33.5,-3.01758 2.20018,-0.88801 7.17524,-3.16804 9.30079,-4.26367 1.155,-0.59535 3.5474,-1.82436 5.3164,-2.73047 1.76899,-0.90612 4.0636,-2.50508 5.09961,-3.55273 2.55175,-2.58045 6.38477,-7.28867 6.38477,-7.84375 0,-0.24799 0.45123,-0.94984 1.0039,-1.56055 0.90921,-1.00466 0.92023,-1.29635 0.10743,-3.04883 -0.9131,-1.96873 -0.88023,-2.14055 1.07421,-5.48437 0.64837,-1.10929 0.72056,-1.10026 2.10547,0.29883 0.78853,0.7966 1.75017,2.52957 2.13672,3.84961 0.89977,3.07257 0.60308,31.98961 -0.44922,43.79882 -0.69113,7.75567 -0.94764,35.14909 -0.60742,64.80078 0.1314,11.45186 -0.25785,17.46175 -1.20508,18.62696 -0.70412,0.86615 2.44957,7.2707 2.2793,6.25 l -0.36328,-2.17578 -0.0312,-0.86914 c 0,0 -0.13532,-2.93165 0.48242,-2.93164 0.2939,0 0.64446,0.9446 0.7793,2.0996 0.13042,1.11709 -0.0432,1.69654 -0.10742,1.99024 -0.15829,0.72402 -0.0906,1.7684 0.1289,2.58594 0.19482,0.72593 0.28628,0.90845 0.46485,1.14648 0.19032,0.25369 0.54117,0.57813 1.20117,0.57813 0.66,0 1.02222,-0.32306 1.19922,-0.60157 0.10045,-0.15805 0.16745,-0.47553 0.16797,-0.62109 l 0.006,-1.59375 c -0.002,-0.42205 -0.14539,-1.18892 -0.15429,-2.85352 -0.0112,-2.08809 0.25354,-3.11217 0.60742,-2.99414 0.27524,0.0918 0.29668,0.96904 0.89844,2.38282 0.19518,0.45856 0.2596,0.60091 0.41406,1.26171 0.26929,1.15196 -0.79492,3.70118 -0.79492,3.70118 -0.0624,0.39611 1.30136,-0.69684 2.00586,-1.30274 1.29785,-1.11622 1.65039,-1.94027 1.65039,-3.86328 0,-1.34463 -0.2255,-2.58426 -0.5,-2.75391 -0.95634,-0.59104 -2.04553,-8.57297 -1.34766,-9.87695 0.35537,-0.66402 0.64649,-2.55682 0.64649,-4.20703 0,-1.65021 0.28582,-3.75215 0.63476,-4.66992 0.34893,-0.91777 0.74033,-3.97285 0.86914,-6.78906 0.7104,-15.53221 1.00808,-17.91475 1.3086,-20.67969 -0.001,-1.71278 0.16225,-3.73532 0.23437,-7.00586 0.0686,-3.11298 -0.58368,-12.53695 -0.61328,-20.97461 -0.0296,-8.43767 -0.32041,-16.26639 -0.64453,-17.39648 -0.32412,-1.13018 -0.58789,-6.29508 -0.58789,-11.47852 0,-5.18343 -0.30262,-10.8348 -0.67188,-12.55664 -1.14436,-5.33596 1.23236,-18.53609 3.33594,-18.52539 0.8261,0.004 5.47567,6.4906 5.30469,7.40039 -0.0721,0.38372 -0.31162,1.46464 -0.53125,2.40234 -0.35786,1.52789 0.0608,2.16798 4.03125,6.17383 2.43675,2.45846 5.10471,4.81571 5.92968,5.23633 0.82502,0.42062 2.04118,1.05209 2.70118,1.4043 1.85991,0.99253 3.95532,1.84028 6.90039,2.79296 1.485,0.48038 3.51,1.20314 4.5,1.60547 3.58537,1.4571 4.2419,1.68253 6.89843,2.35743 5.94232,1.50963 39.01288,-0.37356 48.30079,-2.75 1.98,-0.50662 4.68,-1.19529 6,-1.53126 1.32,-0.33594 2.83504,-0.83316 3.36718,-1.10546 0.53215,-0.2723 2.55715,-0.77547 4.5,-1.11719 1.94286,-0.34172 4.34203,-0.78324 5.33203,-0.98242 0.99001,-0.19917 3.015,-0.60396 4.5,-0.89844 3.60596,-0.71508 7.543,-1.58629 10.6504,-2.35742 6.08155,-1.5092 7.16227,-1.78388 9.15039,-2.32227 6.25858,-1.69485 17.40039,-6.44617 17.40039,-7.41992 0,-0.27054 0.38261,-0.49023 0.85156,-0.49023 0.46895,0 2.09051,-1.237 3.60156,-2.74805 4.03655,-4.03655 3.87478,-5.73469 -1.0039,-10.60742 -2.96911,-2.96549 -4.62382,-4.07504 -7.94922,-5.32618 -4.45813,-1.67725 -7.49997,-2.56445 -11.40039,-3.32617 -2.49401,-0.48705 -37.86499,-0.56779 -60.30079,-0.13867 -7.85613,0.15027 -16.18319,-0.0562 -21.29882,-0.52734 -4.62,-0.42555 -12.45039,-1.03867 -17.40039,-1.36133 -18.97783,-1.23705 -18.85494,-1.58433 0.59961,-1.69336 10.23,-0.0573 21.03,-0.35637 24,-0.66406 11.38665,-1.17964 20.78017,-2.73491 29.0996,-4.81836 1.48501,-0.37188 3.58068,-0.82239 4.65626,-1 1.07555,-0.17762 2.10372,-0.56194 2.28515,-0.85547 0.18141,-0.29354 0.97372,-0.53516 1.75977,-0.53516 0.78605,0 1.59492,-0.26961 1.79882,-0.59961 0.20395,-0.33 0.86918,-0.59961 1.47852,-0.59961 1.00186,0 2.67815,-0.7137 8.12305,-3.46484 0.99,-0.50022 3.34839,-1.95085 5.24219,-3.22266 1.89376,-1.27181 3.72038,-2.3125 4.05859,-2.3125 0.33821,0 1.08323,-0.23779 1.65625,-0.52929 0.57303,-0.2915 1.71797,-0.7936 2.54297,-1.11524 1.40722,-0.54863 2.71265,-1.19295 9.69922,-4.77734 1.54038,-0.79027 3.1259,-1.82764 3.52343,-2.30664 0.39754,-0.479 0.99179,-0.87113 1.32032,-0.87109 0.32853,-1e-5 1.4923,-0.7429 2.58593,-1.6504 1.09363,-0.9075 3.26552,-2.595 4.82618,-3.75 4.91398,-3.63668 7.72232,-6.41457 9.10546,-9.00586 1.41883,-2.65814 1.73254,-5.07887 0.73829,-5.69335 -0.33,-0.20395 -0.59961,-0.79678 -0.59961,-1.31641 0,-1.42464 -2.86269,-3.59697 -6.26563,-4.75391 -4.75454,-1.61646 -17.25567,-1.45376 -23.13476,0.30078 -4.73526,1.41317 -8.19915,2.32211 -10.95704,2.875 -0.91154,0.18275 -1.80394,0.57133 -1.98437,0.86329 -0.18044,0.29195 -0.97176,0.53125 -1.75781,0.53125 -0.78605,0 -1.59683,0.26958 -1.80078,0.59961 -0.20395,0.32999 -1.01278,0.5996 -1.79883,0.5996 -0.78605,0 -1.59683,0.26961 -1.80078,0.59961 -0.20395,0.33 -1.01468,0.59961 -1.80079,0.59961 -0.78602,0 -1.59487,0.27157 -1.79882,0.60157 -0.20395,0.33 -0.89995,0.59958 -1.54492,0.59961 -0.64501,0 -1.70777,0.2696 -2.36329,0.5996 l -2.38476,1.19922 c -0.65552,0.33 -1.68082,0.60157 -2.2793,0.60157 -0.59847,0 -1.3447,0.22152 -1.6582,0.49414 -0.3135,0.27262 -1.78453,0.86177 -3.26953,1.30859 -1.485,0.44682 -2.97078,0.98615 -3.30078,1.19727 -1.16549,0.74561 -8.57391,2.47366 -17.69922,4.1289 -1.815,0.32923 -4.78461,0.878 -6.59961,1.21875 -1.815,0.34075 -4.24539,0.774 -5.40039,0.96289 -1.155,0.18888 -3.5175,0.60087 -5.25,0.91602 -1.7325,0.31515 -4.56828,0.82812 -6.30078,1.14062 -1.7325,0.31249 -4.50039,0.85624 -6.1504,1.20899 -1.64999,0.35275 -4.15241,0.8082 -5.5625,1.01172 -1.41007,0.20353 -2.70981,0.6044 -2.88671,0.89062 -0.1769,0.28623 -1.09973,0.52149 -2.05079,0.52149 -0.951,0 -1.89564,0.26957 -2.0996,0.59961 -0.20395,0.32999 -0.86918,0.5996 -1.47852,0.5996 -0.60933,0 -2.14537,0.51399 -3.41406,1.14258 -5.27356,2.6129 -9.31585,4.26161 -9.76758,3.98242 -0.2649,-0.16371 -0.6502,-1.31769 -0.85547,-2.5625 -0.20527,-1.24482 -0.75429,-2.98496 -1.2207,-3.86914 -1.00194,-1.8994 -0.65338,-2.49181 0.95898,-1.6289 1.61719,0.86549 7.42563,2.3359 9.23047,2.33594 1.72648,-1e-5 5.04688,-2.2501 5.04688,-3.41993 0,-0.43654 -0.51619,-1.93899 -1.14844,-3.33789 -0.63225,-1.3989 -1.49871,-3.62336 -1.92383,-4.94336 -0.42511,-1.32 -0.98737,-2.65525 -1.25,-2.96875 -0.26263,-0.3135 -0.47656,-1.00534 -0.47656,-1.53711 0,-0.53178 -0.47994,-1.49114 -1.06641,-2.13086 -1.387,-1.51295 -3.73437,-4.84664 -3.73437,-5.30468 0,-0.19656 0.3375,-0.35898 0.75,-0.35938 1.21418,-0.001 4.16986,-2.84859 3.95117,-3.80664 -0.38541,-1.68852 -8.13389,-10.12688 -11.83203,-12.88672 -1.17289,-0.87531 -1.86914,-1.92453 -1.86914,-2.81445 0,-0.78043 -0.26961,-1.58707 -0.59961,-1.79102 -0.33,-0.20395 -0.59961,-1.16424 -0.59961,-2.13476 0,-0.97052 -0.23974,-1.76563 -0.53125,-1.76563 -0.29151,0 -0.69944,-0.60711 -0.90821,-1.34961 -0.17626,-0.62693 -0.28369,-0.94446 -0.41992,-0.98047 z m 6.1875,14.59766 c 4.03234,3.40438 4.16644,3.60671 3.80274,5.68164 -0.20749,1.18377 -0.5298,3.16485 -0.7168,4.40235 -0.34532,2.28522 -1.41406,3.15753 -1.41406,1.15429 0,-1.42806 -2.17358,-3.36289 -4.7461,-4.22461 -1.12463,-0.37672 -2.42124,-1.22382 -2.88281,-1.88281 -0.0758,-0.10816 -0.16895,-0.2068 -0.26953,-0.30078 0.38796,-0.0586 1.66184,-1.22072 1.92187,-1.41016 0.23592,-0.17186 0.75929,-0.60937 1.08204,-0.91211 0.0309,0.006 0.0533,0.0137 0.10351,0.0137 0.32211,0 2.99082,-2.11298 3.11914,-2.52149 z m -21.47851,2.60352 c 0.17122,0.38455 2.50154,1.92163 3.14453,2.18164 -0.23389,0.17925 -0.39453,0.38582 -0.39453,0.62109 0,1.06677 -2.09146,3.32617 -3.07813,3.32617 -1.27023,0 -3.78488,3.35616 -4.12305,5.50196 -0.34118,2.16529 -1.79882,3.09126 -1.79882,1.14257 0,-0.6911 0.57333,-2.53566 1.27343,-4.09961 0.7001,-1.56389 1.84643,-4.12192 2.54883,-5.68359 0.7024,-1.56167 1.63362,-2.84361 2.06836,-2.84961 0.15917,-0.002 0.27111,-0.0594 0.35938,-0.14062 z m 27.32617,3.22265 c 0.26608,-0.0299 0.6217,0.36754 1.11914,1.16407 0.66845,1.07035 0.63206,1.42788 -0.24805,2.40039 -1.50872,1.66718 -1.80666,1.42527 -1.55078,-1.25782 0.14518,-1.52234 0.33758,-2.2682 0.67969,-2.30664 z m -2.24609,8.57032 c 0.34166,-0.0106 0.84878,0.54316 1.20507,1.35351 0.40719,0.9261 0.88684,1.81742 1.06641,1.98242 0.17957,0.165 1.17395,1.92039 2.20898,3.90039 1.03505,1.98 2.58897,4.93765 3.45313,6.57227 0.86415,1.63461 1.43568,3.32211 1.27148,3.75 -0.34285,0.89345 -7.06212,1.02557 -9.03515,0.17773 -0.66,-0.28361 -2.0622,-0.53344 -3.11524,-0.55664 -2.53581,-0.0559 -2.84921,-0.75721 -1.41015,-3.15234 4.14058,-6.89148 5.34493,-10.39759 4.26367,-12.41797 -0.42269,-0.7898 -0.43757,-1.32638 -0.043,-1.57031 0.0412,-0.0255 0.0859,-0.0376 0.13477,-0.0391 z m -33.8086,51.4082 c 0.435,0.002 0.84794,0.0421 1.13477,0.11719 0.57366,0.15017 -0.0374,0.26676 -1.35743,0.25976 -1.32,-0.007 -1.7893,-0.12992 -1.04296,-0.27344 0.37317,-0.0718 0.83062,-0.10571 1.26562,-0.10351 z"
       id="path4425"
       inkscape:connector-curvature="0" />
  </g>
</svg>
