<?xml version="1.0" encoding="UTF-8" standalone="no"?>
<!-- Created with Inkscape (http://www.inkscape.org/) -->

<svg
   xmlns:dc="http://purl.org/dc/elements/1.1/"
   xmlns:cc="http://creativecommons.org/ns#"
   xmlns:rdf="http://www.w3.org/1999/02/22-rdf-syntax-ns#"
   xmlns:svg="http://www.w3.org/2000/svg"
   xmlns="http://www.w3.org/2000/svg"
   xmlns:sodipodi="http://sodipodi.sourceforge.net/DTD/sodipodi-0.dtd"
   xmlns:inkscape="http://www.inkscape.org/namespaces/inkscape"
   width="105.82192mm"
   height="158.76665mm"
   viewBox="0 0 374.95957 562.55898"
   id="svg3415"
   version="1.1"
   inkscape:version="0.91 r13725"
   sodipodi:docname="ic_d_mec.svg">
  <defs
     id="defs3417" />
  <sodipodi:namedview
     id="base"
     pagecolor="#ffffff"
     bordercolor="#666666"
     borderopacity="1.0"
     inkscape:pageopacity="0.0"
     inkscape:pageshadow="2"
     inkscape:zoom="0.7"
     inkscape:cx="316.78259"
     inkscape:cy="274.51316"
     inkscape:document-units="px"
     inkscape:current-layer="layer1"
     showgrid="false"
     inkscape:window-width="1366"
     inkscape:window-height="716"
     inkscape:window-x="-8"
     inkscape:window-y="-8"
     inkscape:window-maximized="1"
     fit-margin-top="0"
     fit-margin-left="0"
     fit-margin-right="0"
     fit-margin-bottom="0" />
  <metadata
     id="metadata3420">
    <rdf:RDF>
      <cc:Work
         rdf:about="">
        <dc:format>image/svg+xml</dc:format>
        <dc:type
           rdf:resource="http://purl.org/dc/dcmitype/StillImage" />
        <dc:title></dc:title>
      </cc:Work>
    </rdf:RDF>
  </metadata>
  <g
     inkscape:label="Layer 1"
     inkscape:groupmode="layer"
     id="layer1"
     transform="translate(-177.66657,-164.38751)">
    <path
       style="fill:#000000"
       d="m 411.7154,164.38755 c -1.62595,0 -1.48722,0.4973 0.71484,2.54883 1.50464,1.40179 2.82477,3.79241 2.93164,5.3125 0.31848,4.52762 -0.30984,8.89574 -1.48242,10.3086 -0.60493,0.7289 -0.98475,15.08011 -0.84375,31.89062 0.21359,25.46545 0.59689,31.2244 2.29688,34.52344 1.38838,2.69437 1.63222,4.36778 0.76367,5.23633 -0.86855,0.86855 0.40872,3.19185 3.99804,7.26953 3.57043,4.05623 11.25453,17.98609 23.7793,43.11133 10.17702,20.41554 20.59039,40.55647 23.14258,44.75781 l 4.64062,7.63867 -5.97461,5.26367 c -13.18865,11.617 -22.5981,18.41652 -26.51171,19.15821 -2.26642,0.42952 -4.26357,0.57274 -4.4375,0.31836 -0.17391,-0.25442 -3.43816,-4.11915 -7.25391,-8.5879 -9.02679,-10.57161 -39.95734,-50.98464 -46.40039,-60.625 -2.7569,-4.125 -6.48112,-9.10936 -8.27539,-11.07617 -3.10307,-3.4015 -3.149,-3.6455 -0.93946,-5 4.68806,-2.87385 8.41786,-6.10168 7.78321,-6.73633 -0.3585,-0.3585 -2.12397,0.31484 -3.92383,1.49414 -3.73871,2.44971 -4.41396,2.1519 -4.50586,-1.97851 -0.21896,-9.84297 -3.55078,-13.88209 -3.55078,-4.30469 0,6.05809 -0.93411,9.47656 -2.58789,9.47656 -0.58833,0 -3.4527,-3.50796 -6.36524,-7.79687 -2.91253,-4.2889 -7.33239,-10.05452 -9.82226,-12.8125 -6.73646,-7.4618 -9.97461,-13.51418 -9.97461,-18.63867 0,-5.64963 -5.50873,-19.35556 -8.96875,-22.31446 -1.40691,-1.20313 -3.76172,-2.18464 -5.23242,-2.18164 -2.26705,0.004 -2.05553,0.3805 1.38867,2.48047 5.01181,3.05576 5.48911,5.49459 0.72071,3.68164 -2.59864,-0.988 -3.76945,-0.84187 -5.26758,0.65625 -1.73515,1.73516 -1.59643,1.92578 1.40234,1.92578 4.66423,0 9.27503,6.44822 10.27735,14.375 1.73943,13.75599 1.97548,14.43975 5.79687,16.76368 2.05212,1.24797 7.54687,7.89406 12.21093,14.76953 4.66406,6.87547 13.7828,18.95083 20.26368,26.83398 6.48087,7.88314 17.12695,20.98907 23.6582,29.125 6.53125,8.13592 17.124,21.21796 23.53906,29.07031 6.41506,7.85235 11.47756,14.41875 11.25,14.5918 -1.06101,0.80686 -12.97042,5.22029 -25.88281,9.5918 l -14.2207,4.81445 -3.13672,-2.46875 c -6.09153,-4.79159 -17.47577,-1.89113 -19.66602,5.00977 -0.63535,2.0018 -1.29941,2.20792 -3.90625,1.21679 -1.72698,-0.6566 -4.36896,-1.18121 -5.87109,-1.16601 -2.72066,0.0277 -2.71971,0.0378 0.24609,2.31836 l 2.97852,2.28906 -6.49219,0.86133 c -7.97887,1.05844 -15.03401,6.80426 -15.44726,12.58008 -0.37486,5.2391 3.34934,5.76924 5.89843,0.83984 1.06347,-2.05652 3.20535,-4.15175 4.75977,-4.65625 3.0704,-0.9965 23.25701,-0.77677 24.95312,0.27148 0.573,0.35414 -0.0934,2.0862 -1.48047,3.84961 -1.51103,1.92096 -2.52148,5.08598 -2.52148,7.89454 0,3.69765 -0.70358,5.14821 -3.33008,6.86914 -5.79581,3.79758 -14.3047,12.2214 -18.25781,18.07617 -2.09951,3.10949 -3.95219,5.83362 -4.11719,6.05273 -0.16498,0.21911 -3.16434,-1.66008 -6.66601,-4.17578 -3.50166,-2.5157 -16.68831,-9.27853 -29.30273,-15.0293 -12.61443,-5.75078 -27.66398,-13.17704 -33.44336,-16.50195 -14.18175,-8.15884 -17.81085,-9.5049 -23.54102,-8.73633 -4.31072,0.57819 -5.33481,0.16191 -9.03906,-3.66406 -4.44905,-4.59523 -25.02766,-19.16602 -27.06836,-19.16602 -0.66908,0 -1.53983,0.84375 -1.93555,1.875 -0.455,1.18571 -2.37206,1.875 -5.21484,1.875 -3.75783,0 -5.50886,-1.03922 -10.66992,-6.33789 -4.59174,-4.71417 -6.3581,-5.86041 -6.89063,-4.47265 -1.0169,2.65 1.41681,6.61265 5.42383,8.83203 11.7882,6.52912 13.84413,7.1504 17.46289,5.2793 3.33594,-1.72488 3.79604,-1.55059 12.34961,4.64257 14.1568,10.25014 19.49913,15.52497 18.59766,18.36524 -1.05984,3.33927 -5.15824,5.30904 -9.16211,4.4043 -3.16599,-0.71542 -3.20764,-0.66315 -0.89453,1.14257 1.33453,1.04181 2.84607,1.89453 3.35742,1.89453 2.64363,0 7.79988,-2.86514 10.60742,-5.89453 l 3.17187,-3.42187 -2.59375,6.58008 c -2.9242,7.41875 -2.98824,7.73632 -1.57421,7.73632 1.24461,0 5.23046,-8.13011 5.23046,-10.66796 0,-1.00793 0.42188,-1.8349 0.9375,-1.8379 2.55113,-0.015 28.11654,11.03921 34.6875,14.99805 11.1292,6.70508 41.6445,23.25269 48.30274,26.19336 3.1919,1.40972 6.13515,3.42397 6.53906,4.47656 0.64147,1.67163 1.33692,1.60728 5.50195,-0.51757 5.41894,-2.76453 14.05424,-11.6459 17.15625,-17.64454 1.4473,-2.79884 2.48779,-3.63721 3.39062,-2.73437 1.6216,1.62159 -3.12912,9.78461 -6.27539,10.7832 -2.34086,0.74296 -10.1037,17.27177 -13.24414,28.20117 -2.53969,8.83865 -10.19908,42.6765 -11.31835,50 -1.40731,9.20828 -1.83571,10 -5.41211,10 -6.18425,0 -59.30431,8.9044 -71.35352,11.96094 -6.58884,1.6714 -12.39185,3.03906 -12.89648,3.03906 -0.50462,0 -1.08066,-4.7849 -1.2793,-10.63281 -0.2041,-6.00835 -0.90497,-10.63467 -1.61133,-10.63867 -0.6875,-0.004 -1.53125,4.62166 -1.875,10.2793 -0.59467,9.78735 -0.70449,10.10796 -2.27734,6.57812 -2.69828,-6.05557 -5.25478,-9.4636 -6.51367,-8.68554 -0.65706,0.40607 0.46488,3.98656 2.5293,8.07617 5.59218,11.07802 5.25212,17.69923 -1.52344,29.70898 -3.20432,5.67969 -3.58944,7.35919 -2.87891,12.52539 0.45134,3.28161 0.26896,7.41474 -0.4043,9.18555 -1.08218,2.84634 -2.432,3.44488 -11.64062,5.16015 -16.33327,3.04234 -16.86474,2.89003 -22.80469,-6.58007 -8.04991,-12.83399 -9.32534,-14.38756 -10.69726,-13.01563 -0.81269,0.81269 1.08154,4.85306 5.54297,11.82422 l 6.77734,10.58984 -9.55859,0.9004 c -10.90711,1.02796 -12.80079,1.56278 -12.80079,3.60742 0,1.07268 3.15332,1.2281 11.875,0.58789 7.29607,-0.53557 11.875,-0.41293 11.875,0.31836 0,0.65462 -2.42527,3.92368 -5.39062,7.26367 -7.30643,8.22948 -9.60938,11.7816 -9.60938,14.82422 0,1.4133 -1.96875,6.67626 -4.375,11.69726 -4.28132,8.93362 -5.61773,16.76019 -3.125,18.30078 0.6875,0.4249 1.25,3.87037 1.25,7.65625 0,7.34405 1.4885,11.34321 5.19922,13.97657 3.76477,2.67173 2.97527,10.77988 -2.07422,21.3164 -2.40625,5.021 -4.375,9.64586 -4.375,10.27735 0,2.49014 3.70611,0.93857 6.95899,-2.91407 8.63783,-10.23043 11.46206,-22.98667 6.78711,-30.65429 -1.37243,-2.25099 -2.4961,-6.24111 -2.4961,-8.86524 0,-2.62411 -0.80328,-7.44064 -1.78515,-10.70312 -2.55182,-8.47907 0.24598,-22.0249 5.57812,-27.00586 3.47463,-3.24579 11.20503,-17.59823 11.20703,-20.80859 5.5e-4,-0.81066 3.23437,-2.12382 7.1875,-2.91993 3.95313,-0.79612 9.23266,-1.88687 11.73243,-2.42383 l 4.54492,-0.97656 0.68554,5.10352 c 0.3765,2.80707 1.43758,5.68683 2.35938,6.39844 2.22546,1.71802 8.49914,16.78112 8.49414,20.39648 -0.005,4.11576 -2.91531,10.35718 -6.71289,14.39844 -5.55629,5.91283 -3.00384,8.3335 3.44141,3.26367 4.66861,-3.67233 6.51427,-7.83566 8.36523,-18.86523 1.46267,-8.7158 1.4014,-10.06568 -0.66602,-14.6504 -1.25249,-2.77753 -3.32373,-5.99806 -4.60351,-7.15625 -2.65081,-2.39895 -3.09714,-8.30576 -0.76563,-10.14453 0.85938,-0.67777 5.78125,-2.23022 10.9375,-3.44922 5.15625,-1.21901 18.9375,-4.85457 30.625,-8.08007 11.6875,-3.22549 26.59375,-6.87582 33.125,-8.11133 6.53125,-1.23551 13.65191,-2.96823 15.82227,-3.85156 3.61176,-1.46999 4.00054,-1.39372 4.60352,0.9121 0.36234,1.38562 1.39988,2.27536 2.30468,1.97657 1.06819,-0.35275 1.90238,-3.79727 2.37891,-9.82031 0.72237,-9.13054 1.40512,-12.2832 6.25585,-28.88086 l 2.44141,-8.35352 6.78516,-1.4082 c 3.73139,-0.77464 9.31755,-2.69211 12.41406,-4.25977 4.40598,-2.23058 5.77014,-2.48541 6.27344,-1.17383 0.35373,0.92177 1.5867,1.67578 2.74023,1.67578 1.9076,0 2.03628,-1.93326 1.42383,-21.38086 -0.3701,-11.76005 -0.37471,-29.33819 -0.01,-39.0625 l 0.66407,-17.68164 10.94921,0.0859 c 12.34287,0.0959 17.45313,2.21798 17.45313,7.24805 0,1.59549 1.96316,8.60378 4.36133,15.57422 2.5399,7.38238 4.88835,17.34717 5.62695,23.86719 2.43734,21.51574 -2.55071,64.82192 -9.41016,81.70312 -4.64278,11.42599 -20.2668,31.8322 -27.10351,35.39844 -4.20274,2.19228 -5.50868,4.5481 -6.51172,11.74804 -0.81626,5.8593 0.89578,10.7502 2.75781,7.87891 0.57431,-0.88559 1.64871,-1.07695 2.63282,-0.46875 1.16354,0.71911 1.24728,1.28456 0.27929,1.88281 -2.00476,1.23901 -1.69531,5.21486 0.58203,7.49219 4.56583,4.56584 14.37794,0.58191 20.48633,-8.31836 2.85035,-4.15312 19.43626,-18.4668 21.39844,-18.4668 0.43502,0 1.11672,7.17188 1.51562,15.9375 0.3989,8.76563 1.68052,19.59375 2.84766,24.0625 4.44525,17.02004 13.87365,30.59284 26.13672,37.62696 9.8476,5.64862 16.48626,4.6009 24.69922,-3.89844 1.64936,-1.70688 4.70048,-4.01099 6.78125,-5.12109 4.67668,-2.49505 8.55113,-10.2169 11.29687,-22.50977 2.54231,-11.38207 2.90337,-47.75596 0.59375,-59.84766 -2.77464,-14.5262 -10.45578,-45.54449 -12.07226,-48.75 -0.86673,-1.71875 -2.27903,-5.375 -3.13868,-8.125 -6.44494,-20.61778 -28.29871,-68.78981 -46.5625,-102.63476 -5.23381,-9.69889 -9.88917,-19.61591 -10.34374,-22.03906 -1.20027,-6.39794 -5.1833,-12.25975 -9.41602,-13.85743 -2.02848,-0.76566 -3.6875,-1.76412 -3.6875,-2.21875 0,-1.09897 21.7306,-7.94139 34.75195,-10.94336 5.70713,-1.31574 10.74905,-2.76661 11.20508,-3.22265 0.8419,-0.8419 0.58985,-1.29779 -4.39258,-7.95703 l -2.80859,-3.75586 14.51367,-0.90625 c 12.92347,-0.80749 29.44857,-0.10861 64.23047,2.71679 15.61949,1.26881 8.74659,-1.61372 -9.375,-3.93164 -11.96834,-1.53088 -23.74234,-1.98493 -44.6875,-1.72656 -18.9703,0.23401 -28.88392,-0.0949 -29.77539,-0.98633 -2.65897,-2.65896 7.48005,-8.98935 21.84765,-13.64062 21.48365,-6.95492 71.02217,-17.97012 81.13672,-18.04102 3.24831,-0.0228 6.74647,-2.00548 5.58594,-3.16601 -2.27906,-2.27906 -50.14709,6.70551 -75.7793,14.22265 l -16.67187,4.88868 6.62891,-6.71289 c 3.6462,-3.69208 7.54794,-6.7129 8.66992,-6.7129 1.40962,0 2.07288,-1.15878 2.14648,-3.75 0.0614,-2.16079 -0.53602,-3.75 -1.4082,-3.75 -1.53987,0 -36.55284,-69.92219 -42.71484,-85.30273 -2.11496,-5.27899 -4.97615,-9.83262 -7.65821,-12.1875 l -4.28125,-3.75977 5.625,0 c 5.52817,0 14.46092,-3.23054 14.46094,-5.23046 0,-1.39661 -1.0781,-1.2681 -6.875,0.82031 -2.75,0.99072 -6.27894,1.82527 -7.8418,1.85547 -2.65866,0.0513 -2.51819,-0.35492 2.18946,-6.31055 7.18078,-9.08436 4.72895,-10.33129 -3.12305,-1.58789 -3.61934,4.03023 -7.03316,6.89187 -7.58399,6.35742 -1.22712,-1.1906 -1.28323,-28.10864 -0.11718,-56.03906 0.82759,-19.82345 0.75093,-20.90791 -1.73047,-24.0625 -1.42918,-1.8169 -3.50815,-3.30274 -4.61914,-3.30274 z m 26.07422,225.0293 c 0.99283,0.54788 1.78778,1.5297 2.31054,2.03125 1.50854,1.49795 -1.45153,1.04898 -2.51172,1.04883 -1.05942,-8.9e-4 -3.83497,0.46097 -2.13085,-1.11719 0.76259,-0.85537 1.94712,-1.71932 2.33203,-1.96289 z m -8.13477,0.42969 c 1.01817,-0.11894 -0.45363,1.09884 -4.48047,3.76367 -2.74585,1.81711 -8.51147,4.13242 -12.8125,5.14648 -5.02739,1.18535 -8.43221,1.83503 -9.69801,1.82908 -1.51874,0.29097 -2.16104,0.33618 -3.36713,0.44978 -1.6247,0.19678 -1.70818,0.65037 -2.88015,0.65474 -1.71875,0 -2.42187,-0.2841 -1.5625,-0.63086 0.42969,-0.17338 0.99609,-0.25977 1.5625,-0.25977 1.73499,-0.2445 2.52548,-0.39334 4.42327,-0.68111 1.40151,-0.29687 5.24831,-1.92366 10.57673,-3.77977 6.53125,-2.27511 13.42188,-4.75452 15.3125,-5.51172 1.48616,-0.59521 2.46298,-0.92641 2.92578,-0.98047 z m 10.73438,6.09375 c 1.90108,0.0897 2.92401,0.84966 4.68359,2.72266 1.66162,1.7687 2.78332,3.38884 2.49414,3.60156 -0.6948,0.51111 -17.76739,4.61269 -24.90039,5.98242 -14.80084,2.84216 -14.98881,2.79753 -6.84766,-1.66016 4.13957,-2.26663 9.21188,-5.32305 11.27344,-6.79101 2.06158,-1.46798 6.27086,-3.04749 9.35352,-3.50977 1.24358,-0.18648 2.23793,-0.3085 3.07031,-0.34375 0.31214,-0.0132 0.60146,-0.0148 0.87305,-0.002 z m -32.08008,6.375 c 0.13839,0.006 0.22566,0.0225 0.2539,0.0508 0.22597,0.22598 -3.5612,2.18754 -8.41406,4.35742 -4.85287,2.1699 -9.14264,4.78181 -9.53516,5.80469 -0.3925,1.02287 -1.43672,1.85937 -2.32031,1.85937 -1.1702,0 -0.96072,-1.26855 0.77539,-4.67382 2.22588,-4.36593 2.93508,-4.7777 10.73242,-6.2168 4.0181,-0.74158 7.5391,-1.22411 8.50782,-1.18164 z m 15.30078,44.60156 c 0.71145,0.0226 7.73244,15.44751 12.59766,27.67383 0.22917,0.5759 -0.0921,1.04687 -0.71485,1.04687 -1.043,0 -4.7095,-7.96599 -10.5,-22.8125 -1.27373,-3.26563 -1.89563,-5.9245 -1.38281,-5.9082 z m -1.32031,7.91406 c 0.0713,0.0105 0.14708,0.0388 0.22656,0.0879 0.60451,0.37361 1.39544,1.8135 1.75781,3.19922 0.64686,2.47359 -0.38009,3.32892 -2.02344,1.68555 -1.16864,-1.16862 -1.03061,-5.12959 0.0391,-4.97266 z m -56.48243,11.86524 c 0.0683,0.0393 0.1421,0.20312 0.22071,0.5039 0.3144,1.20313 0.3144,3.17187 0,4.375 -0.31441,1.20313 -0.57031,0.21875 -0.57031,-2.1875 0,-1.80468 0.14461,-2.80932 0.3496,-2.6914 z m 59.59961,2.85547 c 0.2148,0.0629 0.60953,0.54193 1.16211,1.49218 0.73011,1.25469 1.06403,2.54535 0.74219,2.86719 -0.32184,0.32184 -0.93656,-0.33013 -1.36523,-1.44726 -0.7539,-1.9646 -0.89705,-3.01688 -0.53907,-2.91211 z m 2.58203,6.29101 c 0.17036,0.0442 0.47521,0.77111 1.05274,2.2168 0.6695,1.67587 1.04003,3.92587 0.82226,5 -0.32569,1.60665 -0.556,1.54777 -1.29687,-0.33594 -0.49532,-1.25935 -0.86391,-3.50935 -0.82031,-5 0.0376,-1.28589 0.0718,-1.92511 0.24218,-1.88086 z m 8.2129,1.58789 c 0.59854,0.11166 1.94024,1.75127 3.38086,4.53711 1.04401,2.01891 1.35403,3.66992 0.68945,3.66992 -1.42008,0 -2.08008,-0.95388 -3.81445,-5.51562 -0.73789,-1.94079 -0.7214,-2.77825 -0.25586,-2.69141 z m -3.19336,2.44922 c 0.23557,-0.23559 2.74008,5.04087 5.56445,11.72656 2.82439,6.68569 7.12861,16.79687 9.56641,22.46875 2.43781,5.67187 4.20509,10.3125 3.92773,10.3125 -0.27735,0 -2.31388,-3.39375 -4.52539,-7.54296 -2.2115,-4.14922 -5.8997,-9.1956 -8.19727,-11.2129 -3.49952,-3.07262 -4.18338,-4.53511 -4.20898,-9.01757 -0.0168,-2.94288 -0.59841,-7.81551 -1.29297,-10.82813 -0.69453,-3.0126 -1.06956,-5.67068 -0.83398,-5.90625 z m -67.99805,0.13281 0.0781,10.15625 c 0.0428,5.58571 1.27575,17.11696 2.73829,25.625 1.46254,8.50803 2.7281,16.26431 2.8125,17.23633 0.0843,0.97201 -1.53516,2.75223 -3.59766,3.95508 -5.33711,3.11263 -16.875,6.33197 -16.875,4.70898 0,-0.71972 1.76016,-7.2978 3.91211,-14.61914 2.15196,-7.32134 5.49161,-20.90625 7.42187,-30.1875 z m 76.38086,8.125 c 0.67352,0 2.37244,2.25 3.77539,5 3.04866,5.97586 1.01967,6.7326 -2.51367,0.9375 -2.7674,-4.53888 -3.06463,-5.9375 -1.26172,-5.9375 z m 5.29687,13.73438 c 0.0574,-0.0111 0.12242,-0.01 0.19532,0.002 1.26356,0.20287 4.72974,3.72201 5.77929,6.25586 1.7156,4.14183 1.51802,4.98324 -0.96484,4.09766 -1.29483,-0.46183 -5.28125,-7.94411 -5.28125,-9.91211 0,-0.26948 0.0992,-0.41001 0.27148,-0.44336 z m -11.66406,2.51562 c 1.95026,0 7.57378,7.43484 11.48633,15.18555 2.03058,4.02256 4.43405,7.31445 5.33984,7.31445 0.90578,0 3.09615,3.65625 4.86914,8.125 1.77302,4.46875 3.08853,8.125 2.92188,8.125 -0.16663,0 -2.12561,-2.81371 -4.35352,-6.25195 -2.2279,-3.43824 -7.09735,-8.92261 -10.82031,-12.1875 -5.14752,-4.51419 -6.77266,-6.77428 -6.78516,-9.43555 -0.009,-1.92476 -0.87297,-5.15913 -1.92187,-7.1875 -1.0489,-2.02836 -1.38038,-3.6875 -0.73633,-3.6875 z m 18.23047,10 c 1.0289,0 3.2952,2.8125 5.03711,6.25 2.97935,5.87947 3.0251,6.25 0.7793,6.25 -1.31303,0 -2.67637,-0.70313 -3.03125,-1.5625 -0.35487,-0.85938 -1.54748,-3.67188 -2.65039,-6.25 -1.75479,-4.10195 -1.77179,-4.6875 -0.13477,-4.6875 z m -14.78516,8.06055 c 0.38263,0.0379 0.93419,0.28205 1.72461,0.70508 3.50561,1.87613 12.90583,14.10449 17.57422,22.86328 2.13926,4.01367 3.69504,7.3981 3.45703,7.52149 -0.23801,0.12342 -4.61236,-3.99415 -9.71875,-9.1504 -9.30786,-9.39874 -13.83984,-16.04996 -13.83984,-20.30859 0,-1.18796 0.16503,-1.69408 0.80273,-1.63086 z m 20.09766,7.1582 c 0.43669,0.007 1.29818,0.22442 2.21484,0.57618 1.22223,0.46901 3.83282,4.40738 5.80274,8.75195 4.24827,9.36937 4.38923,10.32109 1.08203,7.32812 -3.88715,-3.51783 -2.93987,-0.57352 1.1875,3.69141 2.02765,2.09524 4.56529,5.91796 5.64062,8.49609 1.07535,2.57812 1.52681,4.64801 1.00196,4.59961 -4.39823,-0.40493 -6.10455,-2.97685 -11.60156,-17.49609 -3.23606,-8.54735 -5.75991,-15.69475 -5.60938,-15.88281 0.0376,-0.047 0.13568,-0.0669 0.28125,-0.0645 z m -16.52539,7.90625 6.7168,6.25 c 7.61487,7.08659 13.13999,14.64906 14.35937,19.65235 0.45594,1.87078 1.89855,3.97356 3.20703,4.67383 1.37013,0.73328 3.53833,4.75753 5.11328,9.49023 1.50406,4.51974 2.44736,8.50577 2.09571,8.85742 -0.35163,0.35164 -1.01037,-0.53092 -1.46485,-1.96289 -1.21754,-3.83612 -14.12537,-20.86328 -23.04687,-30.40039 -6.73477,-7.1995 -7.72047,-8.85848 -7.37695,-12.43359 z m -1.22266,12.0293 c 0.98856,-0.22576 3.83341,3.11953 10.75196,12.3457 17.85728,23.81345 26.73777,39.6108 29.4414,52.375 0.93206,4.40034 1.54431,8.11082 1.36133,8.24414 -0.18299,0.13334 -1.93424,-1.63819 -3.89258,-3.9375 -1.95834,-2.29929 -4.2897,-4.18164 -5.17969,-4.18164 -1.80841,0 -3.13476,-2.70757 -3.13476,-6.39648 0,-2.02674 0.4111,-2.22053 2.41797,-1.14648 5.27062,2.82074 5.34003,0.28544 0.0742,-2.71094 -2.05816,-1.17115 -3.74165,-3.1399 -3.74219,-4.375 -0.002,-5.63275 -7.65629,-18.14257 -16.20508,-26.49024 -4.83758,-4.72379 -8.79492,-9.52645 -8.79492,-10.67187 0,-1.14543 -0.87821,-3.78058 -1.95117,-5.85547 -1.07297,-2.0749 -1.7761,-4.99966 -1.5625,-6.5 0.0575,-0.40404 0.18789,-0.64712 0.41601,-0.69922 z m -105.4082,1.21289 -0.86523,15.87891 c -0.6829,12.51696 -1.30485,16.24004 -2.93555,17.58398 -5.02078,4.13787 -15.90269,7.82288 -33.31836,11.28321 -10.31196,2.04888 -27.43744,5.73107 -38.05468,8.18164 -10.61634,2.45035 -20.11121,4.45507 -21.09961,4.45507 -2.56026,0 -1.14634,-7.59842 2.27539,-12.22656 3.23614,-4.37711 4.93461,-11.17144 4.97461,-19.90234 l 0.0293,-6.50391 11.5625,-3.68945 c 19.69523,-6.28458 37.46243,-9.80377 73.24805,-14.50977 z m 128.98047,7.375 c 0.33646,-0.13527 1.26893,1.14235 2.0918,3.30664 0.68979,1.8141 0.96984,3.58093 0.62304,3.92774 -0.3468,0.3468 -0.92523,-0.29223 -1.28515,-1.42188 -0.35994,-1.12965 -0.91806,-2.89844 -1.24024,-3.92969 -0.37882,-1.21258 -0.39133,-1.80165 -0.18945,-1.88281 z m 6.32031,5.42578 c 0.49085,0.10126 2.15454,0.99619 4.01758,2.17578 3.01984,1.91202 4.33879,4.12054 6,10.04102 1.17126,4.17437 1.94546,7.72132 1.7207,7.88086 -0.22476,0.15953 -1.89978,-0.45928 -3.72265,-1.37305 -2.55122,-1.27889 -3.90437,-3.59268 -5.875,-10.04883 -1.40805,-4.61299 -2.43257,-8.51273 -2.27735,-8.66796 0.0194,-0.0194 0.0666,-0.0221 0.13672,-0.008 z m -26.08984,5.60743 c 1.00021,-0.0475 2.78518,1.68452 7.06445,6.30664 3.87533,4.18581 8.85792,11.29109 11.07227,15.78906 4.25462,8.64238 4.64469,12.49112 0.47851,4.7207 -1.34485,-2.50831 -6.55543,-8.796 -11.57812,-13.97266 -7.38821,-7.61468 -8.92874,-9.86422 -8.07422,-11.77929 0.29158,-0.65346 0.58247,-1.04287 1.03711,-1.06445 z m -2.89258,7.66601 c 3.15477,-0.35353 16.24253,16.88434 24.65039,32.82227 1.84566,3.49863 4.19956,6.13369 5.85352,6.54882 3.61041,0.90615 7.27081,6.16384 9.17968,13.1875 0.84083,3.09375 2.0759,6.79913 2.74414,8.23438 1.36294,2.92736 0.9037,10.03364 -0.55273,8.55273 -0.51562,-0.52429 -0.9375,-1.86081 -0.9375,-2.96875 0,-3.44185 -8.3229,-19.57796 -12.70508,-24.63281 -2.29358,-2.64563 -5.50903,-7.4742 -7.14648,-10.73047 -2.70114,-5.37155 -7.10078,-10.09932 -18.64063,-20.02734 -3.94789,-3.39646 -5.04079,-7.36307 -2.93945,-10.67578 0.1177,-0.18555 0.28382,-0.28698 0.49414,-0.31055 z m 35.34766,7.55859 c 2.29362,0 7.9124,5.37388 8.63671,8.25977 0.45349,1.80749 0.65651,3.44506 0.45118,3.64063 -0.20534,0.19555 -2.12916,-1.13543 -4.27539,-2.95899 -3.58713,-3.04784 -6.75906,-8.94141 -4.8125,-8.94141 z m -33.07422,6.25 c 1.12681,0 12.96373,14.51375 16.63476,20.39649 1.72717,2.76775 1.87953,3.90445 0.71094,5.3125 -1.92928,2.32455 -6.18164,2.31677 -6.18164,-0.0117 0,-0.99206 -3.12567,-5.18098 -6.94531,-9.30664 -6.44484,-6.9612 -6.88324,-7.82024 -6.10938,-11.94531 0.45865,-2.44478 1.30928,-4.44532 1.89063,-4.44532 z m 36.01172,3.75 c 2.00982,0 8.90234,8.74358 8.90234,11.29297 0,3.02424 0.19199,3.06885 -4.50586,-1.03125 -3.74447,-3.26804 -6.74038,-10.26172 -4.39648,-10.26172 z m -39.50391,7.97852 c 0.52364,-0.0662 1.18043,0.48879 2.43945,1.60547 3.27976,2.90895 10.96789,14.77375 10.96289,16.91797 -0.003,1.1153 -1.99103,1.62576 -6.36133,1.63476 -3.49689,0.007 -6.52449,-0.27457 -6.72851,-0.625 -0.20401,-0.35044 -1.06797,-3.77829 -1.91797,-7.61914 -1.20685,-5.45307 -1.21444,-7.59846 -0.041,-9.79101 0.7324,-1.36848 1.12285,-2.05684 1.64649,-2.12305 z m 41.95703,3.27148 c 1.94277,8e-5 7.92747,9.19063 8.57227,13.16407 0.81305,5.01024 0.72454,5.06247 -3.16602,1.82031 -2.69829,-2.24859 -7.29339,-14.98447 -5.40625,-14.98438 z m -46.89453,5.43946 c 0.65703,0.006 2.19688,8.68115 3.39648,19.91406 0.96354,9.02239 1.17758,20.26107 0.59961,31.52148 -0.49402,9.625 -1.26493,19.97991 -1.71289,23.01172 -0.78445,5.3091 -0.87088,5.40129 -2.34961,2.5 -0.97487,-1.91273 -1.78889,-11.90957 -2.22851,-27.38672 -0.3808,-13.40625 -1.12554,-27.25507 -1.65625,-30.77539 -0.7693,-5.10283 -0.50884,-7.25307 1.28906,-10.60547 1.24032,-2.31269 2.30418,-5.33888 2.36328,-6.7246 0.0425,-0.9971 0.14721,-1.45649 0.29883,-1.45508 z m 26.96289,6.11914 c 0.64849,-0.0248 1.80745,0.35561 3.47461,1.15234 2.45432,1.17292 5.03079,4.63553 8.44336,11.34766 2.70123,5.31302 4.66912,9.90314 4.37305,10.19922 -1.07287,1.07286 -4.33225,-2.48593 -6.42579,-7.01563 -1.17756,-2.54786 -4.21006,-6.92226 -6.73828,-9.7207 -3.51382,-3.88939 -4.55364,-5.90833 -3.12695,-5.96289 z m -5.08203,2.61523 c 2.79237,0.27253 8.10621,5.43307 10.89453,10.93555 2.95449,5.8304 2.98827,6.14062 0.69336,6.14062 -1.36773,0 -2.8695,1.22552 -3.45898,2.82227 -0.92222,2.49797 -1.57863,1.72521 -5.72852,-6.73242 -4.9969,-10.18385 -5.41057,-11.74643 -3.42969,-12.97071 0.28128,-0.17382 0.63039,-0.23424 1.0293,-0.19531 z m 28.53125,2.25977 c 1.63097,0.0145 6.68164,8.21887 6.68164,11.16211 0,4.17056 -0.0453,4.20435 -2.83594,2.09179 -1.81453,-1.37362 -5.17813,-12.09141 -4.125,-13.14453 0.0758,-0.0758 0.17057,-0.11034 0.2793,-0.10937 z m -37.57031,1.0664 c 3.32185,0 6.53151,4.1056 10.85547,13.88282 l 3.05078,6.89453 -3.62696,2.08203 c -2.68178,1.53912 -3.74152,1.68246 -4.06445,0.54883 -1.79344,-6.29555 -5.09616,-13.99364 -7.56445,-17.63086 -3.20143,-4.71759 -2.95475,-5.77735 1.34961,-5.77735 z m -20.52735,2.72266 c 0.0421,-0.01 0.082,-0.008 0.1211,0.006 0.68774,0.24964 0.93775,4.31709 1.53515,16.26758 0.97692,19.54253 0.83346,21.44357 -1.51367,19.98437 -0.96258,-0.59843 -1.82113,-6.39636 -2.36133,-15.95507 -0.69175,-12.24013 -0.49654,-15.68798 1.05664,-18.65235 0.49598,-0.94659 0.86765,-1.58219 1.16211,-1.65039 z m 13.90039,0.0195 c 0.26093,0.0376 0.66121,0.32545 1.22657,0.79102 1.10676,0.91141 3.23662,5.33912 4.73437,9.83984 1.49775,4.50073 3.77932,9.23831 5.07031,10.5293 3.64571,3.64571 3.081,6.45832 -1.11328,5.53711 -2.17204,-0.47708 -4.38417,-0.0714 -5.9375,1.09179 -2.29851,1.72127 -2.13656,1.80181 2.27344,1.11329 4.44101,-0.69338 5.13194,-0.34164 10.625,5.39843 3.2313,3.37661 6.6205,7.57404 7.53125,9.32813 1.38074,2.65925 1.37044,3.8877 -0.0606,7.39453 l -1.71679,4.20508 -3.90235,-6.91602 c -5.01933,-8.89376 -11.79401,-16.05469 -15.1875,-16.05469 -2.52681,0 -2.66473,-0.59914 -2.67773,-11.5625 -0.008,-6.35937 -0.38159,-13.8125 -0.83203,-16.5625 -0.50621,-3.09047 -0.60726,-4.21543 -0.0332,-4.13281 z m 46.99414,11.00781 c 0.54855,0 1.89369,0.99145 2.99024,2.20313 1.57553,1.74092 1.99414,5.14393 1.99414,16.22266 0,7.71073 -0.43841,14.29165 -0.97461,14.62304 -2.22255,1.37361 -3.875,-2.75528 -3.875,-9.68164 0,-6.42547 0.27458,-7.27935 2.11719,-6.57226 1.9323,0.74149 1.94747,0.61761 0.16797,-1.42774 -2.06687,-2.37565 -4.11272,-15.36719 -2.41993,-15.36719 z m -18.61328,1.25 c 2.21343,0 12.13743,9.86211 13.68555,13.59961 0.80553,1.94471 1.28982,6.10778 1.07617,9.25196 -0.33866,4.98396 -0.64314,5.52697 -2.38086,4.24414 -1.09626,-0.80929 -3.11328,-4.00196 -4.48047,-7.09571 -1.36719,-3.09375 -4.61804,-7.49658 -7.22461,-9.78515 -4.24451,-3.72669 -4.59437,-4.47698 -3.35937,-7.1875 0.75841,-1.66455 1.96598,-3.02735 2.68359,-3.02735 z m -6.71093,8.75 c 2.89655,0 9.30623,6.39242 12.23242,12.19922 1.5989,3.17291 1.7441,4.64872 0.6582,6.67774 -0.76683,1.43283 -1.05397,3.96052 -0.63867,5.61523 0.41479,1.65472 0.60295,2.97033 0.41797,2.92383 -2.61688,-0.65829 -5.93087,-3.23009 -6.90235,-5.35547 -0.67503,-1.47681 -3.83292,-5.58063 -7.01757,-9.11914 -3.18467,-3.53852 -5.79102,-6.96734 -5.79102,-7.61914 0,-1.98275 4.41822,-5.32227 7.04102,-5.32227 z m -19.10938,13.75 c 3.39645,0 5.11992,1.75106 11.26172,11.44141 3.56103,5.61848 4.14775,7.34252 2.86133,8.41016 -1.21949,1.01208 -2.67221,0.24734 -5.89844,-3.10157 -2.35433,-2.44386 -5.82812,-5.36374 -7.71875,-6.49023 -2.63651,-1.57093 -3.4375,-3.00544 -3.4375,-6.1543 0,-3.4735 0.45162,-4.10547 2.93164,-4.10547 z m 35.2207,5.5 c 2.07905,-0.0225 4.34537,3.88489 4.32813,8.02735 -0.0245,5.87359 -1.709,8.91771 -3.1211,5.64062 -2.57728,-5.98116 -3.58451,-12.47645 -2.08007,-13.40625 0.28209,-0.17434 0.57604,-0.2585 0.87304,-0.26172 z m -36.76172,5.36133 c 0.18724,-0.0442 0.48683,0.0564 0.88868,0.27149 3.92034,2.0981 8.78767,8.61592 16.1582,21.63672 7.31772,12.92752 9.20866,11.39369 2.56445,-2.08008 -3.69182,-7.48662 -4.11102,-11.79853 -0.82812,-8.51563 0.75982,0.75984 2.15603,1.08428 3.10351,0.72071 1.11798,-0.42902 1.72266,0.23706 1.72266,1.89843 0,2.91028 2.03255,4.73438 2.7793,2.49414 0.27116,-0.81351 1.77161,0.58921 3.33398,3.11719 1.56237,2.52797 3.0756,4.5957 3.36328,4.5957 1.72541,0 -0.0744,-4.34072 -3.85156,-9.28906 -5.03495,-6.59613 -5.40605,-8.82129 -1.79492,-10.7539 3.08275,-1.64984 4.88909,-0.45084 8.76367,5.81836 2.04727,3.31254 2.43886,5.3339 1.78516,9.20312 -1.06016,6.27503 -9.29538,16.81272 -14.57813,18.6543 -2.15826,0.75238 -4.26081,1.36773 -4.67383,1.36718 -2.73023,-0.004 -11.77904,-5.94697 -16.77148,-11.01562 l -5.92774,-6.01758 1.54297,-8.99609 1.54297,-8.9961 5.1875,10.59571 c 5.66254,11.56562 11.99277,20.72089 12.75195,18.44336 0.26402,-0.79205 -0.91189,-3.28435 -2.61328,-5.53907 -1.7014,-2.25473 -6.04502,-9.64872 -9.65429,-16.43164 -4.3005,-8.08193 -5.60628,-10.99025 -4.79493,-11.18164 z m 46.64649,0.0137 c 0.0597,-0.0116 0.1227,-0.0109 0.18945,0.002 0.32042,0.0619 0.73214,0.40207 1.3125,0.98242 1.13324,1.13324 1.49435,2.94652 0.98828,4.96289 -0.4386,1.74754 -1.23987,3.17773 -1.77929,3.17773 -1.60862,0 -2.54933,-3.7372 -1.7461,-6.9375 0.35553,-1.41652 0.61744,-2.10628 1.03516,-2.1875 z m -1.75195,10.375 c 2.12364,0 2.024,3.31139 -0.23438,7.8125 -2.25065,4.48572 -4.56238,6.62775 -3.13281,2.90235 0.37699,-0.98242 1.06287,-3.79492 1.52344,-6.25 0.46058,-2.45506 1.29005,-4.46485 1.84375,-4.46485 z"
       id="path3434"
       inkscape:connector-curvature="0"
       sodipodi:nodetypes="cscsssssscccscssssssssssssscssssssssssssccssccccsssssssscssssssssssssssssscccsscssssssssssssscsscssssssssccsssssssssssssssscscccscssssssssssssssccscsccccssssssssssssssssssssssssssscccssscssscccscssccscscsssssscscccsssccccsccsscssssssscccscsssccssccccsccccsscccsccsscssccssscsssssssscccscscsccsssscsssssssssssscssssscssscscssscsssssssccccssscsscccsscssscscsssccccssssscssccccccsccsccssccsssssscsssssssssssssccsssscsssssssscscccsscsssscsssssssccscscsssssscscscssssscccsssccssscccsssccssscccscscssssssssssssscsssssccsssssssscsscssscccssscscssssscsccccccssscccsssscssssscccssssccsssss" />
  </g>
</svg>
