<?xml version="1.0" encoding="UTF-8" standalone="no"?>
<!-- Created with Inkscape (http://www.inkscape.org/) -->

<svg
   xmlns:dc="http://purl.org/dc/elements/1.1/"
   xmlns:cc="http://creativecommons.org/ns#"
   xmlns:rdf="http://www.w3.org/1999/02/22-rdf-syntax-ns#"
   xmlns:svg="http://www.w3.org/2000/svg"
   xmlns="http://www.w3.org/2000/svg"
   xmlns:sodipodi="http://sodipodi.sourceforge.net/DTD/sodipodi-0.dtd"
   xmlns:inkscape="http://www.inkscape.org/namespaces/inkscape"
   width="180.38559mm"
   height="68.656624mm"
   viewBox="0 0 639.16154 243.2715"
   id="svg4441"
   version="1.1"
   inkscape:version="0.91 r13725"
   sodipodi:docname="ic_d_ort.svg">
  <defs
     id="defs4443" />
  <sodipodi:namedview
     id="base"
     pagecolor="#ffffff"
     bordercolor="#666666"
     borderopacity="1.0"
     inkscape:pageopacity="0.0"
     inkscape:pageshadow="2"
     inkscape:zoom="0.98994949"
     inkscape:cx="300.84055"
     inkscape:cy="250.26518"
     inkscape:document-units="px"
     inkscape:current-layer="layer1"
     showgrid="false"
     inkscape:window-width="1366"
     inkscape:window-height="716"
     inkscape:window-x="-8"
     inkscape:window-y="-8"
     inkscape:window-maximized="1"
     fit-margin-top="0"
     fit-margin-left="0"
     fit-margin-right="0"
     fit-margin-bottom="0" />
  <metadata
     id="metadata4446">
    <rdf:RDF>
      <cc:Work
         rdf:about="">
        <dc:format>image/svg+xml</dc:format>
        <dc:type
           rdf:resource="http://purl.org/dc/dcmitype/StillImage" />
        <dc:title></dc:title>
      </cc:Work>
    </rdf:RDF>
  </metadata>
  <g
     inkscape:label="Layer 1"
     inkscape:groupmode="layer"
     id="layer1"
     transform="translate(-43.377098,-400.78842)">
    <path
       style="fill:#000000"
       d="m 188.05756,642.06893 c -1.88675,-1.48411 -3.43046,-3.46943 -3.43046,-4.4118 0,-2.76439 5.18531,-5.60515 10.23123,-5.60515 2.57124,0 7.73523,-1.14499 11.47552,-2.54441 7.33769,-2.74538 9.80627,-6.09555 11.16297,-15.14957 l 0.68462,-4.56897 -5.07988,0.58361 c -2.79394,0.32098 -7.55678,1.74788 -10.5841,3.17089 l -5.50422,2.58729 -2.94551,-2.76718 c -2.31774,-2.1774 -4.10387,-2.67371 -8.38057,-2.32869 -4.6235,0.373 -5.72574,1.01649 -7.3817,4.30948 l -1.94664,3.87101 -4.61586,-3.70297 c -5.68665,-4.56199 -5.83953,-6.8236 -0.55337,-8.18613 2.80895,-0.72402 4.18575,-1.89217 4.46194,-3.78575 0.2624,-1.79908 1.27979,-2.73861 2.96556,-2.73861 2.01342,0 2.26427,0.36371 1.16466,1.68866 -1.13613,1.36894 0.37309,2.10658 7.97112,3.89588 5.4849,1.29167 10.7988,1.8457 12.81091,1.33566 1.89108,-0.47935 5.50758,-1.16275 8.03669,-1.51866 4.20651,-0.59198 4.66794,-1.05884 5.41462,-5.47846 0.44894,-2.65723 0.40213,-5.50139 -0.104,-6.32034 -0.55937,-0.90509 -0.3882,-1.16018 0.4365,-0.65049 0.74623,0.46119 1.71254,0.26289 2.14737,-0.44069 0.43484,-0.70357 -0.0373,-1.59691 -1.04918,-1.98521 -2.3982,-0.92027 -4.33522,-5.93209 -5.1665,-13.3677 -0.36686,-3.28149 -1.20287,-6.93774 -1.85781,-8.125 -0.65494,-1.18725 -3.83184,-7.78365 -7.05977,-14.65865 -3.22793,-6.875 -7.5505,-15.03125 -9.60572,-18.125 -4.42212,-6.65674 -12.13015,-15 -13.85792,-15 -2.10085,0 -27.15967,-16.84699 -29.52096,-19.84688 -0.34375,-0.43672 -3.35025,-2.7592 -6.68109,-5.16108 -3.33085,-2.40187 -7.02125,-5.24494 -8.2009,-6.31794 -1.17964,-1.07299 -3.29227,-2.76049 -4.69472,-3.75 -10.81675,-7.63179 -42.28975,-38.76995 -50.870007,-50.3288 -8.433717,-11.36143 -20.947295,-24.23411 -28.615785,-29.43697 -3.265625,-2.21564 -5.9375,-4.56391 -5.9375,-5.21838 0,-3.62382 12.239872,1.39974 21.633207,8.87882 5.768095,4.59263 31.852467,28.61211 41.416295,38.13771 2.11577,2.10731 4.77313,4.35731 5.90525,5 1.80922,1.02707 11.56113,9.50942 24.33681,21.16852 18.80771,17.16393 26.14894,23.49017 38.32156,33.02328 7.49994,5.87364 8.73691,6.44717 10.625,4.92637 10.1904,-8.20806 22.8893,-8.70762 45.80784,-1.80205 8.20653,2.4727 16.14151,5.29555 17.63327,6.27299 2.36074,1.54682 2.95763,1.53184 4.60503,-0.11558 1.69031,-1.69031 2.74552,-1.62271 9.86674,0.6321 8.01198,2.53687 24.19792,5.2028 32.349,5.32811 16.23845,0.24962 45.49997,-1.71634 66.25,-4.45108 13.40625,-1.76686 35.48571,-3.87187 49.06546,-4.67779 l 24.69047,-1.4653 9.50685,-7.90402 c 11.33389,-9.42302 39.53341,-37.48128 45.57572,-45.34739 2.35757,-3.0692 5.55212,-6.94821 7.099,-8.62003 1.54687,-1.67182 2.8125,-3.7141 2.8125,-4.53841 0,-0.8243 1.11063,-2.50385 2.46808,-3.73233 1.35745,-1.22847 2.82126,-3.34632 3.25292,-4.70633 0.82067,-2.58575 3.16472,-5.64631 10.61916,-13.86514 4.32373,-4.7671 4.60466,-4.877 8.86897,-3.46965 2.4221,0.79936 5.14845,2.84476 6.05857,4.54532 1.30973,2.44728 2.63426,3.09193 6.35279,3.09193 5.47917,0 9.8795,4.42268 9.8795,9.92966 0,1.83838 0.82587,4.4344 1.83526,5.76893 1.00937,1.33452 1.85312,4.49917 1.875,7.03253 0.0219,2.53337 0.69017,6.18962 1.48513,8.125 0.79496,1.93539 1.32934,4.46056 1.1875,5.6115 -0.377,3.0592 3.60143,16.03238 4.91658,16.03238 0.61713,0 0.82092,0.78479 0.45285,1.74398 -0.91385,2.38145 1.7874,12.00602 3.36963,12.00602 0.70158,0 0.92795,0.5625 0.50305,1.25 -0.4249,0.6875 0.41885,1.25 1.875,1.25 1.45615,0 2.2999,0.5625 1.875,1.25 -0.97385,1.57571 5.11643,1.60189 15,0.0645 4.125,-0.64166 11.15625,-1.4784 15.625,-1.85943 8.49373,-0.72422 14.74107,-1.38052 26.25,-2.75766 19.38449,-2.31951 27.7202,0.52397 38.1928,13.02833 7.01698,8.37832 14.84978,15.12611 17.67093,15.22311 2.97959,0.10245 2.73214,2.30478 -0.90296,8.03675 -2.04093,3.21819 -3.71077,6.93715 -3.71077,8.26435 0,3.84539 -7.11406,10.91191 -15.97265,15.86591 -13.22858,7.39784 -27.61012,10.65884 -49.96485,11.32945 -17.20582,0.51617 -22.01857,1.40359 -17.5,3.22688 0.93343,0.37665 0.6818,0.67021 -0.625,0.72916 -2.54333,0.11475 -2.88375,2.00053 -0.625,3.46241 0.85938,0.5562 4.09375,1.64758 7.1875,2.42529 4.24723,1.06767 4.80807,1.45038 2.28974,1.5625 -5.32846,0.23723 -7.28974,1.46205 -7.28974,4.55245 0,1.98922 1.13769,3.39008 3.65985,4.5065 4.17289,1.8471 4.01255,3.7267 -0.2236,2.62118 -2.63231,-0.68698 -2.6777,-0.59994 -0.71303,1.36735 1.15402,1.15555 3.40402,2.10962 5,2.12015 1.59598,0.01 3.74553,0.56441 4.77679,1.23086 1.39468,0.90131 0.67422,1.21663 -2.8125,1.23086 -5.65784,0.0231 -6.07547,2.04027 -1.39205,6.72369 1.8125,1.8125 2.83,3.29545 2.26108,3.29545 -0.5689,0 0.0575,0.82586 1.39205,1.83525 2.35852,1.78389 2.34514,1.83635 -0.47773,1.875 -4.33487,0.0594 -2.96304,3.96664 2.29548,6.53819 2.39727,1.17231 3.65554,2.1585 2.79617,2.19152 -2.24248,0.0861 -1.93706,3.81004 0.3125,3.81004 1.03124,0 1.875,0.51887 1.875,1.15306 0,1.84534 8.73737,4.23617 16.875,4.61753 4.125,0.19332 7.5,0.41905 7.5,0.50161 0,0.0826 4.2442,0.25199 9.43156,0.37646 9.82124,0.23569 15.47802,2.50184 17.12817,6.86168 0.44022,1.16306 1.53498,2.85796 2.43283,3.76645 2.61533,2.64632 1.90816,3.97321 -2.11757,3.97321 -2.0625,0 -3.75,-0.6281 -3.75,-1.39579 0,-0.77229 -1.09766,-1.10875 -2.45726,-0.7532 -2.52566,0.66048 -2.98815,-1.46138 -0.67819,-3.11146 0.80983,-0.57849 0.77803,-1.34698 -0.0917,-2.21676 -2.66552,-2.66552 -13.82642,-4.10205 -13.38096,-1.72228 0.31967,1.70774 -5.66103,3.08421 -6.62485,1.52471 -0.37035,-0.59922 -3.04008,-0.99997 -5.93274,-0.89056 -2.89268,0.10938 -7.38069,-0.50116 -9.97338,-1.35682 -2.59267,-0.85566 -5.53451,-1.24088 -6.53741,-0.85603 -1.00292,0.38485 -1.82347,0.17657 -1.82347,-0.46286 0,-0.63943 -2.31256,-1.7853 -5.13903,-2.54639 -2.82647,-0.76109 -6.44249,-2.79025 -8.03561,-4.50925 -3.07911,-3.32241 -7.68137,-16.30415 -8.92497,-25.17494 -0.41225,-2.94065 -1.23349,-5.64571 -1.82497,-6.01127 -0.59148,-0.36555 -1.07542,-1.75645 -1.07542,-3.09088 0,-1.33442 -0.30811,-2.42622 -0.68468,-2.42622 -1.0632,0 -6.81532,6.48404 -6.81532,7.68252 0,0.58712 -1.3783,1.06748 -3.06288,1.06748 -1.68459,0 -3.55484,0.87906 -4.15611,1.95347 -0.60127,1.07442 -1.89484,2.09294 -2.87462,2.26338 -0.97976,0.17044 -3.64191,1.47057 -5.91589,2.88919 -3.33478,2.0804 -17.98927,5.14546 -27.1155,5.67135 -1.85436,0.10687 -42.28724,-1.54305 -53.12499,-2.16783 -5.15625,-0.29723 -20.20313,-0.85453 -33.4375,-1.23842 l -24.66228,-0.66641 0.63135,1.38518 c 1.04473,2.29213 -1.40325,6.18852 2.15593,4.39787 1.20312,-0.37439 2.99926,-0.17133 3.99142,0.45125 1.46059,0.9165 1.52516,1.74377 0.3393,4.34646 -0.80554,1.76797 -2.08965,3.21451 -2.85356,3.21451 -5.6884,0 -3.02678,-0.47057 -3.69575,2.8125 -0.36274,1.78021 -1.20426,2.78823 -1.8378,2.305 -0.53744,-0.40992 -0.72298,-2.15495 -1.41808,-3.042 -2.15767,-2.75351 -13.00186,-4.03523 -14.15283,-2.17291 -0.89105,1.44176 -18.73787,1.0622 -21.18557,-0.45057 -0.75605,-0.46726 -1.93713,-0.50192 -2.62463,-0.077 -0.6875,0.4249 -1.25212,0.31747 -1.25469,-0.23873 -0.009,-1.93985 -10.849,-5.50813 -14.51579,-4.77826 -7.56624,1.50606 -47.78255,-0.0244 -59.22953,-2.25406 -3.5526,-0.69197 -13.13298,-5.71987 -16.74306,-8.78695 -3.02305,-2.56835 -3.49072,-3.71057 -2.84375,-6.94544 0.42588,-2.12936 0.3514,-3.87156 -0.16549,-3.87156 -0.5169,0 -3.16243,2.18309 -5.87898,4.85131 -2.71655,2.66823 -5.61144,4.59335 -6.43308,4.27805 -0.82165,-0.31529 -2.0878,0.53645 -2.81367,1.89275 -3.20313,5.98509 -27.0204,6.76563 -36.52269,1.19691 -7.37135,-4.3199 -10.2786,-4.74962 -10.78423,-1.59402 -0.9024,5.63194 -4.5605,16.71604 -7.91298,23.97654 l -3.56768,7.72653 -6.87199,-0.70925 c -6.57851,-0.67896 -7.04738,-0.52721 -10.97968,3.55351 -2.25924,2.34449 -4.67338,5.28204 -5.36475,6.52788 -1.1955,2.15425 -1.42498,2.13304 -4.6875,-0.43326 z m 225.81601,-32.85381 c 0.41444,0.41443 0.75353,0.23218 0.75353,-0.40501 0,-0.6372 1.78061,-1.15283 3.95692,-1.14584 2.24339,0.007 6.09817,-1.76882 6.42182,-2.73738 0.4421,-1.32304 -2.41493,-0.50873 -6.16346,0.0336 -8.54593,1.23603 -12.96528,2.35242 -12.96528,3.2752 0,1.88332 1.60989,2.36775 4.375,1.31646 1.57737,-0.59971 3.20702,-0.7513 3.62147,-0.33686 z M 221.36422,598.92698 c 0.61259,-2.73865 0.49662,-3.24432 -0.43001,-1.875 -0.69787,1.03125 -1.27745,2.95313 -1.28798,4.27084 -0.0255,3.19805 0.6899,2.20032 1.71799,-2.39584 z m 364.94974,-13.12997 c 1.0706,1.0706 -2.95308,-9.67357 -5.03328,-14.68253 -1.12525,-2.70951 -2.53872,-4.0625 -4.24414,-4.0625 -1.40635,0 -2.20935,0.5625 -1.78445,1.25 0.4249,0.6875 0.16252,1.25 -0.58308,1.25 -1.13872,0 -1.19249,4.64546 -0.14679,12.68086 0.0578,0.44323 2.04546,0.36819 4.4173,-0.16675 2.37182,-0.53494 6.94039,3.29687 7.37444,3.73092 z m -15.00483,-17.97938 c -1.48405,-0.62816 -4.88486,0.42569 -8.94529,0.50185 -4.66325,0.0875 -6.81183,0.28007 -4.22113,1.10976 4.26143,1.36475 16.20143,-0.32696 14.14429,-1.1977 z M 158.24667,501.71341 c -25.82004,-24.35318 -54.3758,-50.34717 -61.195947,-55.70598 -1.760756,-1.38349 -5.738056,-4.94881 -8.838445,-7.92294 -14.351508,-13.76707 -15.304379,-14.32835 -7.188599,-4.23441 13.459946,16.7407 42.581861,44.96851 55.416821,53.7154 3.94759,2.69024 7.33723,5.53447 12.42293,10.424 1.60894,1.54688 3.4848,2.8125 4.16859,2.8125 0.68379,0 3.71303,1.96329 6.73166,4.36287 8.28616,6.58686 7.69151,5.23395 -1.51701,-3.45144 z m 355.13043,3.97139 c 16.84374,-1.41578 33.22049,-2.86291 36.39278,-3.21585 l 5.76778,-0.64171 -4.24738,-12.07513 c -4.32783,-12.30385 -4.81893,-13.986 -6.1751,-21.15144 -0.42432,-2.24197 -1.27022,-4.38454 -1.87979,-4.76127 -0.60956,-0.37673 -1.1083,-2.97713 -1.1083,-5.77867 0,-2.80153 -0.65153,-7.26834 -1.44786,-9.92623 -1.24317,-4.14937 -1.95437,-4.83252 -5.03094,-4.83252 -2.61881,0 -3.88602,0.79681 -4.70878,2.96085 -1.4565,3.83087 -6.66675,7.89379 -11.47809,8.95054 -4.81295,1.0571 -13.7876,10.05805 -21.21144,21.2736 -17.14336,25.89931 -21.12288,32.03089 -21.12288,32.54574 0,0.3118 1.26562,0.26525 2.8125,-0.10344 1.54687,-0.36868 16.59375,-1.82869 33.4375,-3.24447 z"
       id="path4462"
       inkscape:connector-curvature="0"
       sodipodi:nodetypes="csssscsscssscssssssssssscsssssssssssssssssssssssssscssssscssssssssssssssssssssssssssssssssscssssscscssssscssssscsccsssssscsssssssssscscssssssssccsssssscsssscsssccsscssssssscsssssscssssssssssssssssssssssssssssssss" />
  </g>
</svg>
