<?xml version="1.0" encoding="UTF-8" standalone="no"?>
<!-- Created with Inkscape (http://www.inkscape.org/) -->

<svg
   xmlns:dc="http://purl.org/dc/elements/1.1/"
   xmlns:cc="http://creativecommons.org/ns#"
   xmlns:rdf="http://www.w3.org/1999/02/22-rdf-syntax-ns#"
   xmlns:svg="http://www.w3.org/2000/svg"
   xmlns="http://www.w3.org/2000/svg"
   xmlns:sodipodi="http://sodipodi.sourceforge.net/DTD/sodipodi-0.dtd"
   xmlns:inkscape="http://www.inkscape.org/namespaces/inkscape"
   width="105.09978mm"
   height="38.278mm"
   viewBox="0 0 372.40081 135.63071"
   id="svg4464"
   version="1.1"
   inkscape:version="0.91 r13725"
   sodipodi:docname="ic_d_pha.svg">
  <defs
     id="defs4466" />
  <sodipodi:namedview
     id="base"
     pagecolor="#ffffff"
     bordercolor="#666666"
     borderopacity="1.0"
     inkscape:pageopacity="0.0"
     inkscape:pageshadow="2"
     inkscape:zoom="1.4"
     inkscape:cx="260.73324"
     inkscape:cy="142.12707"
     inkscape:document-units="px"
     inkscape:current-layer="layer1"
     showgrid="false"
     inkscape:window-width="1366"
     inkscape:window-height="716"
     inkscape:window-x="-8"
     inkscape:window-y="-8"
     inkscape:window-maximized="1"
     fit-margin-top="0"
     fit-margin-left="0"
     fit-margin-right="0"
     fit-margin-bottom="0" />
  <metadata
     id="metadata4469">
    <rdf:RDF>
      <cc:Work
         rdf:about="">
        <dc:format>image/svg+xml</dc:format>
        <dc:type
           rdf:resource="http://purl.org/dc/dcmitype/StillImage" />
        <dc:title></dc:title>
      </cc:Work>
    </rdf:RDF>
  </metadata>
  <g
     inkscape:label="Layer 1"
     inkscape:groupmode="layer"
     id="layer1"
     transform="translate(-142.29984,-309.17454)">
    <path
       style="fill:#000000"
       d="m 162.85713,444.20504 c -0.20395,-0.33 0.10172,-0.6 0.67927,-0.6 0.95009,0 0.93918,-0.0872 -0.11459,-0.91622 -1.07684,-0.84712 -0.95482,-0.888 1.6177,-0.54202 2.13594,0.28727 3.45862,0.0751 5.69295,-0.91327 1.60081,-0.70811 4.12874,-1.55732 5.61761,-1.88712 1.48888,-0.32981 3.78706,-1.32298 5.10706,-2.20706 1.32,-0.88407 3.345,-1.964 4.5,-2.39983 3.48759,-1.31604 15.33707,-3.64626 25.2,-4.95564 11.90731,-1.58079 27.32269,-4.10311 29.01967,-4.7483 0.75419,-0.28674 1.35829,-1.0729 1.41631,-1.84316 0.1357,-1.80152 2.05585,-3.74416 6.77164,-6.85093 5.02029,-3.30739 8.68098,-6.28204 21.92357,-17.81497 11.86186,-10.33046 13.14037,-11.59326 13.74028,-13.57148 0.57791,-1.90571 -1.50038,-1.8193 -3.3585,0.13963 -1.63162,1.72014 -3.27303,1.9135 -4.76693,0.56154 -0.26312,-0.23812 0.20753,-1.19534 -0.68342,-1.17965 -0.35624,0.006 -1.72578,0.84436 -2.22745,0.90958 -0.7483,0.0973 -1.08946,-0.21028 -1.1982,-0.44247 -0.85787,-0.38558 -9.01836,0.45442 -21.33697,1.92512 -29.68374,3.54389 -41.17962,5.92424 -60.6,12.54794 -20.25038,6.9068 -34.16858,14.4086 -43.33516,23.35735 -1.72433,1.68336 -3.28793,2.90787 -3.47466,2.72114 -0.62175,-0.62175 5.94713,-7.25825 10.6205,-10.72982 9.19733,-6.83216 22.56054,-12.65853 43.68932,-19.04856 19.46327,-5.88632 36.18711,-8.87629 62.63755,-11.19865 9.07531,-0.79682 11.71576,-1.0966 11.7789,-1.72491 0.55312,-0.20753 0.92246,-0.31896 1.24053,-0.4078 0.488,-0.13629 0.66117,-0.69441 0.66117,-0.69441 -0.0322,-0.17738 -0.0723,-0.59531 -0.37732,-0.81794 -0.25239,-0.18424 -0.73093,-0.17005 -1.13608,-0.35338 -0.17827,-0.43877 -0.75818,-0.30683 -1.70784,-0.33853 -1.52392,-0.0509 -3.54137,-0.39331 -7.71451,-0.16219 -30.99832,1.71677 -59.63112,-1.58709 -81.48526,-10.20065 -9.1547,-3.60822 -20.34996,-9.24703 -30.61072,-15.41795 -13.05518,-7.85151 -10.41833,-6.96394 5.30944,1.78717 23.20461,12.9113 36.68766,17.64634 59.27066,20.81496 13.11556,1.84024 23.05658,2.13658 42.15721,1.9527 6.84217,-0.0659 14.61885,0.55402 14.80368,-0.0533 0.19124,-0.62841 1.47546,-0.5303 2.33177,-0.15313 1.14816,0.71341 1.21135,0.003 1.17214,-0.63488 -0.0252,-0.40962 0.0737,-1.13595 0.56868,-1.3259 1.0548,-0.40477 2.93483,0.25011 3.23571,0.92702 0.37947,0.85372 1.69536,1.71712 2.72082,1.32361 1.05507,-0.40486 1.25996,-1.76723 0.35034,-2.32941 -0.35644,-0.22029 -0.42962,0.0595 -0.18338,0.70121 0.22536,0.58728 -0.57817,0.0799 -1.78563,-1.12759 -1.20745,-1.20745 -4.02743,-3.20695 -6.26662,-4.44333 -6.53838,-3.61021 -9.16469,-5.55194 -14.46154,-10.69198 -2.74466,-2.6634 -8.54966,-7.55127 -12.9,-10.86192 -4.35033,-3.31065 -8.1797,-6.62965 -8.5097,-7.37555 -0.98198,-2.21958 -5.25675,-2.97551 -19.2,-3.39524 -15.62857,-0.47047 -22.19647,-1.19726 -27.64511,-3.05919 -2.33481,-0.79786 -4.67802,-1.45066 -5.20714,-1.45066 -0.52912,0 -1.32356,-0.36153 -1.76543,-0.80339 -0.44187,-0.44187 -1.47365,-0.95853 -2.29286,-1.14814 -0.8192,-0.18961 -2.97446,-0.87707 -4.78946,-1.52769 -6.96241,-2.4958 -13.23485,-4.32078 -14.85046,-4.32078 -0.92539,0 -2.28111,0.41926 -3.0127,0.93168 -0.87092,0.61003 -1.65513,0.74983 -2.27141,0.40494 -1.58334,-0.88609 0.54635,-2.1057 4.20709,-2.40927 3.29661,-0.27338 7.30409,0.78633 17.72748,4.68774 2.475,0.92638 6.04905,1.84391 7.94233,2.03896 1.89328,0.19505 8.31933,1.29768 14.28011,2.45029 9.38642,1.81502 12.0591,2.09833 19.95767,2.11558 9.60909,0.021 18.86649,1.36408 21.33904,3.09592 0.69415,0.4862 6.19381,5.35054 12.22147,10.80964 18.24016,16.51966 28.17638,24.59733 31.05938,25.24977 4.78666,1.08326 20.47756,1.14328 27.34859,0.10462 3.69842,-0.55908 8.83541,-0.91633 11.45593,-0.79672 4.73989,0.21635 4.75372,0.21256 5.98289,-1.63878 1.1379,-1.71388 1.25795,-3.04306 1.57142,-17.4 0.27996,-12.8223 0.57987,-16.75267 1.71264,-22.44437 1.45171,-7.29423 1.71004,-7.73575 5.62852,-9.61974 2.98326,-1.43433 6.39703,-1.47424 20.12748,-0.23528 15.26043,1.37701 22.93463,0.61742 26.64113,-2.63693 1.13948,-1.00047 4.04269,-2.96594 6.45159,-4.3677 2.40889,-1.40176 5.25326,-3.36083 6.32082,-4.35349 1.06755,-0.99266 2.12955,-1.61629 2.35999,-1.38585 0.23045,0.23045 0.12059,0.71739 -0.24412,1.0821 -0.36471,0.36472 -0.54101,0.9813 -0.39178,1.37019 0.14923,0.38889 -0.61437,1.17467 -1.69689,1.74618 -7.26948,3.83786 -12.74476,7.51673 -13.40558,9.00729 -0.3276,0.73893 -1.81585,1.73971 -3.56264,2.39574 -2.52592,0.94864 -4.04296,1.07298 -9.6,0.78684 -3.63,-0.18691 -9.705,-0.88919 -13.5,-1.56061 -10.17046,-1.79941 -17.93626,-1.53992 -20.80593,0.69521 -0.47048,0.36645 -0.53706,1.08784 -0.1996,2.16294 0.27848,0.88721 0.66879,2.35561 0.86736,3.26311 0.46166,2.10988 1.01227,2.07509 3.63745,-0.22985 1.17756,-1.03391 2.28853,-1.73234 2.46882,-1.55206 0.60653,0.60654 -1.57297,3.24558 -3.56755,4.31972 l -1.97751,1.06497 -0.72208,7.27361 c -0.39715,4.00049 -1.42484,10.24361 -2.28377,13.87361 -2.24927,9.5058 -2.46847,13.86322 -0.85635,17.02323 0.70684,1.38554 1.52526,2.37078 1.81869,2.18943 0.29343,-0.18135 6.96053,-0.61083 14.81577,-0.9544 15.05066,-0.65827 18.29799,-1.23621 22.33345,-3.97475 1.12129,-0.76093 2.6601,-1.38351 3.41957,-1.38351 0.75948,0 1.5463,-0.26769 1.74852,-0.59487 0.43447,-0.703 10.94274,-9.84144 16.15564,-14.04965 2.00614,-1.61949 6.54388,-5.73015 10.08387,-9.13481 7.93939,-7.63587 12.08483,-10.49145 15.58817,-10.73791 1.41652,-0.0996 3.37919,-0.49063 4.3615,-0.86884 3.07134,-1.18251 9.60699,-2.36598 19.99549,-3.62075 5.51017,-0.66554 15.41849,-2.14649 22.01849,-3.291 6.6,-1.14451 13.86692,-2.36798 16.14872,-2.71883 3.76883,-0.5795 4.59294,-0.98529 9,-4.43164 2.6682,-2.08656 6.51612,-5.58428 8.55094,-7.77272 3.49363,-3.7574 5.55217,-5.08245 4.78336,-3.07898 -0.18995,0.495 -0.0838,0.9 0.23581,0.9 0.31964,0 0.58117,0.27 0.58117,0.6 0,0.33 -0.52678,0.6 -1.17063,0.6 -0.64385,0 -3.05906,1.86238 -5.36714,4.13863 -2.30808,2.27624 -5.8313,5.28536 -7.82937,6.68693 -1.99807,1.40157 -3.63286,2.90196 -3.63286,3.33419 0,0.43223 -0.8775,0.93669 -1.95,1.12103 -12.17728,2.09293 -26.74207,4.26158 -38.55,5.73996 -19.99928,2.50395 -24.72657,3.45346 -25.07332,5.0361 -0.1498,0.68374 -0.46341,1.69596 -0.69691,2.24938 -0.34516,0.81805 -0.11421,1.09923 0.97284,0.67136 1.95734,-0.77043 6.05215,-2.01461 1.43489,0.77836 -0.47417,0.28683 -2.6475,0.97838 -3.6375,1.25008 -1.73311,0.47564 -6.03241,3.11343 -19.09402,11.71501 -3.35828,2.21156 -9.07132,6.73406 -12.69563,10.05 -3.6243,3.31594 -6.7968,6.02897 -7.05,6.02897 -0.25319,0 -0.46035,0.31625 -0.46035,0.70276 0,0.38651 -0.4725,1.23601 -1.05,1.88777 -1.03198,1.16468 -1.00367,1.17825 1.65,0.7911 7.37534,-1.07601 12.89574,-1.13389 15.21687,-0.15954 2.12338,0.89134 2.5899,0.89318 5.58626,0.0221 1.79817,-0.52275 4.80558,-0.87736 6.68314,-0.78804 1.87755,0.0893 4.97633,-0.17802 6.88617,-0.59409 4.8091,-1.04767 12.82354,-1.12935 15.74301,-0.16045 1.80777,0.59995 3.22811,0.65393 5.64559,0.21454 2.12151,-0.3856 3.81579,-0.38294 4.9365,0.008 1.17369,0.40914 2.61797,0.37615 4.62653,-0.1057 1.60609,-0.38529 5.18272,-0.66053 7.94805,-0.61164 2.76534,0.0489 10.29288,-0.0409 16.72788,-0.19952 10.39495,-0.25624 11.96512,-0.42888 14.07686,-1.54773 2.68833,-1.42434 9.00997,-1.81981 8.58233,-0.53689 -0.13245,0.39734 -1.03245,0.92844 -2,1.18021 -1.50832,0.3925 -1.76543,0.7558 -1.80296,2.54768 -0.0411,1.96348 0.0831,2.10079 2.05362,2.26979 2.56718,0.22018 3.11546,1.42071 1.07369,2.35099 -1.18779,0.5412 -1.99945,0.49662 -3.79713,-0.20853 -1.59438,-0.62541 -3.55762,-0.80584 -6.48641,-0.59613 -2.31,0.1654 -5.955,0.36248 -8.1,0.43796 -2.145,0.0755 -5.02538,0.47897 -6.40085,0.89666 -1.94517,0.59069 -3.50695,0.60979 -7.02882,0.086 -3.30337,-0.49132 -4.97993,-0.49486 -6.19914,-0.0131 -2.25715,0.8919 -11.20251,1.85038 -18.17119,1.94701 -3.55964,0.0494 -6.23715,0.38477 -7.13051,0.89323 -2.1166,1.2047 -7.67529,1.51711 -11.76949,0.66147 -1.98,-0.4138 -4.41,-0.70351 -5.4,-0.64381 -0.99,0.0597 -4.905,0.21324 -8.7,0.3412 -3.795,0.12796 -8.08326,0.53327 -9.52947,0.90068 -2.47356,0.62842 -6.733,0.33667 -13.64762,-0.93477 l -1.87709,-0.34515 0.63767,2.00309 c 0.44822,1.408 1.62979,2.67913 3.97709,4.27859 1.83668,1.25152 6.84942,4.81688 11.13942,7.92301 4.29,3.10614 10.86456,7.54468 14.61014,9.86344 5.92397,3.66732 6.97614,4.12707 8.08588,3.53315 1.88324,-1.00787 5.16442,-1.64451 5.51898,-1.07083 0.16972,0.27463 -0.97921,0.87217 -2.5532,1.32785 l -2.8618,0.82853 3.11628,1.6027 c 1.71396,0.88149 3.33525,1.99398 3.60288,2.4722 0.34551,0.6174 2.48623,1.0494 7.38372,1.49002 3.79342,0.34128 10.94712,1.16264 15.89712,1.82523 4.95,0.6626 11.7,1.21986 15,1.23837 3.3,0.0185 8.7,0.32444 12,0.67983 3.3,0.35541 7.89,0.73025 10.2,0.83298 3.09893,0.13782 4.24751,0.41729 4.38121,1.06603 0.15966,0.77465 7.69009,4.612 9.05061,4.612 0.28668,0 0.89181,0.45055 1.34472,1.00122 1.12909,1.37282 8.27953,4.55657 9.46299,4.21343 0.52826,-0.15318 1.47726,-0.49002 2.10889,-0.74854 1.6412,-0.67171 0.62184,0.8469 -1.05982,1.5789 -1.01824,0.44323 -0.87948,0.48734 0.6614,0.21028 2.22091,-0.39935 2.52116,-0.003 0.72581,0.95766 -1.47739,0.79068 -6.0061,-0.73512 -10.63425,-3.58286 -1.63585,-1.00657 -3.27262,-1.83011 -3.63727,-1.83011 -0.36464,0 -2.44127,-0.97747 -4.61474,-2.17216 -5.08243,-2.79366 -12.85858,-4.19271 -26.18566,-4.71121 -12.88714,-0.50139 -28.12903,-1.87353 -36.9238,-3.32404 -3.89405,-0.64224 -8.03958,-1.17331 -9.21228,-1.18015 -3.15637,-0.0184 -7.48817,-2.46342 -12.713,-7.17563 -2.55485,-2.30419 -5.25485,-4.50872 -6,-4.89895 -2.07211,-1.08515 -10.82695,-7.40091 -17.9551,-12.95284 -3.52015,-2.74176 -6.68172,-4.98502 -7.02571,-4.98502 -0.34399,0 -1.28037,-0.70632 -2.08084,-1.56959 -1.2468,-1.34463 -1.83077,-1.53052 -4.07428,-1.29696 -1.44038,0.14996 -5.58888,-0.0866 -9.21888,-0.52569 -5.91706,-0.71572 -20.77847,-0.64964 -24.62198,0.10949 -1.99248,0.39353 -2.88181,3.75425 -1.80277,6.81257 1.88114,5.33173 2.82593,12.57504 3.1592,24.22018 0.21703,7.5837 0.5637,11.85 0.96291,11.85 1.08459,0 5.80264,2.48277 5.80264,3.05352 0,0.84849 -2.26909,0.64499 -4.25418,-0.38154 l -1.79458,-0.92802 0.37277,3.17802 c 0.20503,1.74791 0.47753,3.51552 0.60556,3.92802 0.32191,1.0372 2.71906,0.94239 10.91869,-0.43188 12.69609,-2.12788 33.00987,-4.09885 38.17521,-3.704 0.89339,0.0683 0.98045,0.2582 0.42513,0.92732 -0.55624,0.67024 -0.35756,1.07863 0.97654,2.00723 2.48978,1.73303 8.32789,4.35133 9.7023,4.35133 0.66096,0 1.37768,0.28467 1.59271,0.6326 0.25991,0.42055 0.86809,0.31999 1.8143,-0.3 0.78284,-0.51293 1.71876,-0.9326 2.07985,-0.9326 0.99462,0 0.0346,1.21484 -1.4257,1.80401 -1.028,0.41478 -1.07625,0.52762 -0.2386,0.55796 1.74555,0.0632 1.17604,1.23805 -0.6,1.23773 -2.84638,-5.2e-4 -9.65662,-2.95822 -14.1462,-6.1437 -1.64698,-1.16859 -2.09087,-1.18438 -15.3,-0.54414 -8.31304,0.40293 -16.15185,1.13167 -20.15545,1.87375 -3.6034,0.66792 -8.24497,1.21439 -10.31459,1.21439 -2.06961,0 -3.94431,0.29347 -4.16598,0.65215 -0.63414,1.02606 -4.23096,-2.84517 -5.59972,-6.02694 -2.12818,-4.94708 -2.74247,-12.8536 -2.30948,-29.72521 0.0254,-0.99 -0.17542,-4.59578 -0.44629,-8.01283 -0.41609,-5.24903 -0.70113,-6.42148 -1.83747,-7.55781 -1.93172,-1.93172 -7.27302,-2.42936 -26.07481,-2.42936 l -15.9,0 -6.6,6.64682 c -3.63,3.65575 -10.245,9.55097 -14.7,13.1005 -4.455,3.54951 -11.61,10.08687 -15.9,14.52746 -7.4511,7.71265 -7.98787,8.13778 -12,9.5043 -4.65613,1.58586 -11.00942,2.5959 -30.6,4.86477 -7.26,0.84081 -15.09,1.75095 -17.4,2.02253 -4.42544,0.52029 -5.71218,0.9688 -9.6,3.34625 -1.32,0.8072 -2.90813,1.47207 -3.52918,1.4775 -0.62105,0.005 -2.02441,0.56315 -3.11858,1.23939 -1.9045,1.17704 -9.48553,3.57048 -11.30924,3.57048 -0.4797,0 -1.03905,-0.27 -1.243,-0.6 z"
       id="path4487"
       inkscape:connector-curvature="0"
       sodipodi:nodetypes="cscssssssssssssssscssssssscscscsssssssscsssssssssssssssssscssssssssssssssssssssssssssssssscscssssssscsscsssssssssssssssssssssssssssscssscsssssscsssssssscsssssscssssscscscssssscsscssscssssssssssssssssssscsssssssscsccssssscssssscssssssscsscc" />
  </g>
</svg>
