<?xml version="1.0" encoding="UTF-8" standalone="no"?>
<!-- Created with Inkscape (http://www.inkscape.org/) -->

<svg
   xmlns:dc="http://purl.org/dc/elements/1.1/"
   xmlns:cc="http://creativecommons.org/ns#"
   xmlns:rdf="http://www.w3.org/1999/02/22-rdf-syntax-ns#"
   xmlns:svg="http://www.w3.org/2000/svg"
   xmlns="http://www.w3.org/2000/svg"
   xmlns:sodipodi="http://sodipodi.sourceforge.net/DTD/sodipodi-0.dtd"
   xmlns:inkscape="http://www.inkscape.org/namespaces/inkscape"
   width="88.869942mm"
   height="43.006607mm"
   viewBox="0 0 314.89349 152.38561"
   id="svg2"
   version="1.1"
   inkscape:version="0.91 r13725"
   sodipodi:docname="ic_d_eph.svg">
  <defs
     id="defs4" />
  <sodipodi:namedview
     id="base"
     pagecolor="#ffffff"
     bordercolor="#666666"
     borderopacity="1.0"
     inkscape:pageopacity="0.0"
     inkscape:pageshadow="2"
     inkscape:zoom="0.98994949"
     inkscape:cx="107.59727"
     inkscape:cy="92.557905"
     inkscape:document-units="px"
     inkscape:current-layer="layer1"
     showgrid="false"
     inkscape:window-width="1366"
     inkscape:window-height="716"
     inkscape:window-x="-8"
     inkscape:window-y="-8"
     inkscape:window-maximized="1"
     fit-margin-top="0"
     fit-margin-left="0"
     fit-margin-right="0"
     fit-margin-bottom="0" />
  <metadata
     id="metadata7">
    <rdf:RDF>
      <cc:Work
         rdf:about="">
        <dc:format>image/svg+xml</dc:format>
        <dc:type
           rdf:resource="http://purl.org/dc/dcmitype/StillImage" />
        <dc:title></dc:title>
      </cc:Work>
    </rdf:RDF>
  </metadata>
  <g
     inkscape:label="Layer 1"
     inkscape:groupmode="layer"
     id="layer1"
     transform="translate(-229.87109,-568.31986)">
    <path
       style="fill:#000000"
       d="m 406.04688,568.32031 c -1.1601,-0.0102 -2.21051,0.15484 -2.42383,0.5 -0.1751,0.28332 -1.87828,0.65892 -3.78516,0.83399 -1.90687,0.17506 -4.41141,0.72445 -5.56641,1.22265 -1.155,0.4982 -4.12463,1.65805 -6.5996,2.57617 -8.80066,3.26473 -18.55715,10.4456 -32.0254,23.57227 -9.71212,9.46581 -18.47948,17.53006 -23.17578,21.31836 -1.155,0.93168 -3.29566,2.81168 -4.75781,4.17773 -1.46214,1.36604 -3.37645,3.0236 -4.25391,3.6836 -0.87746,0.66 -3.46178,2.85858 -5.74218,4.88672 -2.28039,2.02813 -6.37321,5.62182 -9.09571,7.98437 -2.7225,2.36255 -4.94921,4.63735 -4.94921,5.05664 -10e-6,0.41929 -0.70149,1.41677 -1.5586,2.2168 -0.85712,0.80002 -2.10904,2.53547 -2.78125,3.85547 -1.54547,3.03477 -1.94429,3.27981 -5.37109,3.29101 -1.54602,0.005 -3.47939,0.26221 -4.29492,0.57227 -1.08248,0.41156 -2.26695,0.26841 -4.38868,-0.53125 -1.59846,-0.60245 -4.4564,-1.43782 -6.35156,-1.85742 -3.02533,-0.66984 -3.57437,-1.02078 -4.5,-2.87696 -0.57984,-1.16278 -1.46008,-2.29472 -1.95508,-2.51367 -0.495,-0.21894 -1.50221,-0.70855 -2.24023,-1.08984 -1.65003,-0.85251 -3.56223,-0.89694 -4.05859,-0.0937 -0.20396,0.33 -1.36792,0.58155 -2.58594,0.56055 -1.86428,-0.0322 -2.56242,-0.45704 -4.41797,-2.6875 -1.21233,-1.45727 -3.7785,-3.96776 -5.70117,-5.58008 -6.70755,-5.62481 -13.66171,-13.54953 -16.06836,-18.3086 -1.49123,-2.94886 -3.00832,-4.5316 -4.37696,-4.5664 -0.4125,-0.0105 -0.75,0.25203 -0.75,0.58203 0,0.33 0.41855,0.59961 0.92969,0.59961 0.51113,0 1.38938,1.0125 1.95313,2.25 2.6462,5.80882 10.61504,15.43316 17.96679,21.69922 3.8228,3.25825 5.13875,4.85156 4.00782,4.85156 -0.18804,0 -1.47448,-0.74289 -2.85938,-1.65039 -3.98901,-2.61393 -4.69682,-3.03654 -8.25781,-4.91016 -1.84833,-0.97249 -4.2197,-2.48966 -5.26953,-3.37304 -2.10599,-1.77207 -7.27149,-8.72818 -7.27149,-9.79297 0,-0.37059 -0.26961,-0.67383 -0.59961,-0.67383 -0.33,0 -0.59961,-0.6944 -0.59961,-1.54297 0,-0.84857 -0.38599,-1.92896 -0.85742,-2.40039 -1.09736,-1.09732 -1.54297,-1.0849 -1.54297,0.043 0,0.495 0.26961,0.90039 0.59961,0.90039 0.33,0 0.60157,0.2618 0.60157,0.58203 0,1.19507 3.04143,7.1757 4.57812,9.00195 0.87636,1.04149 2.1621,2.7276 2.85742,3.74805 0.74498,1.09332 4.21625,3.63094 8.45117,6.17969 6.37905,3.83919 8.73816,4.66897 9.11514,6.56333 0.62466,3.13903 3.74513,8.15063 4.98838,9.92495 0.57807,0.825 1.23609,2.09738 1.46289,2.82812 0.44929,1.44759 5.50386,6.17966 6.58008,6.16016 0.36604,-0.007 2.41006,-0.26429 4.54101,-0.57227 3.40978,-0.4928 4.10284,-0.4191 5.78907,0.62305 3.26276,2.01649 2.9694,3.56055 -0.67774,3.56055 -0.77854,0 -1.58316,0.26961 -1.78711,0.59961 -0.20395,0.33 -1.97502,0.59961 -3.93554,0.59961 -1.72944,0 -3.8247,1.16992 -4.87696,1.1875 -0.85518,0.13584 -1.8886,0.0124 -2.40234,0.0117 -0.76198,-10e-4 -2.29161,-0.55645 -3.40039,-1.23243 -1.10878,-0.67598 -2.45878,-1.12137 -3,-0.99023 -0.82919,0.20091 -0.79437,0.31773 0.2168,0.73828 0.66,0.2745 1.335,0.68026 1.5,0.90234 0.165,0.22209 1.1096,0.69345 2.09961,1.04688 2.25788,0.80608 4.87249,0.71414 5.81054,0.2793 0.77785,-0.33775 2.02731,-0.816 3.03906,-0.94336 9.82099,-1.23629 8.95941,-1.31127 11.13477,0.95898 l 1.98633,2.07227 -1.3125,4.06054 c -0.97612,3.02145 -2.32145,5.30943 -5.25781,8.93555 -2.17071,2.6806 -4.7688,5.64196 -5.77344,6.58203 -1.00463,0.94006 -3.75241,3.57412 -6.10547,5.85156 -2.35306,2.27743 -4.52177,4.14063 -4.81836,4.14063 -0.29659,0 -0.9286,0.53922 -1.4043,1.19922 -0.4757,0.66 -1.20871,1.19922 -1.63086,1.19922 -0.42215,0 -0.76757,0.27156 -0.76757,0.60156 0,0.33 -0.40539,0.59961 -0.90039,0.59961 -0.49501,0 -0.9013,0.20172 -0.9043,0.44922 -0.005,0.5153 -2.89084,1.95117 -3.92188,1.95117 -1.10702,0 -2.8359,2.25323 -2.34179,3.05273 0.3392,0.54883 0.61485,0.50338 1.11718,-0.18359 0.36683,-0.50167 2.11192,-1.68981 3.87696,-2.64062 3.10711,-1.67382 4.1848,-2.51361 11.48047,-8.92969 1.87621,-1.65 5.57574,-4.80728 8.2207,-7.01563 4.51359,-3.76852 6.80197,-6.54573 11.36328,-13.79883 2.67417,-4.2523 2.9038,-4.41572 4.34375,-3.07421 1.45139,1.35218 8.21941,3.78906 10.52344,3.78906 0.88056,0 2.4238,0.42515 3.42969,0.94531 1.00589,0.52017 2.39068,1.05353 3.07617,1.18555 0.68549,0.13201 2.34666,1.47903 3.6914,2.99218 1.70559,1.91923 2.98848,2.80482 4.24414,2.92969 0.99,0.0985 1.87665,0.55497 1.96875,1.01367 0.2038,1.0145 2.87191,2.33399 4.72071,2.33399 0.74281,0 1.59457,0.43429 1.89257,0.9668 0.31175,0.55705 0.40908,0.64334 0.92161,0.50295 0.0784,0.56983 0.4905,1.69406 0.4905,2.12986 0,0.54329 0.39517,1.83298 0.7168,2.57031 -0.005,0.008 -0.006,0.0253 -0.0117,0.0312 -0.17666,0.17667 0.14304,1.71989 0.71094,3.42969 0.40703,1.22547 0.78059,2.02934 1.07227,2.34179 0.0105,1.54122 0.97183,5.43643 1.66601,7.9629 1.60757,5.85076 1.65143,6.02911 1.71485,7.06445 0.049,0.8 0.1197,0.8 0.63671,0 0.76421,-1.18253 0.76421,-3.59961 0,-3.59961 -0.33,0 -0.59961,-0.45374 -0.59961,-1.00781 0,-0.55407 -0.26185,-1.83618 -0.58203,-2.84961 -0.32017,-1.01343 -0.813,-2.8588 -1.1582,-4.15039 -0.37022,-1.38516 -0.33221,-1.42367 -0.66016,-2.33789 -0.13186,-0.3648 -0.20658,-1.06982 -0.39521,-1.4355 -0.0444,-1.19635 -0.0443,-1.3709 -0.85088,-2.94732 -0.27577,-0.17043 -0.25254,-0.12627 -0.81631,-2.10896 l -0.3392,-0.75648 c 0.19247,-0.9926 -0.66429,-2.61673 -0.80152,-2.95682 -0.0328,-0.0812 -0.0264,-0.9684 -0.18074,-1.39321 0.13365,-0.045 -0.017,-0.0264 0.14558,-0.1107 0.62589,-0.32444 8.01174,-0.78089 16.41211,-1.01367 8.40037,-0.23277 15.74012,-0.67128 16.31055,-0.97656 0.57044,-0.30529 3.39323,-0.55664 6.27344,-0.55664 4.59015,0 5.57447,-0.19762 7.96679,-1.59961 1.50112,-0.87971 5.16948,-2.23757 8.15235,-3.01758 2.98288,-0.78001 6.36843,-1.67393 7.52343,-1.98633 1.15499,-0.3124 3.27272,-0.57403 4.70508,-0.58203 4.13615,-0.0227 24.75007,-7.21105 26.40821,-9.20898 0.36943,-0.44514 2.22724,-1.16211 4.1289,-1.59375 5.60338,-1.27187 12.81951,-3.51901 21.15821,-6.58985 6.91944,-2.54819 25.5478,-10.17792 30.90039,-12.65625 3.00367,-1.39074 10.44033,-4.77342 14.39843,-6.54687 1.65,-0.73929 4.75539,-2.15769 6.90039,-3.1543 2.145,-0.99662 4.98078,-2.28432 6.30079,-2.85937 6.15366,-2.68079 24.28796,-11.75359 24.29296,-12.1543 0.0103,-0.79296 -0.99359,-0.49179 -4.49414,1.34961 -1.88202,0.99 -3.79827,1.80078 -4.25976,1.80078 -0.46149,0 -0.83985,0.26961 -0.83985,0.59961 0,0.33 -0.53923,0.59961 -1.19921,0.59961 -0.66002,0 -1.20118,0.26961 -1.20118,0.59961 0,0.33 -0.32008,0.60156 -0.71289,0.60156 -0.39282,0 -3.29649,1.24275 -6.45117,2.76367 -3.15469,1.52092 -6.88266,3.27631 -8.28516,3.90039 -1.4025,0.62408 -3.83289,1.70836 -5.40039,2.41016 -1.5675,0.70181 -3.38882,1.47822 -4.04882,1.72461 -0.66,0.24639 -2.41539,0.99582 -3.90039,1.66406 -6.21594,2.79708 -8.40541,3.73633 -8.70118,3.73633 -0.17219,0 -1.45656,0.51761 -2.85547,1.15039 -4.43405,2.00577 -15.75918,6.65039 -16.21679,6.65039 -0.24189,0 -1.58547,0.50881 -2.98438,1.13086 -1.3989,0.62207 -4.16258,1.72307 -6.14258,2.44726 -1.98,0.72418 -4.51227,1.71179 -5.62695,2.19532 -3.0717,1.33246 -12.32686,4.16677 -18.27734,5.59765 -4.64904,1.11794 -5.87047,1.19788 -9.87696,0.64063 -3.09915,-0.43102 -6.02941,-0.44553 -9.0957,-0.0449 -2.4878,0.32502 -8.03226,0.90858 -12.32226,1.29687 -4.29,0.38828 -8.37362,0.91877 -9.07422,1.17774 -0.70791,0.26167 -1.5309,0.21324 -1.85157,-0.10743 -0.36935,-0.36936 -2.07065,-0.34814 -4.72656,0.0586 -2.28205,0.34948 -6.30922,0.75029 -8.94922,0.89062 -2.64,0.14034 -7.7025,0.44285 -11.25,0.67188 -3.5475,0.229 -6.44922,0.20732 -6.44922,-0.0488 0,-0.25619 0.52113,-0.91817 1.15821,-1.4707 0.63707,-0.55253 2.24293,-2.31792 3.56836,-3.92188 1.60593,-1.94339 3.23061,-3.19222 4.86914,-3.74609 9.48925,-3.20769 20.3995,-14.50985 29.12304,-30.16797 5.24266,-9.41021 7.30503,-12.9849 9,-15.59961 3.20009,-4.93656 8.92504,-17.11313 10.26172,-21.82422 0.48026,-1.69267 1.09512,-3.61734 1.36524,-4.27734 0.94186,-2.30129 2.59709,-9.01912 2.88281,-11.69922 0.15831,-1.485 0.53208,-2.95603 0.83008,-3.26953 0.95801,-1.00782 0.5777,-5.36389 -0.64258,-7.36524 -0.7109,-1.16593 -1.84167,-2.07272 -2.84766,-2.28515 -0.91774,-0.19379 -2.13791,-0.60596 -2.71093,-0.91602 -0.65201,-0.35278 -1.92194,-0.53858 -3.08203,-0.54883 z m 138.17382,52.85938 c -0.20844,-0.009 -0.44555,0.0286 -0.66211,0.11523 -0.47864,0.19154 -0.3357,0.33448 0.36329,0.36328 0.6325,0.0261 0.98648,-0.11703 0.7871,-0.3164 -0.0997,-0.0997 -0.27984,-0.15352 -0.48828,-0.16211 z m -2.39843,1.19922 c -0.20844,-0.009 -0.44751,0.0305 -0.66407,0.11718 -0.47864,0.19154 -0.33569,0.33253 0.36328,0.36133 0.6325,0.026 0.98649,-0.11508 0.78711,-0.31445 -0.0997,-0.0997 -0.27789,-0.15548 -0.48632,-0.16406 z m -2.61524,1.12695 c -0.51447,0 -0.93555,0.26961 -0.93555,0.59961 0,0.33 0.25393,0.59961 0.56446,0.59961 0.31052,0 0.73159,-0.26961 0.93554,-0.59961 0.20395,-0.33 -0.05,-0.59961 -0.56445,-0.59961 z m -2.40039,1.19922 c -0.51447,0 -0.93555,0.26961 -0.93555,0.59961 0,0.33 0.25393,0.59961 0.56446,0.59961 0.31052,0 0.73159,-0.26961 0.93554,-0.59961 0.20395,-0.33 -0.05,-0.59961 -0.56445,-0.59961 z m -2.88672,1.26172 c -0.45607,0.0168 -0.83387,0.19495 -0.92578,0.4707 -0.12256,0.36767 -0.74055,0.66797 -1.37305,0.66797 -0.6325,0 -1.15039,0.26961 -1.15039,0.59961 0,0.85083 0.72089,0.74896 3.0586,-0.43164 1.69674,-0.85689 1.84328,-1.07056 0.86523,-1.26758 -0.16186,-0.0326 -0.32258,-0.0447 -0.47461,-0.0391 z m -4.94922,2.33789 c -0.495,0 -0.89843,0.26961 -0.89843,0.59961 0,0.33 0.40343,0.60156 0.89843,0.60156 0.495,0 0.90039,-0.27156 0.90039,-0.60156 0,-0.33 -0.40539,-0.59961 -0.90039,-0.59961 z"
       id="path3347"
       inkscape:connector-curvature="0"
       sodipodi:nodetypes="csssssssssscsscssssccccssscssssssssssscssssssssscsssssccssscscscccsssssssscscscsssssscsccsccsccscscsssssccccccccsssssscssssssscsssssssssssscscsssssssssssssssssssssssccccccccscccssssssssssssssscssscsssc" />
  </g>
</svg>
