<?xml version="1.0" encoding="UTF-8" standalone="no"?>
<!-- Created with Inkscape (http://www.inkscape.org/) -->

<svg
   xmlns:dc="http://purl.org/dc/elements/1.1/"
   xmlns:cc="http://creativecommons.org/ns#"
   xmlns:rdf="http://www.w3.org/1999/02/22-rdf-syntax-ns#"
   xmlns:svg="http://www.w3.org/2000/svg"
   xmlns="http://www.w3.org/2000/svg"
   xmlns:sodipodi="http://sodipodi.sourceforge.net/DTD/sodipodi-0.dtd"
   xmlns:inkscape="http://www.inkscape.org/namespaces/inkscape"
   width="94.6269mm"
   height="45.003078mm"
   viewBox="0 0 335.29216 159.45973"
   id="svg4375"
   version="1.1"
   inkscape:version="0.91 r13725"
   sodipodi:docname="ic_d_neu.svg">
  <defs
     id="defs4377" />
  <sodipodi:namedview
     id="base"
     pagecolor="#ffffff"
     bordercolor="#666666"
     borderopacity="1.0"
     inkscape:pageopacity="0.0"
     inkscape:pageshadow="2"
     inkscape:zoom="1.979899"
     inkscape:cx="177.00538"
     inkscape:cy="24.488535"
     inkscape:document-units="px"
     inkscape:current-layer="layer1"
     showgrid="false"
     inkscape:window-width="1366"
     inkscape:window-height="716"
     inkscape:window-x="-8"
     inkscape:window-y="-8"
     inkscape:window-maximized="1"
     fit-margin-top="0"
     fit-margin-left="0"
     fit-margin-right="0"
     fit-margin-bottom="0" />
  <metadata
     id="metadata4380">
    <rdf:RDF>
      <cc:Work
         rdf:about="">
        <dc:format>image/svg+xml</dc:format>
        <dc:type
           rdf:resource="http://purl.org/dc/dcmitype/StillImage" />
        <dc:title></dc:title>
      </cc:Work>
    </rdf:RDF>
  </metadata>
  <g
     inkscape:label="Layer 1"
     inkscape:groupmode="layer"
     id="layer1"
     transform="translate(-202.054,-617.21347)">
    <path
       style="fill:#000000"
       d="m 412.25181,773.80577 c -1.47073,-2.02611 -2.43234,-4.56475 -3.80516,-10.04554 -1.0104,-4.03384 -1.83708,-7.82312 -1.83708,-8.42064 0,-0.59751 -0.7425,-1.54955 -1.65,-2.11565 -0.9075,-0.5661 -3.60236,-2.85181 -5.98858,-5.07937 l -4.33859,-4.05009 0.98291,-1.99002 c 0.5406,-1.09451 2.15547,-3.29418 3.58859,-4.88816 3.18878,-3.54669 3.33532,-4.46545 0.52495,-3.2912 -1.14441,0.47816 -2.84869,0.86938 -3.78731,0.86938 -0.93861,0 -2.82424,0.54 -4.19028,1.2 -2.63275,1.27201 -4.93039,1.53834 -5.87169,0.68061 -0.32824,-0.2991 -1.6956,-0.0158 -3.22389,0.66801 -3.07376,1.37526 -2.87414,1.56746 3.25389,3.13296 6.14631,1.57017 6.31525,1.87827 3.39102,6.18439 -1.34178,1.97586 -3.49641,4.42948 -4.78806,5.45249 -3.17537,2.51494 -3.95683,4.62116 -3.50595,9.44944 0.32328,3.46204 0.24866,3.89037 -0.64777,3.71773 -1.56089,-0.3006 -2.24238,-4.8626 -1.30814,-8.75693 0.55361,-2.30771 1.23758,-3.53025 2.46341,-4.40311 0.93335,-0.66461 2.94093,-2.73543 4.46129,-4.60183 l 2.7643,-3.39346 -3.51505,-0.65207 c -4.50116,-0.835 -6.98794,-2.16358 -7.9333,-4.23842 -0.65638,-1.44061 -0.59274,-1.86544 0.50115,-3.345 l 1.25303,-1.69481 -1.73705,0 c -0.95538,0 -2.42958,0.54476 -3.27602,1.21056 -4.46729,3.51397 -9.50282,4.33084 -16.51154,2.67852 -3.01488,-0.71078 -4.85304,-0.77124 -9,-0.29606 -2.86622,0.32843 -5.64435,0.59935 -6.17361,0.60206 -0.53757,0.003 -3.91608,3.95158 -7.65466,8.94685 -6.19716,8.28028 -10.15881,12.65807 -11.45485,12.65807 -0.29153,0 -0.98089,0.17301 -1.53192,0.38446 -0.79003,0.30315 -0.95899,0.0823 -0.79907,-1.04435 0.132,-0.92996 1.22305,-2.09539 3.12508,-3.33809 1.81943,-1.18874 3.55046,-3.00238 4.58675,-4.80566 0.91545,-1.593 3.49296,-5.03229 5.72778,-7.64286 l 4.06333,-4.7465 -4.45007,0.37227 c -15.03017,1.25734 -30.83575,1.74215 -46.75007,1.43397 -36.88462,-0.71427 -57.08966,-4.81589 -72.33222,-14.68343 -4.65799,-3.01543 -9.37401,-7.73655 -10.69255,-10.70407 -0.56835,-1.27916 -1.29028,-2.79457 -1.6043,-3.36759 -1.50854,-2.75285 0.29001,-7.43339 4.55663,-11.85814 l 2.6035,-2.7 -1.18159,-3.47625 c -2.09123,-6.15242 -0.0358,-9.75476 7.09117,-12.42818 13.42963,-5.03759 33.98398,-7.61317 55.95936,-7.01203 16.79683,0.45948 29.12659,2.56367 43.4794,7.42018 3.31133,1.12045 9.2606,2.95696 13.2206,4.08115 9.82042,2.78788 20.74906,6.47983 29.55689,9.98501 12.4549,4.9566 29.5695,13.93723 30.7445,16.13272 0.30579,0.57138 1.36714,1.2011 2.35854,1.39938 0.99141,0.19829 2.378,0.93595 3.08131,1.63926 0.93,0.93 1.45875,1.09875 1.93875,0.61875 1.65552,-1.65552 5.69466,-0.21772 8.59455,3.05936 1.54268,1.74333 2.11836,1.98317 4.80476,2.00172 2.11471,0.0146 4.01242,0.51932 6.17899,1.64338 2.99771,1.55526 3.20384,1.58252 4.98851,0.65963 1.02388,-0.52947 2.8759,-0.94867 4.11562,-0.93156 1.33061,0.0184 2.56829,-0.34757 3.02114,-0.89322 0.42192,-0.50837 1.32782,-1.1375 2.01312,-1.39805 0.71726,-0.2727 3.3906,-4.00172 6.29976,-8.78749 26.71557,-43.94892 52.49746,-72.46899 82.04302,-90.75644 4.7349,-2.9307 6.49146,-3.66443 6.06053,-2.53153 -0.11,0.28919 -3.05232,2.44571 -6.5385,4.79228 -28.67237,19.2996 -52.79538,45.79631 -77.30798,84.91505 -4.31943,6.89323 -7.85352,12.63073 -7.85352,12.75 0,1.04339 1.71271,-0.49109 4.61317,-4.13313 9.26804,-11.63761 28.77926,-32.28279 38.93798,-41.201 16.79959,-14.74815 34.24493,-26.58996 53.43853,-36.27381 6.67902,-3.3698 9.17082,-4.22824 7.38889,-2.54552 -0.48321,0.45631 -6.81857,4.41261 -14.07857,8.79178 -30.98733,18.6913 -38.7577,24.52688 -57.02724,42.82766 -7.60499,7.61799 -17.80371,18.4963 -22.66383,24.17403 -4.86012,5.67772 -9.04794,10.45377 -9.30628,10.61343 -0.25835,0.15966 -0.44288,1.35981 -0.41009,2.667 0.0464,1.85139 0.55118,2.92078 2.28354,4.83829 1.22314,1.35388 2.2239,2.8725 2.2239,3.37472 0,1.07341 -2.34591,2.08342 -4.83906,2.08342 -3.037,0 -1.91731,1.09411 1.56494,1.5292 4.01882,0.50211 4.20001,1.86215 0.21228,1.59336 -2.92371,-0.19707 -5.33816,-1.47997 -5.33816,-2.83639 0,-1.22243 -1.02781,-1.1087 -2.83627,0.31383 -2.75514,2.1672 -7.16082,0.98692 -8.51444,-2.281 l -0.71973,-1.73759 -5.81478,0.11487 c -5.03179,0.0994 -5.79124,0.24785 -5.64003,1.1025 0.30906,1.74683 -1.91781,4.84571 -7.2398,10.07481 -1.52437,1.49776 -1.5703,1.66606 -0.5436,1.99193 0.61681,0.19576 2.97192,1.83052 5.2336,3.6328 4.53958,3.61748 4.14001,2.76358 7.29606,15.59182 1.49491,6.07632 1.82239,6.78556 4.20016,9.09648 1.41836,1.37849 2.57883,2.66241 2.57883,2.85314 0,0.19074 -0.71767,0.2874 -1.59483,0.21481 -1.12092,-0.0928 -2.17966,-0.93767 -3.56293,-2.84328 z M 277.87613,736.77259 c 1.84269,-2.71175 1.37482,-3.15607 -3.33682,-3.16892 -3.26301,-0.009 -3.4201,0.0661 -4.93613,2.35699 l -1.56586,2.36618 2.53612,0.22899 c 5.83877,0.52721 5.7116,0.55827 7.30269,-1.78324 z m 8.28345,-0.13679 c 0.9075,-1.28317 1.65,-2.4439 1.65,-2.57938 0,-0.13549 -1.66799,-0.17817 -3.70664,-0.0948 -3.63508,0.14858 -3.72774,0.19489 -4.8,2.39934 -0.60135,1.23631 -1.09336,2.33462 -1.09336,2.4407 0,0.10607 1.4175,0.1871 3.15,0.18005 2.97131,-0.0121 3.2436,-0.14516 4.8,-2.34587 z m 7.83095,0.40868 c 2.58849,-3.50035 2.6084,-3.45 -1.36437,-3.45 -2.93592,0 -3.7287,0.2064 -4.03305,1.05 -0.20834,0.5775 -0.89325,1.7925 -1.52202,2.7 l -1.14323,1.65 3.31032,0 c 3.03893,0 3.42855,-0.15987 4.75235,-1.95 z m 8.81905,0.65664 c 0,-0.71135 0.63738,-2.12885 1.41641,-3.15 l 1.41641,-1.85664 -2.76641,0.17384 c -4.68704,0.29454 -5.29071,0.59536 -6.87194,3.42448 l -1.51,2.70168 4.15777,0 c 3.8578,0 4.15776,-0.0933 4.15776,-1.29336 z m 5.58034,-0.65664 c 0.55142,-1.0725 1.44437,-2.5575 1.98431,-3.3 0.9575,-1.3167 0.9381,-1.35 -0.78688,-1.35 -1.79588,0 -3.59536,1.472 -4.9028,4.01056 -1.04177,2.02272 -0.81987,2.58944 1.0139,2.58944 1.29973,0 1.91988,-0.4493 2.69147,-1.95 z m 8.88455,1.35 4.71489,0 1.52022,-3 1.52021,-3 -2.44955,0 c -3.12377,0 -4.34907,0.6762 -5.96597,3.29241 -0.71641,1.15918 -1.55055,2.10759 -1.85363,2.10759 -1.03895,0 -0.55042,-1.435 1.06119,-3.11716 l 1.61225,-1.68284 -2.66225,0.005 c -2.58883,0.005 -2.70698,0.0896 -4.28411,3.06938 l -1.62185,3.06431 1.84685,-0.36936 c 1.01577,-0.20291 3.96856,-0.36913 6.56175,-0.36913 z m -49.03611,-2.05996 c 0.86417,-1.13298 1.57122,-2.21298 1.57122,-2.4 0,-0.18702 -1.18833,-0.34004 -2.64073,-0.34004 -2.37321,0 -2.76411,0.20911 -3.85853,2.064 -1.10953,1.88053 -1.12814,2.08767 -0.20926,2.3304 2.5558,0.67512 3.62253,0.3316 5.1373,-1.65436 z m -6.58212,-0.38607 c 0.85434,-1.01532 1.55334,-2.09532 1.55334,-2.4 0,-0.30468 -1.45849,-0.55397 -3.24108,-0.55397 -3.00213,0 -3.33254,0.14376 -4.48162,1.95 l -1.24054,1.95 1.93162,0.37102 c 3.45177,0.66299 3.90358,0.55437 5.47828,-1.31705 z m 68.68891,-0.85397 1.93899,-2.7 -2.91772,0 c -2.86371,0 -2.94201,0.05 -4.22949,2.7 l -1.31176,2.7 2.29049,0 c 2.0274,0 2.51321,-0.31013 4.22949,-2.7 z m 5.49422,0.52164 c 0.33005,-0.8681 1.15176,-2.3531 1.82601,-3.3 0.67425,-0.9469 0.95346,-1.72164 0.62046,-1.72164 -0.33299,0 -0.75947,0.24923 -0.94773,0.55384 -0.18827,0.30461 -1.0817,0.71812 -1.98542,0.9189 -1.36713,0.30374 -4.34311,3.60571 -4.34311,4.81885 0,0.16963 0.95168,0.30841 2.11485,0.30841 1.73176,0 2.22355,-0.28591 2.71494,-1.57836 z m -81.67334,-0.60255 c 1.55832,-1.98108 1.56893,-2.61909 0.0436,-2.61909 -0.66,0 -1.2,0.30306 -1.2,0.67347 0,0.49011 -0.22628,0.48567 -0.83112,-0.0163 -0.66328,-0.55047 -1.08327,-0.26239 -2.07976,1.42653 l -1.24865,2.11632 2.03622,0 c 1.48511,0 2.37278,-0.42787 3.27976,-1.58091 z m 87.62498,-1.08074 c 0.70867,-1.46391 1.61025,-2.79259 2.00353,-2.95263 0.39327,-0.16004 -0.24961,-0.31229 -1.42861,-0.33835 -1.9479,-0.043 -2.26293,0.19148 -3.45,2.56835 -1.63152,3.26681 -1.62666,3.38428 0.14012,3.38428 1.11762,0 1.73942,-0.60513 2.73496,-2.66165 z m -93.25278,0.47404 c 0.80924,-0.87319 1.47135,-1.79673 1.47135,-2.05233 0,-0.45937 -3.58412,-1.46724 -3.79493,-1.06715 -0.06,0.1139 -0.71043,1.06651 -1.44535,2.11691 l -1.33622,1.9098 1.33825,0.25848 c 0.73604,0.14217 1.55364,0.29526 1.8169,0.3402 0.26326,0.0449 1.14076,-0.63272 1.95,-1.50591 z m 99.48747,0.96373 c -0.91119,-0.91118 -3.94083,-1.00107 -4.2506,-0.12612 -0.18572,0.5246 0.50686,0.75 2.30448,0.75 1.77891,0 2.37795,-0.19204 1.94612,-0.62388 z m -104.4165,-2.51629 c 1.39273,-1.87238 1.28405,-2.11811 -1.14337,-2.58544 -1.51324,-0.29134 -1.9054,-0.0712 -2.8342,1.59107 -0.86092,1.54077 -0.92132,2.03108 -0.3,2.4353 1.30792,0.85091 2.99574,0.28236 4.27757,-1.44093 z m 120.02954,-0.55566 c 0.45731,-2.28654 0.46704,-2.27433 -1.50857,-1.89473 -1.75962,0.33809 -3.37182,2.9026 -2.13965,3.40351 2.08959,0.84948 3.27458,0.35941 3.64822,-1.50878 z m -125.67271,-0.28508 c 1.66542,-2.11724 1.58915,-2.41197 -0.83088,-3.21064 -1.9647,-0.64842 -2.1687,-0.57947 -3.857,1.30347 l -1.78259,1.98808 1.90701,0.70436 c 2.78479,1.02856 3.19179,0.95852 4.56346,-0.78527 z m 120.54079,0.32249 c 0.97591,-1.56267 0.9406,-1.59431 -2.01397,-1.80489 -2.42166,-0.1726 -3.88327,0.29379 -3.88327,1.23912 0,0.39799 2.3762,1.26932 4.80567,1.76218 0.16812,0.0341 0.65932,-0.50428 1.09157,-1.19641 z m 11.20275,-0.84158 c 0,-1.65746 -0.15783,-1.79262 -1.99316,-1.70683 -2.32722,0.10878 -2.2223,0.0249 -2.74277,2.19232 -0.40026,1.66682 -0.37626,1.68344 2.16559,1.5 2.41472,-0.17425 2.57034,-0.29447 2.57034,-1.98549 z m 11.08263,0.32344 c 1.46673,-0.92759 0.42746,-1.18717 -1.18353,-0.2956 -0.8691,0.48098 -1.12087,0.83472 -0.5991,0.84171 0.495,0.007 1.29719,-0.23911 1.78263,-0.54611 z M 232.7781,727.501 c -1.91739,-0.75757 -2.84629,-0.46826 -4.26571,1.32856 l -1.39719,1.76868 1.39719,0.53666 c 1.14768,0.44081 1.74873,0.20195 3.36571,-1.33753 1.7365,-1.65329 1.84258,-1.92395 0.9,-2.29637 z m 39.06416,2.64348 c -0.39934,-1.68879 -2.44417,-4.35 -3.34246,-4.35 -0.27534,0 -1.61879,0.81 -2.98544,1.8 -1.36666,0.99 -2.98432,1.8 -3.59481,1.8 -1.22775,0 -1.27057,0.0833 -0.74578,1.45093 0.2944,0.76719 1.38895,0.94907 5.71143,0.94907 l 5.34724,0 -0.39018,-1.65 z m 8.85657,-1.39177 c -0.11592,-1.67338 -0.52092,-3.15871 -0.9,-3.30072 -0.37909,-0.14202 -2.18362,0.352 -4.01007,1.09783 -3.31109,1.35209 -3.31919,1.36176 -2.76321,3.30036 0.55041,1.91915 0.60501,1.94431 4.22082,1.94468 l 3.66321,3.7e-4 -0.21075,-3.04252 z m 5.91075,1.37119 c 0,-1.43725 -0.38577,-1.81355 -2.76199,-2.69424 -2.4565,-0.91044 -2.72195,-0.91933 -2.4,-0.0803 0.19909,0.51883 0.36199,1.73124 0.36199,2.69425 0,1.64274 0.14828,1.75092 2.4,1.75092 2.22535,0 2.4,-0.12157 2.4,-1.67058 z m 5.25,1.29241 c 1.99586,-0.53486 1.70099,-2.02183 -0.40093,-2.02183 -0.96301,0 -2.17801,-0.16388 -2.7,-0.36419 -0.71586,-0.2747 -0.94907,0.0202 -0.94907,1.2 0,1.65169 1.10493,1.97527 4.05,1.18602 z m 60.22653,-0.62587 c 0.73936,-0.90151 0.67027,-0.96363 -0.67653,-0.6082 -0.825,0.21772 -2.445,0.40368 -3.6,0.41324 -1.57842,0.0131 -1.87647,0.16184 -1.2,0.599 1.43188,0.92536 4.5765,0.69335 5.47653,-0.40404 z M 259.3449,730.2754 c -0.64057,-0.4845 -1.43317,-0.88092 -1.76133,-0.88092 -0.32816,0 -1.18082,-0.5488 -1.89481,-1.21956 -1.69234,-1.58986 -4.57425,-0.77359 -4.07046,1.15292 0.34901,1.3346 1.48058,1.67377 5.89128,1.76585 2.76087,0.0577 2.90716,-0.008 1.83532,-0.81829 z m 37.76468,0.1741 c -1.7457,-1.03067 -2.7,-1.0667 -2.7,-0.10193 0,0.55923 0.66237,0.84072 1.95,0.82867 1.77927,-0.0166 1.84493,-0.0803 0.75,-0.72674 z m -46.2883,-0.90502 c -0.17927,-0.68209 -0.90267,-1.07275 -2.06462,-1.11493 -0.98376,-0.0357 -2.45781,-0.69359 -3.27567,-1.46193 l -1.48702,-1.39698 0.66776,1.91554 c 0.40647,1.16599 1.17255,2.02237 1.9578,2.18856 0.70953,0.15016 1.83005,0.38721 2.49005,0.52678 0.66,0.13957 1.37722,0.28508 1.59383,0.32336 0.2166,0.0383 0.26964,-0.4029 0.11787,-0.9804 z m -23.19516,-1.59983 1.68346,-1.44983 -1.68322,-0.42355 c -1.30087,-0.32734 -2.0122,-0.11449 -3.13151,0.93705 -2.70396,2.54024 0.24499,3.42206 3.13127,0.93633 z m 16.01048,-0.20017 c -0.48205,-2.00939 -0.0826,-1.72828 -2.98043,-2.09739 -2.32852,-0.2966 -2.43943,-0.2394 -2.17882,1.12388 0.18232,0.95374 0.80508,1.55266 1.8534,1.78243 0.86836,0.19032 1.84883,0.43611 2.17883,0.5462 1.32638,0.44245 1.50635,0.22606 1.12702,-1.35512 z m 21.30461,-1.39964 c 4.76561,-3.18235 4.88663,-4.49849 0.59471,-6.46745 l -3.07366,-1.41006 -2.64388,1.86357 c -1.45414,1.02497 -2.87283,1.86358 -3.15264,1.86358 -0.72805,0 -0.0147,5.61232 0.78054,6.14082 1.49831,0.99575 4.02984,0.32343 7.49493,-1.99046 z m -41.53884,0.0838 1.48206,-1.16579 -1.99367,-0.37401 c -1.09652,-0.20571 -2.80086,-0.0658 -3.78742,0.31099 l -1.79376,0.68502 1.5,0.83353 c 2.03326,1.12986 2.85388,1.07809 4.59279,-0.28974 z m 14.00721,-0.0342 c 0,-0.92819 -0.4,-1.2 -1.76598,-1.2 -1.61481,0 -3.63402,-1.7411 -3.63402,-3.1335 0,-0.98299 1.07508,-0.409 1.37385,0.7335 0.23875,0.91298 0.81841,1.2 2.42345,1.2 1.85854,0 2.18018,-0.23209 2.70228,-1.95 1.17663,-3.8715 1.30735,-5.25518 0.60304,-6.38296 -0.70262,-1.12508 -0.76712,-1.12293 -3.30438,0.10976 -2.0942,1.01744 -2.66042,1.64449 -2.96866,3.28756 -0.26635,1.41976 -0.85432,2.23304 -1.95524,2.70447 -0.86589,0.37078 -1.65498,0.72262 -1.75354,0.78186 -0.0986,0.0592 -0.004,0.80658 0.21059,1.66075 0.30184,1.20267 1.01909,1.746 3.1792,2.40833 3.99288,1.2243 4.88941,1.18401 4.88941,-0.21977 z m 14.67749,-0.0431 c 3.66998,-1.37311 4.13883,-2.41685 2.17436,-4.84042 -0.86753,-1.07023 -1.74747,-1.41644 -3.6002,-1.41644 -2.3325,0 -2.46992,0.10239 -2.81869,2.1 -0.20165,1.155 -0.75722,2.41122 -1.23461,2.7916 -0.73744,0.58759 -0.6622,0.83573 0.50034,1.65 1.65604,1.15994 1.02052,1.19628 4.9788,-0.28471 z m 174.92028,-0.85922 c -1.40118,-1.49149 -3.59778,-2.03953 -3.59778,-0.89764 0,0.33 0.37509,0.6 0.83354,0.6 0.45843,0 1.47093,0.51676 2.25,1.14836 1.91857,1.55541 2.25376,1.00091 0.51424,-0.85072 z m -152.20466,-0.054 c 1.54379,-0.52602 2.79565,-1.13352 2.78191,-1.35 -0.0137,-0.21648 -0.92142,-1.40791 -2.01707,-2.64763 l -1.9921,-2.25403 -2.18293,0.91208 c -2.32785,0.97265 -2.85754,2.71433 -1.56181,5.13543 0.75377,1.40844 1.36407,1.4335 4.972,0.20415 z m -57.19311,-1.50779 c 0,-0.29469 -0.4725,-0.53949 -1.05,-0.544 -0.5775,-0.005 -1.725,-0.16579 -2.55,-0.3584 -1.45485,-0.33967 -1.44775,-0.31389 0.23577,0.85645 1.66179,1.15523 3.36423,1.17848 3.36423,0.0459 z m 10.8,1.01327 c 0,-1.34202 -0.995,-2.14908 -2.64952,-2.14908 -1.05662,0 -2.4041,-0.35316 -2.9944,-0.7848 -0.95921,-0.70138 -0.99306,-1.05253 -0.31855,-3.30387 0.80388,-2.68311 0.641,-3.33653 -0.70165,-2.81471 -1.87064,0.72702 -3.15474,6.32648 -1.66235,7.24883 1.30901,0.80901 8.32647,2.32908 8.32647,1.80363 z m 17.54754,-1.45662 c 1.14704,-1.14703 1.08574,-4.58431 -0.10654,-5.97453 -1.12913,-1.31658 -1.25646,-1.33546 -2.68677,-0.39829 -0.8258,0.54109 -1.74014,0.83629 -2.03186,0.65599 -0.59102,-0.36526 -1.92067,6.02185 -1.37053,6.5835 0.46548,0.47522 5.56749,-0.23846 6.1957,-0.86667 z m -27.29526,-2.0425 c -0.10871,-1.39209 -0.5161,-2.0579 -1.4239,-2.32714 -1.70158,-0.50467 -7.30514,0.91167 -6.23168,1.5751 0.59291,0.36644 6.48884,2.42256 7.65558,2.66978 0.0838,0.0178 0.0838,-0.84524 0,-1.91774 z m 10.43077,-0.54577 c 1.99583,-0.59796 2.41293,-1.03244 2.9672,-3.09086 0.60384,-2.24246 0.53534,-2.5047 -1.07477,-4.11481 -1.42472,-1.42472 -2.04663,-1.65432 -3.62554,-1.33854 -1.71024,0.34204 -2.00395,0.72798 -2.86186,3.76057 -0.52581,1.85868 -1.09393,3.85191 -1.26248,4.42941 -0.24668,0.84516 0.0683,1.05 1.61435,1.05 1.05646,0 2.96585,-0.31309 4.2431,-0.69577 z m 30.16274,-1.79388 2.68088,-1.88966 3.14105,1.35124 c 2.80974,1.20872 3.3841,1.27103 5.44525,0.59079 2.94132,-0.97072 3.48703,-1.57056 3.48703,-3.83292 0,-0.61744 1.03615,-0.98744 3.56721,-1.27379 l 3.56722,-0.40359 -0.11722,-4.34172 -0.11721,-4.34172 -1.85664,1.41551 c -2.21368,1.68773 -3.34132,1.77785 -4.57327,0.36551 -2.13806,-2.45112 -2.37074,-3.62776 -1.65332,-8.36062 0.78384,-5.17105 0.39609,-5.91591 -2.71677,-5.21888 -0.99,0.22168 -2.57738,0.45649 -3.52751,0.5218 -1.49839,0.10299 -1.90888,0.56455 -3.09505,3.48007 -2.24259,5.51218 -2.2845,6.46113 -0.38584,8.73826 l 1.67644,2.01062 2.29971,-1.56062 c 1.97421,-1.33974 5.13225,-2.13271 5.13225,-1.2887 0,0.14956 -1.27264,0.83487 -2.82808,1.52291 -1.55544,0.68805 -3.31474,1.69142 -3.90954,2.22971 -1.0037,0.90834 -1.14413,0.8959 -1.95284,-0.17292 -0.80868,-1.06876 -0.87172,-0.97893 -0.87615,1.24837 -0.002,1.32 0.23036,3.4125 0.51774,4.65 0.50424,2.17139 -0.007,3.0153 -0.9264,1.52822 -0.68147,-1.10265 -0.82089,-8.87822 -0.1592,-8.87822 0.33844,0 0.2989,-0.51905 -0.0957,-1.2564 l -0.6724,-1.2564 -1.39766,1.31304 c -0.90975,0.85467 -1.80654,1.18326 -2.56894,0.94128 -1.04194,-0.3307 -1.29197,0.15996 -2.26419,4.44337 -0.6011,2.64831 -1.31199,4.81511 -1.57977,4.81511 -0.76846,0 -0.57758,-1.79875 0.66728,-6.28813 1.0768,-3.88328 1.01255,-5.30003 -0.31006,-6.83652 -0.10637,-0.12357 -1.03766,0.48574 -2.06953,1.354 -1.03188,0.86828 -2.08579,1.44911 -2.34203,1.29075 -0.25623,-0.15836 -0.92753,1.84872 -1.49177,4.46018 -0.56424,2.61145 -1.33852,4.85232 -1.72062,4.97968 -1.02056,0.34019 1.04103,3.25163 2.66818,3.76807 0.92214,0.29267 1.55387,0.0995 2.09497,-0.64044 0.71977,-0.98434 0.89964,-0.92573 2.53644,0.82647 0.96896,1.03727 2.05052,1.88594 2.40347,1.88594 0.35296,0 1.84813,-0.85034 3.32261,-1.88965 z m 13.4607,-8.84805 c -0.12757,-2.2641 0.0228,-3.58901 0.39351,-3.46661 0.79862,0.2637 1.13132,5.813 0.39279,6.55152 -0.37307,0.37307 -0.65343,-0.72689 -0.7863,-3.08491 z m -59.08105,8.14672 c 1.36805,-0.58423 1.55447,-0.86366 0.9,-1.34904 -0.56229,-0.41702 -1.83656,-0.4099 -3.99703,0.0223 -2.51811,0.50377 -3.0188,0.78731 -2.43,1.3761 0.93086,0.93087 3.28081,0.90987 5.52703,-0.0494 z m 5.10143,-0.95112 c 0.95479,-0.60475 0.39707,-1.8579 -0.82687,-1.8579 -1.34732,0 -1.59523,-1.01811 -0.88771,-3.64565 0.55352,-2.05561 0.50739,-2.64861 -0.27314,-3.51109 -0.51653,-0.57076 -0.93915,-1.47014 -0.93915,-1.99862 0,-0.80154 -0.32335,-0.8659 -1.95,-0.38815 -1.97818,0.58099 -6.45,0.18184 -6.45,-0.57572 0,-0.62049 1.76402,-3.10072 4.00601,-5.63249 2.78847,-3.14891 2.49501,-1.78987 -0.40601,1.88019 -1.32,1.66993 -2.4,3.17917 -2.4,3.35388 0,0.43135 3.0322,0.40122 5.30168,-0.0527 1.44171,-0.28834 2.00364,-0.83078 2.53803,-2.44998 0.69457,-2.10457 6.6231,-8.57968 7.85544,-8.57968 0.36798,0 -0.52399,1.2825 -1.98217,2.85 -5.03938,5.41719 -6.93235,9.76222 -4.75963,10.92503 2.11513,1.13198 3.59232,0.75546 4.02158,-1.02504 0.21878,-0.9075 1.13602,-3.135 2.0383,-4.94999 0.90229,-1.815 1.83192,-4.44609 2.06585,-5.84686 0.59522,-3.56411 1.5432,-3.81865 1.12677,-0.30254 -0.43769,3.69559 0.63435,4.89254 3.36787,3.76028 0.97614,-0.40433 1.96946,-0.68537 2.20736,-0.62453 0.23791,0.0608 1.17398,-1.52269 2.08016,-3.51896 1.12083,-2.46916 2.27673,-4.01219 3.61539,-4.82628 1.08229,-0.65818 2.04831,-1.11617 2.14672,-1.01776 0.0984,0.0984 -0.83408,1.25084 -2.07221,2.56095 -1.23813,1.31012 -2.70235,3.62703 -3.25382,5.1487 -0.94554,2.60902 -0.94285,2.8208 0.0473,3.71683 1.61785,1.46413 2.92896,1.13789 4.01817,-0.99983 2.06428,-4.05147 5.80899,-10.07828 6.08842,-9.79884 0.15996,0.15996 -0.68611,2.06818 -1.88016,4.24049 -2.34902,4.27352 -2.64456,6.03254 -1.31782,7.84367 0.84255,1.15015 0.87376,1.14934 2.50373,-0.0655 0.99006,-0.73792 2.31027,-2.85885 3.29916,-5.30009 1.52069,-3.7541 3.41756,-6.69607 3.96463,-6.149 0.12543,0.12543 -0.30525,1.13959 -0.95708,2.25368 -0.65183,1.11409 -1.76876,3.59567 -2.48208,5.51462 -1.2381,3.3307 -1.24927,3.54166 -0.24625,4.64999 1.34474,1.48592 1.97187,1.43905 4.10741,-0.30703 1.29604,-1.05967 2.01305,-2.47662 2.79754,-5.52842 0.58017,-2.25695 1.21747,-4.51124 1.41623,-5.00954 0.26763,-0.67093 -0.43372,-1.18839 -2.70312,-1.99442 -1.68549,-0.59863 -2.90726,-1.24567 -2.71505,-1.43788 0.1922,-0.19221 1.45543,0.14925 2.80717,0.7588 2.74279,1.23683 3.99115,0.86054 4.85032,-1.46204 l 0.512,-1.38405 -4.9539,0.41182 c -21.45103,1.78323 -39.80139,7.22969 -46.3195,13.7478 -2.71289,2.71289 -4.44166,7.42249 -3.64545,9.93113 0.43893,1.38294 3.79936,1.81743 3.74987,0.48483 -0.0988,-2.6612 0.25585,-4.65 0.82929,-4.65 0.40104,0 0.5625,0.71952 0.40391,1.8 -0.18027,1.22832 -0.0113,1.8 0.53191,1.8 0.43784,0 0.79608,-0.25321 0.79608,-0.56271 0,-0.30949 0.4725,-0.535 1.05,-0.50113 0.5775,0.0339 1.95949,-0.14639 3.0711,-0.40057 2.67372,-0.6114 2.32008,0.90694 -0.39244,1.68487 l -1.87732,0.53841 0.95496,1.87057 c 2.39482,4.69094 3.69754,5.78315 5.52057,4.62846 z m 24.35927,-1.84258 c 0.58966,-0.65157 1.54222,-1.33389 2.11679,-1.51625 0.68118,-0.21619 1.1777,-1.21317 1.427,-2.86531 0.21029,-1.39357 0.54455,-3.54998 0.74281,-4.79202 0.48382,-3.03099 -0.55473,-4.40256 -2.37056,-3.13071 -1.83565,1.28574 -2.68669,1.10657 -3.861,-0.81284 -1.01413,-1.65758 -1.07119,-1.67318 -2.19616,-0.59999 -1.62325,1.54852 -2.85749,1.37635 -4.82034,-0.67244 -1.32846,-1.3866 -1.93425,-1.64878 -2.77281,-1.2 -1.4135,0.75648 -4.75187,0.73839 -4.75187,-0.0258 0,-1.74128 -1.11568,-0.0945 -2.6389,3.89507 -1.43199,3.75063 -1.58733,4.65036 -0.938,5.43275 1.45821,1.75704 2.91399,2.186 5.03885,1.48473 1.79529,-0.5925 2.14314,-1.0964 3.35188,-4.85557 0.74178,-2.30695 1.4735,-4.06965 1.62603,-3.91712 0.48092,0.48092 -1.04646,6.58084 -2.01975,8.06626 -0.88471,1.35024 -0.83436,1.52205 1.0009,3.41555 l 1.93246,1.99379 2.31342,-1.53095 c 1.27238,-0.84203 2.19146,-1.7283 2.04239,-1.96949 -0.14906,-0.2412 6e-4,-2.16574 0.33259,-4.27678 1.26886,-8.06828 1.91085,-7.90992 1.13599,0.2802 -0.49106,5.19036 -0.43415,6.05247 0.48273,7.31388 1.2734,1.75188 1.4777,1.77234 2.82555,0.28299 z m -31.07444,0.21653 c 1.27422,-0.34172 1.2839,-0.41006 0.33887,-2.39181 -0.64619,-1.35506 -1.38879,-2.03695 -2.2117,-2.03085 -0.9075,0.007 -1.02481,0.14489 -0.43856,0.5165 1.02697,0.651 -0.41567,1.27431 -2.94938,1.27431 -1.93638,0 -2.03143,0.15477 -1.12982,1.83945 0.6379,1.19193 3.55297,1.55339 6.39059,0.7924 z m 11.50151,-2.28791 c 1.31099,-1.31099 -0.85615,-3.90062 -3.28471,-3.92508 -1.6987,-0.0171 -1.90483,0.1866 -2.23261,2.20648 -0.23475,1.44657 -0.10474,2.39714 0.37149,2.71628 0.9717,0.65116 4.10435,0.0438 5.14583,-0.99768 z m 134.48679,0.85606 c 0,-0.33 -0.24792,-0.6 -0.55093,-0.6 -0.30301,0 -1.04551,-0.18555 -1.65,-0.41233 -0.96751,-0.36298 -1.00049,-0.29115 -0.27561,0.6 0.90032,1.10682 2.47654,1.36925 2.47654,0.41233 z m -40.2,-1.49824 c 0,-1.10229 -0.52504,-1.85633 -1.79621,-2.57966 -0.98791,-0.56215 -1.79791,-1.22688 -1.8,-1.47718 -0.002,-0.25029 -0.54379,-0.11785 -1.20379,0.29433 -0.83706,0.52275 -1.2,1.39921 -1.2,2.89786 l 0,2.14844 3,0.13689 c 2.86472,0.13071 3,0.0666 3,-1.42068 z m 8.85887,0.77487 c -0.13262,-0.39785 -1.41258,-1.34285 -2.84437,-2.1 -4.09271,-2.16428 -5.92263,-1.68282 -5.15956,1.35748 0.34342,1.36829 0.63018,1.46589 4.30649,1.46589 2.80685,0 3.86928,-0.20785 3.69744,-0.72337 z m 6.42533,0.14893 c 0.5624,-0.90997 -3.08472,-2.49849 -4.76695,-2.07627 -1.24809,0.31325 -1.39316,0.56148 -0.88407,1.51273 0.43839,0.81912 1.26568,1.13798 2.95252,1.13798 1.28891,0 2.50324,-0.2585 2.6985,-0.57444 z m 8.65752,-0.32068 c -0.85705,-0.4659 -2.34205,-0.75587 -3.3,-0.64439 -0.95795,0.11148 -2.34922,0.23348 -3.09172,0.2711 -0.7425,0.0376 -1.35,0.33841 -1.35,0.66841 0,0.35046 1.93398,0.59001 4.65,0.57598 4.34632,-0.0224 4.54823,-0.0793 3.09172,-0.8711 z m 8.89578,0.53262 c -0.19938,-0.19937 -0.71688,-0.22068 -1.15,-0.0473 -0.47864,0.19153 -0.33647,0.33371 0.3625,0.3625 0.63249,0.026 0.98687,-0.11576 0.7875,-0.31513 z m 12.7625,-0.25036 c 0,-1.41067 2.74155,-1.91123 5.09107,-0.92953 1.26124,0.52698 2.43622,0.8151 2.61105,0.64027 0.59061,-0.59061 -0.78752,-1.33127 -3.80213,-2.04343 -1.64999,-0.38979 -3.47249,-0.84969 -4.04999,-1.02201 -0.86233,-0.2573 -1.05,0.0693 -1.05,1.82713 0,1.17724 0.27,2.14043 0.6,2.14043 0.33,0 0.6,-0.27579 0.6,-0.61286 z m 23.76073,-0.0854 c 0.25043,-0.4052 -0.30131,-1.33061 -1.31459,-2.20489 l -1.74615,-1.50662 -0.1981,1.35357 c -0.11606,0.79295 0.2567,1.69826 0.9,2.18581 1.35916,1.03009 1.80834,1.06287 2.35884,0.17213 z m -95.16785,-0.02 c -0.004,-0.0999 -0.40572,-1.66669 -0.89288,-3.48169 -1.04466,-3.89202 -1.05832,-4.01148 -0.37375,-3.27 0.28943,0.3135 0.98613,1.9875 1.54822,3.72 l 1.02197,3.15 4.80451,0 4.80453,0 -0.42129,-2.55 c -0.23171,-1.4025 -0.45794,-2.55091 -0.50274,-2.55202 -0.0448,-10e-4 -0.98846,-0.63852 -2.09702,-1.41644 -1.68881,-1.18512 -2.25268,-1.30637 -3.47823,-0.74797 -2.01088,0.91622 -3.59096,0.83513 -5.279,-0.27092 -1.3185,-0.86391 -1.63087,-0.84057 -3.98733,0.29795 -2.38108,1.15041 -2.65774,1.16914 -4.02617,0.27251 l -1.4694,-0.96279 0.43707,2.91484 c 0.69362,4.6258 0.91116,4.81522 5.69063,4.95477 2.3254,0.0679 4.22479,0.0417 4.22088,-0.0583 z m 18.59164,-1.53169 c -0.0124,-1.31499 -0.47061,-1.85936 -2.25717,-2.68117 -3.80744,-1.75143 -5.5172,-0.63098 -4.54918,2.98117 0.31837,1.18802 0.74935,1.35 3.5918,1.35 3.12741,0 3.22953,-0.0524 3.21455,-1.65 z m 36.61548,1.07982 c 0,-0.3136 -0.4725,-0.8665 -1.05,-1.22865 -0.93338,-0.58533 -0.91124,-0.62102 0.19936,-0.32133 1.20132,0.32418 1.22711,0.21438 0.67059,-2.85595 -0.47494,-2.62026 -0.90202,-3.37863 -2.38063,-4.22723 -0.99102,-0.56877 -1.65658,-1.1794 -1.47902,-1.35696 0.17756,-0.17757 0.89737,0.0334 1.59957,0.46873 1.07834,0.66856 1.36571,0.65171 1.84925,-0.10843 0.31488,-0.495 0.6111,-0.63 0.65826,-0.3 0.0472,0.33 0.1467,1.15032 0.22117,1.82292 0.0745,0.67261 0.48971,2.60529 0.92273,4.29486 0.68524,2.67368 1.01752,3.11799 2.56302,3.42708 3.38301,0.67661 3.39216,0.66488 2.41645,-3.09486 -1.06743,-4.11321 -2.37267,-5.87793 -3.59633,-4.86238 -1.36802,1.13536 -1.40255,0.34281 -0.15913,-3.65232 0.65274,-2.09726 1.05927,-3.94072 0.90341,-4.09659 -0.15586,-0.15586 -1.74416,-0.62295 -3.52955,-1.03798 l -3.24616,-0.75459 -0.63902,4.55392 c -0.39912,2.84428 -0.99285,4.81265 -1.5815,5.24308 -2.57417,1.88228 1.15319,8.42846 4.90753,8.61883 0.4125,0.0209 0.75,-0.21855 0.75,-0.53215 z m 13.8,-1.52982 c 0,-0.825 -0.21579,-1.5 -0.47952,-1.5 -0.26374,0 -0.373,-0.91245 -0.24281,-2.02767 0.22827,-1.95522 0.15428,-2.03767 -2.07048,-2.30703 -1.31388,-0.15908 -2.50093,0.004 -2.75719,0.37768 -0.30942,0.45177 -0.62725,0.38129 -1.01738,-0.2256 -1.1124,-1.73048 -1.12773,-0.25223 -0.031,2.98749 1.13537,3.3538 1.9413,3.98882 5.24835,4.13533 1.05594,0.0468 1.35,-0.26692 1.35,-1.4402 z m -26.13949,-0.23611 c 0.18224,-0.29486 -0.0747,-1.68698 -0.571,-3.09359 -1.26279,-3.57913 -0.61798,-3.70092 1.02107,-0.19285 0.75101,1.60741 1.42711,3.0238 1.50244,3.14755 0.20225,0.33222 3.18835,0.27363 3.53126,-0.0693 0.16186,-0.16186 -0.0324,-1.51576 -0.4317,-3.00867 -0.82996,-3.10312 -3.32705,-5.17582 -4.66699,-3.87381 -0.59602,0.57916 -0.66612,-0.004 -0.34513,-2.87323 0.22153,-1.98 0.62721,-4.47538 0.9015,-5.54529 0.57475,-2.24191 0.44328,-2.37339 -2.90919,-2.90948 l -2.49277,-0.39861 0,2.04593 c 0,1.12527 -0.38594,3.52227 -0.85763,5.32669 -0.47169,1.80441 -0.67419,3.46248 -0.45,3.68458 0.22419,0.22211 1.21763,0.50822 2.20763,0.63578 1.53664,0.19801 1.63485,0.30637 0.6712,0.7406 -1.11531,0.50258 -4.34112,-0.83738 -8.27765,-3.43843 -1.55016,-1.02427 -1.61927,-1.02103 -1.9727,0.0925 -0.20144,0.63469 -0.0514,2.40446 0.33346,3.93282 0.38484,1.52836 0.5324,2.94616 0.32791,3.15065 -0.87122,0.87122 1.15217,1.98222 3.61007,1.98222 3.1229,0 3.713,-0.88247 2.35112,-3.51604 -1.01205,-1.9571 -1.2395,-3.33777 -0.47167,-2.86322 0.25946,0.16035 1.10464,1.59378 1.87818,3.18541 1.86428,3.8359 4.08709,5.5138 5.11059,3.85774 z m 38.39287,-0.58847 c 0.26576,-0.43 -2.75945,-1.74202 -10.90338,-4.72875 -0.49809,-0.18267 -0.75,0.35109 -0.75,1.58914 0,1.63086 0.20652,1.86564 1.65,1.87577 0.9075,0.006 3,0.38722 4.64999,0.84635 3.62796,1.00951 4.92499,1.11066 5.35339,0.41749 z m 9.77465,-0.45953 c 0.16755,-0.50266 -2.20169,-2.01589 -3.15627,-2.01589 -0.74062,0 -0.13891,1.81761 0.77823,2.35085 1.18664,0.68991 2.07828,0.56431 2.37804,-0.33496 z m -63.77549,-1.75414 c 0.51604,-0.51604 1.23925,-0.75223 1.60713,-0.52486 0.43431,0.26841 0.55684,0.0188 0.3494,-0.71175 -0.17572,-0.61883 -0.48862,-1.93514 -0.69535,-2.92514 -0.44928,-2.15164 -5.14062,-5.36276 -6.9813,-4.77854 -1.37395,0.43607 -1.3831,0.63628 -0.18055,3.95311 0.52354,1.44399 1.01735,3.00028 1.09737,3.45843 0.17071,0.97741 2.05614,2.467 3.12258,2.467 0.40835,0 1.16467,-0.42221 1.68072,-0.93825 z m 59.02376,-0.11175 c -0.15952,-0.95 -1.96081,-2.47552 -2.98587,-2.52873 -0.86631,-0.045 -1.20918,2.53468 -0.40464,3.04445 1.49653,0.94825 3.58302,0.63088 3.39051,-0.51572 z m -65.8605,-0.46903 c 0.59629,-0.71849 0.61232,-1.42109 0.0735,-3.21962 -0.37909,-1.26531 -0.68926,-2.98069 -0.68926,-3.81195 0,-2.05491 -2.52396,-3.74639 -4.22878,-2.83399 -0.6691,0.35809 -1.71254,0.49365 -2.31877,0.30125 -1.0657,-0.33825 -1.06495,-0.2369 0.0227,3.05989 0.61868,1.87535 1.12488,3.77281 1.12488,4.21659 0,1.2979 2.27784,3.20686 3.82653,3.20686 0.78459,0 1.76976,-0.41356 2.18927,-0.91903 z m 61.17501,-2.13635 c 0.006,-0.61021 -1.67082,-1.7332 -4.64082,-3.10827 -4.19253,-1.94108 -10.93586,-4.2599 -11.29591,-3.8843 -0.078,0.0814 -0.33274,1.43046 -0.56608,2.99796 l -0.42426,2.84999 2.18313,0 c 1.94904,0 2.22199,-0.19434 2.54562,-1.81248 0.54235,-2.71173 1.54462,-2.91189 1.3164,-0.2629 -0.15616,1.81258 0.0413,2.34505 0.99822,2.69233 0.65609,0.2381 1.40721,0.30844 1.66917,0.15632 0.26196,-0.15212 0.84675,0.0309 1.29954,0.40667 0.64444,0.53483 0.90779,0.41689 1.21244,-0.54298 0.21405,-0.67442 0.22083,-1.49863 0.0151,-1.83159 -0.20578,-0.33295 -0.0882,-0.60537 0.26126,-0.60537 0.34948,0 0.63541,0.90594 0.63541,2.01321 0,1.75327 0.25178,2.0875 1.95,2.58863 2.05543,0.60654 2.82335,0.15856 2.84082,-1.65722 z m -69.07439,1.31974 c 1.03214,-0.65395 0.37869,-6.28353 -0.87487,-7.53708 -0.46286,-0.46286 -0.84155,-1.07077 -0.84155,-1.35092 0,-0.28014 -0.41354,-1.09975 -0.91896,-1.82135 -0.78281,-1.1176 -1.13376,-1.21414 -2.36861,-0.6515 -1.21703,0.55452 -1.39348,0.96024 -1.09969,2.5285 0.28885,1.54191 1.45907,4.64525 2.43882,6.46761 0.11817,0.21978 -0.2726,0.50237 -0.86836,0.62796 -0.88001,0.18553 -0.74554,0.41558 0.7168,1.22637 2.06883,1.14706 2.68211,1.22908 3.81642,0.51041 z m -25.81552,-2.05887 c 0.72054,-0.76698 1.12761,-1.57698 0.90459,-1.8 -0.22302,-0.22301 -0.15799,-0.40594 0.14451,-0.40649 0.3025,-5.6e-4 0.62487,-2.01856 0.71637,-4.48446 0.1839,-4.95607 0.24721,-4.88518 -4.47307,-5.00929 l -1.9067,-0.0502 -0.1937,5.22244 c -0.27437,7.39745 1.60015,9.94254 4.808,6.52794 z m 8.0346,0.19913 1.9645,-1.19538 0,-5.09758 c 0,-5.38496 -0.48322,-6.29804 -2.70402,-5.1095 -0.6144,0.32881 -1.80984,0.59785 -2.65654,0.59785 -1.65846,0 -1.53634,-0.52889 -1.78002,7.70891 -0.044,1.48586 0.33113,2.30106 1.44058,3.13099 1.83896,1.37564 1.41011,1.37969 3.7355,-0.0353 z m -27.33512,-1.25272 c 1.05519,-2.18743 4.09613,-10.3703 4.09799,-11.02729 0.001,-0.50048 -2.37654,-1.3008 -5.04621,-1.69835 -0.59472,-0.0886 -1.26201,1.48584 -2.2352,5.27375 -1.70231,6.62585 -1.70207,6.61489 -0.17946,8.13749 1.4734,1.47341 2.41389,1.28166 3.36288,-0.6856 z m 37.47804,0.90755 c 1.32907,-0.68729 1.70711,-1.21238 1.40393,-1.95 -0.22821,-0.5552 -0.55591,-2.16314 -0.72822,-3.57322 -0.17232,-1.41008 -0.61499,-2.75828 -0.98372,-2.996 -1.3497,-0.87017 -6.08539,-1.83351 -6.59331,-1.34123 -0.28759,0.27874 -0.4075,2.31908 -0.26646,4.53407 0.21014,3.30007 0.50616,4.22948 1.63937,5.14711 1.68751,1.36646 3.14146,1.41361 5.52841,0.17927 z m 45.00867,-4.90944 c 1.0734,-4.62687 0.82124,-5.19756 -2.55957,-5.79279 -2.06655,-0.36385 -2.19087,-0.29047 -2.55,1.50514 -1.12736,5.63679 -0.19392,8.27258 2.94623,8.3194 1.02193,0.0152 1.37872,-0.64972 2.16334,-4.03175 z m 13.6918,2.88944 c 0.34161,-0.63831 0.62111,-1.95546 0.62111,-2.92702 0,-1.55044 -0.28488,-1.83877 -2.32964,-2.35779 l -2.32964,-0.59132 -0.37093,2.70619 c -0.22778,1.66188 -0.11081,3.01959 0.30311,3.51834 0.99038,1.19333 3.38983,0.98974 4.10599,-0.3484 z m -26.51752,-6.64838 0.2864,-4.00283 -3.02692,-0.5985 -3.02693,-0.5985 -0.22215,3.95438 c -0.24286,4.32298 0.78232,6.39654 3.35279,6.78146 1.75892,0.2634 2.3037,-0.88037 2.63681,-5.53601 z m -7.58699,2.70161 c 0.211,-0.98597 0.41558,-3.17869 0.45463,-4.8727 0.0626,-2.71651 -0.0883,-3.12271 -1.27901,-3.4418 -3.37004,-0.90314 -3.86062,-0.58065 -4.21664,2.77183 -0.18399,1.7325 -0.48876,3.555 -0.67726,4.05 -0.39825,1.04577 3.03664,3.71836 4.43927,3.45406 0.49246,-0.0928 1.06801,-0.97542 1.27901,-1.96139 z m -8.09136,-1.19267 c -0.20278,-0.52845 -0.008,-0.9 0.47162,-0.9 1.08231,0 1.54536,-1.34061 1.54536,-4.47408 0,-2.40504 -0.12439,-2.6008 -1.875,-2.95092 -3.2612,-0.65224 -3.33903,-0.58142 -3.70905,3.375 -0.31544,3.37285 -0.21822,3.85426 0.96667,4.78665 1.64211,1.2922 3.06795,1.38177 2.6004,0.16335 z m -5.41971,-2.459 c 0.49615,-1.18745 0.81987,-3.14304 0.71939,-4.34576 -0.20273,-2.42648 -0.0251,-2.3638 -9.36117,-3.30278 l -3.77847,-0.38001 0.17847,3.74377 c 0.16224,3.40326 0.30576,3.76181 1.57795,3.94199 1.6881,0.2391 3.27846,-1.09692 4.58619,-3.85276 0.53384,-1.125 1.22796,-2.04545 1.54248,-2.04545 0.80532,0 0.73329,0.33135 -0.67001,3.08204 -0.68302,1.33883 -1.15552,2.49284 -1.05,2.56445 0.10552,0.0716 0.97077,0.72045 1.92277,1.44186 2.4049,1.82238 3.28918,1.64943 4.3324,-0.84735 z m 41.05032,-1.22088 c -6.22,-2.44045 -7.36058,-2.60263 -7.28315,-1.0356 0.02,0.40532 11.48989,3.59438 13.26952,3.68943 0.495,0.0265 -2.19887,-1.16778 -5.98637,-2.65383 z m -136.29443,0.64926 c 0.18965,-0.97866 0.0885,-1.02273 -0.75,-0.32682 -1.14675,0.95172 -1.28953,2.06409 -0.2192,1.70772 0.4125,-0.13735 0.84864,-0.75876 0.9692,-1.3809 z m -0.38717,-2.70511 c 0.56762,-1.13535 1.81048,-2.73927 2.76191,-3.56427 1.46161,-1.26738 1.68758,-1.84264 1.45707,-3.70939 -0.25983,-2.10419 -0.34324,-2.1773 -1.75194,-1.53545 -1.46316,0.66666 -1.51529,1.09589 -0.4548,3.74484 0.42744,1.0677 0.3688,1.10921 -0.53193,0.37653 -0.55679,-0.45291 -1.01234,-1.19541 -1.01234,-1.65 0,-0.45459 -0.27397,-0.82653 -0.60882,-0.82653 -0.92005,0 -2.98639,3.70177 -2.98894,5.35458 l -0.002,1.45459 1.49763,-1.40695 c 0.8237,-0.77382 1.65873,-1.24587 1.85562,-1.04898 0.19689,0.19689 -0.34205,0.96664 -1.19764,1.71057 -1.58848,1.38117 -2.16835,3.82878 -0.80561,3.40045 0.4125,-0.12964 1.21441,-1.16464 1.78203,-2.29999 z m 3.82503,2.0308 c 0.9819,-0.37678 0.97599,-0.4327 -0.0851,-0.8049 -0.77864,-0.27313 -0.14627,-0.53185 1.99386,-0.81574 3.35813,-0.44548 3.972,-1.39925 2.33843,-3.63329 -1.01027,-1.38163 -2.63449,-0.9103 -4.85694,1.40945 -1.20017,1.25271 -1.55281,2.08695 -1.26521,2.9931 0.4489,1.41436 0.43009,1.40583 1.87493,0.85138 z m 77.50971,-2.14596 c 0.0917,-1.40201 0.30049,-2.98405 0.46394,-3.51565 0.23395,-0.76091 -0.30105,-1.04853 -2.51481,-1.35196 -1.54659,-0.21198 -2.87535,-0.31704 -2.95281,-0.23347 -0.0775,0.0836 -0.23584,1.49188 -0.35196,3.12955 l -0.21113,2.97758 2.4,0.72631 c 1.32,0.39947 2.535,0.74666 2.7,0.77153 0.165,0.0249 0.37505,-1.10187 0.46677,-2.50389 z m -7.52847,0.30089 c 0.50837,-0.5775 1.036,-2.0625 1.17252,-3.3 l 0.24822,-2.25 -3.42162,0 -3.4216,0 -0.20792,3.05029 c -0.11434,1.67766 -0.0954,3.16266 0.0421,3.3 0.71758,0.71673 4.76286,0.13742 5.58831,-0.80029 z m -17.8383,-0.15 c -0.20395,-0.33 0.0348,-0.6 0.53057,-0.6 1.14508,0 2.76943,-2.28755 2.76943,-3.90017 0,-1.12434 -0.26988,-1.20521 -3.05874,-0.91649 -2.92852,0.30317 -3.09317,0.41715 -3.86723,2.67698 -0.99799,2.91359 -0.75599,3.33968 1.89679,3.33968 1.24721,0 1.94941,-0.24366 1.72918,-0.6 z m 10.76932,-0.76898 c 0.61296,-0.93549 0.7516,-1.91256 0.43786,-3.08571 -0.42499,-1.58907 -0.67495,-1.71674 -3.36104,-1.71674 -2.83301,0 -2.92122,0.0554 -3.71499,2.33571 -1.06471,3.05856 -1.05708,3.10874 0.51885,3.41228 3.52827,0.67957 5.22644,0.41718 6.11932,-0.94554 z m 60.60068,0.84872 c -0.3135,-0.28613 -1.83552,-0.93896 -3.38226,-1.45071 -2.48029,-0.82064 -2.77145,-0.82413 -2.46654,-0.0295 0.19014,0.49551 0.91566,1.13122 1.61226,1.41268 1.69298,0.68408 4.96924,0.73633 4.23654,0.0676 z m -112.47,-2.55218 c 0,-1.09987 -1.4499,-3.52756 -2.10678,-3.52756 -0.39278,0 -1.54397,0.28927 -2.55818,0.64283 l -1.84403,0.64283 1.17662,1.99422 c 1.1254,1.90741 1.26707,1.96646 3.25449,1.3565 1.14283,-0.35075 2.07788,-0.84972 2.07788,-1.10882 z m 36.6,-0.1996 c 0,-0.4564 0.16388,-1.2569 0.36419,-1.77889 0.29361,-0.76514 -0.0879,-0.94907 -1.96845,-0.94907 -2.03237,0 -2.41871,0.22798 -3.00114,1.77102 -0.61882,1.63943 -0.55058,1.81172 0.91846,2.31892 1.79577,0.62 3.68694,-0.0786 3.68694,-1.36198 z m 69,0.9727 c 0,-0.73361 -0.69861,-1.31374 -2.1,-1.74384 -1.98477,-0.60914 -2.1,-0.56757 -2.1,0.75761 0,1.33112 0.62912,1.69653 3.45,2.00386 0.4125,0.0449 0.75,-0.41299 0.75,-1.01763 z m -4.8,-1.33128 c 0,-0.83712 -0.66533,-1.50861 -2.08073,-2.1 -3.05986,-1.27849 -3.24292,-1.12481 -2.13412,1.79156 0.45011,1.18389 1.00395,1.53906 2.4,1.53906 1.4299,0 1.81485,-0.26103 1.81485,-1.23062 z m -94.81334,-1.09237 c -0.007,-0.20736 -0.47984,-0.97971 -1.05,-1.71633 -0.85635,-1.10637 -1.4204,-1.27658 -3.2429,-0.9786 l -2.20625,0.36073 0.92824,1.94652 c 0.90057,1.88851 0.99761,1.92891 3.25624,1.35561 1.2804,-0.325 2.32201,-0.76057 2.31467,-0.96793 z m 89.38997,-0.1585 c -0.66635,-2.32339 -0.43332,-2.12868 -3.15622,-2.63733 -2.26946,-0.42394 -2.27777,-0.41819 -1.87253,1.29649 0.48777,2.06391 0.78554,2.41768 2.35212,2.79448 2.94559,0.70851 3.2494,0.54351 2.67663,-1.45364 z m -5.61244,-0.26759 c -0.20031,-0.52199 -0.36419,-1.33199 -0.36419,-1.8 0,-0.70776 -2.13663,-0.85092 -12.70001,-0.85092 -6.98499,0 -12.51794,0.18205 -12.29543,0.40455 0.2225,0.22251 3.845,0.75441 8.04999,1.18199 4.205,0.42759 8.638,0.9409 9.85111,1.14069 2.06719,0.34046 2.18701,0.27567 1.90872,-1.03199 -0.2838,-1.33347 -0.26418,-1.34211 0.44305,-0.19524 1.02642,1.66443 1.77342,2.08018 3.75676,2.09081 1.31849,0.007 1.63012,-0.20989 1.35,-0.93989 z m -77.03682,-0.64156 c 0.23506,-0.13872 0.11994,-0.92698 -0.25583,-1.75168 -0.62805,-1.37844 -0.9047,-1.46791 -3.42737,-1.10847 -3.46741,0.49406 -3.86202,0.87275 -2.67516,2.56724 0.83281,1.189 1.2826,1.31388 3.44444,0.95635 1.3676,-0.22617 2.67887,-0.52473 2.91392,-0.66344 z m 7.49272,-1.06399 c 0.066,-0.047 -0.21954,-0.75152 -0.63464,-1.56547 -0.65506,-1.28444 -1.10347,-1.4568 -3.39504,-1.30496 -3.23926,0.21462 -3.39162,0.35429 -2.40258,2.20232 0.7148,1.33561 1.05136,1.44125 3.5509,1.11457 1.5187,-0.19849 2.81531,-0.39939 2.88136,-0.44646 z m -27.42009,-3.06648 c 0,-1.64177 -0.19154,-1.73971 -1.7603,-0.90014 -0.74847,0.40057 -0.99276,1.04255 -0.79344,2.08519 0.24184,1.26514 0.46943,1.40932 1.42085,0.90013 0.64011,-0.34257 1.13289,-1.24957 1.13289,-2.08518 z m 34.15783,1.97111 c -0.13831,-2.45972 -0.95243,-3.11964 -3.61171,-2.92764 -3.40707,0.246 -3.63595,0.42403 -2.82719,2.19906 0.58091,1.27495 1.07358,1.47858 3.57738,1.47858 1.94544,0 2.88977,-0.24751 2.86152,-0.75 z m -20.98436,-1.69084 c 4.30459,-0.75188 7.82653,-1.60847 7.82653,-1.90354 0,-0.29507 -0.4725,-0.38674 -1.05,-0.20371 -0.5775,0.18302 -4.05904,0.87439 -7.73676,1.53637 -3.67772,0.66198 -7.32272,1.48304 -8.1,1.82458 -1.32661,0.58292 -1.33211,0.60543 -0.0898,0.36717 0.72791,-0.1396 4.84541,-0.86899 9.15,-1.62087 z m 28.6697,-0.25916 c -0.69582,-2.26719 -0.74001,-2.28308 -4.80251,-1.72625 -2.70139,0.37026 -2.72121,0.38985 -2.12504,2.1 0.56977,1.63447 0.78706,1.72625 4.08691,1.72625 l 3.48515,0 -0.64451,-2.1 z m 6.17794,0.93944 c -0.34161,-0.6383 -0.62111,-1.74719 -0.62111,-2.46419 0,-0.94224 -0.26311,-1.20268 -0.94908,-0.93945 -0.52198,0.20031 -1.60198,0.3642 -2.4,0.3642 -1.60263,0 -1.72936,0.38952 -0.86577,2.66094 0.4955,1.30327 0.95834,1.53906 3.02111,1.53906 2.22243,0 2.38152,-0.10173 1.81485,-1.16056 z m 8.68694,-1.01272 c -0.49943,-1.1953 -0.90805,-2.2753 -0.90805,-2.4 0,-0.1247 -1.62,-0.22672 -3.6,-0.22672 -3.29465,0 -3.6,0.11049 -3.6,1.30275 0,2.43877 1.66495,3.49725 5.50104,3.49725 l 3.51506,0 -0.90805,-2.17328 z m 6.74465,1.29098 c 0.084,-0.0677 -0.14492,-0.9769 -0.50869,-2.02041 -0.60735,-1.74224 -0.87726,-1.89729 -3.30271,-1.89729 -1.45271,0 -2.6413,0.12583 -2.6413,0.27964 0,0.1538 0.45626,1.23642 1.0139,2.40582 0.94974,1.99163 1.14908,2.10179 3.15,1.74076 1.17486,-0.21198 2.20482,-0.44081 2.2888,-0.50852 z m 6.55731,-0.0854 c 1.14156,-0.30615 1.22562,-0.53657 0.6537,-1.7918 -0.40524,-0.8894 -1.16464,-1.44048 -1.98502,-1.44048 -0.73078,0 -2.20331,-0.17493 -3.27228,-0.38872 -1.83561,-0.36712 -1.91904,-0.30879 -1.50157,1.05 0.87927,2.86189 2.4905,3.54041 6.10517,2.571 z m -63.71441,-2.53717 c 0.49353,-1.28613 0.04,-1.45728 -2.65517,-1.00194 -2.01727,0.34081 -2.44043,0.6488 -2.44043,1.77621 0,1.29621 0.11818,1.33235 2.38147,0.72825 1.30982,-0.34961 2.53117,-1.02574 2.71413,-1.50252 z m 69.9044,1.17486 c 0,-1.15342 -1.51272,-1.84645 -4.06383,-1.86178 -1.31706,-0.008 -1.33012,0.0433 -0.381,1.49181 1.23701,1.88791 4.44483,2.15493 4.44483,0.36997 z m 7.2,0.23003 c 0,-0.54737 -0.55834,-0.9 -1.425,-0.9 -0.78375,0 -2.2514,-0.16528 -3.26143,-0.36729 -1.64756,-0.32951 -1.80234,-0.23695 -1.50501,0.9 0.28019,1.07146 0.78414,1.26729 3.26141,1.26729 2.20447,0 2.93003,-0.22287 2.93003,-0.9 z m 5.7,0.26557 c -3.293,-0.68113 -4.5,-0.67189 -4.5,0.0344 0,0.33843 1.504,0.56992 3.45,0.531 3.41311,-0.0683 3.42433,-0.0743 1.05,-0.56543 z m -77.4,-2.077 c 0.85114,-0.17672 1.5,-0.72998 1.5,-1.27901 0,-0.78809 -0.46123,-0.9057 -2.48647,-0.63406 -2.25294,0.30218 -3.47948,1.13727 -3.50434,2.38593 -0.005,0.25378 0.66581,0.32128 1.49081,0.15 0.825,-0.17129 2.175,-0.45158 3,-0.62286 z m 13.89071,-0.0512 c 0.92935,-0.24933 1.35758,-0.91898 1.52952,-2.39181 0.20331,-1.74148 0.0561,-2.04431 -0.99071,-2.03733 -3.3689,0.0224 -4.6469,1.20595 -4.04061,3.74181 0.25958,1.08568 1.27448,1.28489 3.5018,0.68733 z m 62.51493,0.0683 c -0.39301,-0.39302 -13.34397,-3.30564 -14.69849,-3.30564 -0.95766,0 -0.97185,0.0924 -0.14163,0.92266 0.50747,0.50747 2.38782,1.05843 4.17857,1.22436 1.79075,0.16592 4.47091,0.52692 5.95591,0.80223 3.30351,0.61243 5.09755,0.74831 4.70564,0.35639 z m -67.93018,-1.13252 c 0.0415,-0.0402 0.26115,-0.6773 0.48809,-1.41574 0.38162,-1.24172 0.26321,-1.31766 -1.57546,-1.01048 -4.37879,0.73155 -4.68809,0.87018 -4.68809,2.10129 0,1.11986 0.24533,1.18973 2.85,0.81169 1.5675,-0.2275 2.88396,-0.44654 2.92546,-0.48676 z m 11.37361,0.22688 c 1.21214,0 1.45093,-0.29624 1.45093,-1.8 0,-0.99 0.27,-1.8 0.6,-1.8 0.33,0 0.6,0.6921 0.6,1.53801 0,1.37376 0.20825,1.51794 1.95,1.35 1.62485,-0.15666 1.98165,-0.46314 2.13985,-1.83801 l 0.18985,-1.65 -3.97929,0 c -4.96401,0 -6.30041,0.65443 -6.30041,3.0853 0,1.43414 0.21058,1.76228 0.94907,1.47889 0.52199,-0.20031 1.60199,-0.36419 2.4,-0.36419 z m 13.59795,-2.30602 c 0.46826,-1.80632 -0.2091,-2.49414 -2.44702,-2.4848 -2.9472,0.0123 -3.948,0.72104 -3.50585,2.4827 0.31929,1.27215 0.63564,1.39849 3.02588,1.20838 1.86075,-0.14799 2.74736,-0.51338 2.92699,-1.20628 z m 26.74198,0.65602 c -0.26464,-1.39649 -4.689,-1.89287 -4.689,-0.52608 0,0.79474 0.91238,1.12594 4.09399,1.48618 0.45325,0.0513 0.7086,-0.36072 0.59501,-0.9601 z m -20.51354,-0.36855 c 0.0415,-0.0448 0.2622,-0.68895 0.49043,-1.43145 0.3906,-1.27072 0.24522,-1.34992 -2.47546,-1.34864 -2.80993,10e-4 -2.89227,0.0525 -2.95627,1.83852 -0.0654,1.82454 -0.0489,1.83436 2.4,1.43009 1.35621,-0.22388 2.4998,-0.44372 2.5413,-0.48852 z m 8.62454,-1.04681 c 0,-1.07487 -0.345,-1.1765 -3.44417,-1.01459 -2.67211,0.13961 -3.48755,0.408 -3.6377,1.19728 -0.15901,0.83583 0.37519,1.04993 2.99416,1.2 3.84666,0.22042 4.08771,0.13889 4.08771,-1.38269 z m 6.15914,0.72162 c 0.25187,-0.96318 -0.0923,-1.18322 -2.18003,-1.3938 -2.53921,-0.25613 -3.50558,0.30982 -2.95941,1.73313 0.18268,0.47604 1.2336,0.80441 2.57451,0.80441 1.72407,0 2.33735,-0.27347 2.56493,-1.14374 z"
       id="path4394"
       inkscape:connector-curvature="0" />
  </g>
</svg>
